SplineFontDB: 3.0
FontName: Libertinage
FullName: Libertinage
FamilyName: Libertinage
Weight: Full
Copyright: Libertinage is based on Linux Libertine.\nIt was designed by OSP (Harrisson and Ludivine Loiseau), in August 2008. It is based on Linux Libertine.\n\nLinux Libertine by Philipp H. Poll, Open Font under Terms of following Free Software Licenses:\nGPL (General Public License) and OFL (Open Font License).\nCreated with FontForge 1.0 (http://fontforge.sf.net) Sept 2003, 2004, 2005, 2006, 2007
UComments: "+AAoA" 
Version: 1.0; 2008; OFL release
ItalicAngle: 0
UnderlinePosition: -200
UnderlineWidth: 80
Ascent: 1638
Descent: 410
LayerCount: 2
Layer: 0 0 "Back" 
Layer: 1 0 "Fore" 
XUID: [1021 993 1524925707 7833223]
FSType: 0
OS2Version: 0
OS2_WeightWidthSlopeOnly: 0
OS2_UseTypoMetrics: 0
CreationTime: 1156455862
ModificationTime: 1224683303
PfmFamily: 17
TTFWeight: 400
TTFWidth: 5
LineGap: 135
VLineGap: 0
OS2TypoAscent: 1501
OS2TypoAOffset: 0
OS2TypoDescent: -499
OS2TypoDOffset: 0
OS2TypoLinegap: 0
OS2WinAscent: 1830
OS2WinAOffset: 0
OS2WinDescent: 500
OS2WinDOffset: 0
HheadAscent: 1830
HheadAOffset: 0
HheadDescent: -485
HheadDOffset: 0
OS2FamilyClass: 261
OS2Vendor: 'PfEd'
Lookup: 1 0 0 "'smcp' Gemeine nach Kapitaelchen"  {"'smcp' Gemeine nach Kapitaelchen 1"  } ['smcp' ('DFLT' <'dflt' > 'cyrl' <'dflt' > 'goth' <'dflt' > 'grek' <'dflt' > 'latn' <'dflt' > ) ]
Lookup: 8 0 0 "'clig' Contextual Ligatures lookup 0"  {"'clig' Contextual Ligatures lookup 0-1"  } ['clig' ('DFLT' <'dflt' > 'cyrl' <'dflt' > 'grek' <'dflt' > 'hebr' <'dflt' > 'latn' <'dflt' > ) ]
Lookup: 4 0 1 "'liga' Standardligaturen"  {"'liga' Standardligaturen-0"  "'liga' Standardligaturen 1"  } ['liga' ('DFLT' <'dflt' > 'cyrl' <'dflt' > 'goth' <'dflt' > 'grek' <'dflt' > 'latn' <'dflt' > ) ]
Lookup: 4 0 0 "'hlig' Historische Ligaturen"  {"'hlig' Historische Ligaturen 1"  } ['hlig' ('DFLT' <'dflt' > 'cyrl' <'dflt' > 'grek' <'dflt' > 'hebr' <'dflt' > 'latn' <'dflt' > ) ]

StartChar: exclam
Encoding: 33 33 0
Width: 466
VWidth: 2047
Flags: HMW
HStem: -25 218<143.713 318.287>
VStem: 120 226<865.354 1318.35> 122 218<-3.28705 171.287>
LayerCount: 2
Fore
SplineSet
232 1347 m 0
 287 1347 346 1300 346 1198 c 0
 346 1065 314 978 293 802 c 0
 267 582 264 459 261 431 c 0
 259 407 252 390 232 390 c 0
 208 390 204 404 203 416 c 0
 199 458 188 643 172 802 c 0
 153 984 120 1054 120 1198 c 0
 120 1309 186 1347 232 1347 c 0
122 84 m 0
 122 144 171 193 231 193 c 0
 291 193 340 144 340 84 c 0
 340 24 291 -25 231 -25 c 0
 171 -25 122 24 122 84 c 0
EndSplineSet
Validated: 3073
EndChar

StartChar: quotedbl
Encoding: 34 34 1
Width: 690
VWidth: 2047
Flags: HW
HStem: 873 446 875 446
VStem: 128 176<1204.88 1298.33> 387 176<1206.88 1300.33>
LayerCount: 2
Fore
SplineSet
441 875 m 1
 441 875 387 1200 387 1219 c 0
 387 1263 430 1321 492 1321 c 0
 545 1321 563 1286 563 1253 c 0
 563 1221 496 882 496 882 c 1
 441 875 l 1
182 873 m 1
 182 873 128 1198 128 1217 c 0
 128 1261 171 1319 233 1319 c 0
 286 1319 304 1284 304 1251 c 0
 304 1219 237 880 237 880 c 1
 182 873 l 1
EndSplineSet
Validated: 3073
EndChar

StartChar: numbersign
Encoding: 35 35 2
Width: 899
VWidth: 999
Flags: HW
HStem: 374 100<64 233 317 527 610 781> 699 100<116 285 368 579 662 832>
VStem: 49 798
DStem2: 179 26 246 26 0.157819 0.987468<10.5738 352.161 464.165 681.295 793.141 1133.9> 473 26 540 26 0.156098 0.987742<10.4586 352.163 463.894 681.297 793.027 1133.74>
LayerCount: 2
Fore
SplineSet
544 474 m 1
 579 699 l 1
 354 699 l 1
 317 474 l 1
 544 474 l 1
647 699 m 1
 610 474 l 1
 795 474 l 1
 781 374 l 1
 597 374 l 1
 540 26 l 1
 473 26 l 1
 527 374 l 1
 303 374 l 1
 246 26 l 1
 179 26 l 1
 233 374 l 1
 49 374 l 1
 64 474 l 1
 250 474 l 1
 285 699 l 1
 100 699 l 1
 116 799 l 1
 301 799 l 1
 356 1146 l 1
 425 1146 l 1
 368 799 l 1
 595 799 l 1
 649 1146 l 1
 717 1146 l 1
 662 799 l 1
 847 799 l 1
 832 699 l 1
 647 699 l 1
EndSplineSet
Validated: 3073
EndChar

StartChar: dollar
Encoding: 36 36 3
Width: 899
VWidth: 2047
Flags: HMW
HStem: -25 67<285.897 582.038> 1110 61<304.454 584.966>
VStem: 92 131<792.865 1027.68> 403 70<-165 1284> 670 148<195.435 404.448>
LayerCount: 2
Fore
SplineSet
186 20 m 0
 154 20 159 -2 116 -2 c 1
 116 73 100 185 83 299 c 1
 138 305 l 1
 169.603 180.447 261.684 60.2138 403 43.88 c 1
 403 540.886 l 1
 281.407 595.103 92 688.166 92 889 c 0
 92 1066.26 267.465 1155.8 403 1169.22 c 1
 403 1284 l 1
 473 1284 l 1
 473 1170.52 l 1
 570.057 1167.85 635.708 1155 711 1155 c 1
 716 1063 735 962 752 862 c 1
 699 854 l 1
 688 891 l 2
 647.853 1025.13 586.062 1096.81 473 1108.34 c 1
 473 670.63 l 1
 589.413 625.65 818 527.284 818 319 c 0
 818 252.424 800.312 -5.93118 473 -24.0025 c 1
 473 -165 l 1
 403 -165 l 1
 403 -24.0464 l 1
 291.411 -17.545 226.19 20 186 20 c 0
473 513.457 m 1
 473 44.8615 l 1
 554.457 56.8898 670 109.873 670 260 c 0
 670 424.345 556.083 481.51 473 513.457 c 1
403 699.558 m 1
 403 1107.24 l 1
 306.332 1092.3 223 1017.27 223 897 c 0
 223 801.115 323.472 736.628 403 699.558 c 1
EndSplineSet
Validated: 3073
EndChar

StartChar: percent
Encoding: 37 37 4
Width: 1305
VWidth: 2047
Flags: HW
HStem: -25 59<905.054 1064.97> 460 64<985.377 1123.77> 621 59<246.154 406.829> 991 76<667.434 880.23> 1105 65<323.277 486.957>
VStem: 120 105<697.368 982.319> 504 63<803.315 1033.99> 779 105<50.7608 336.739> 1163 62<154.398 444.055>
DStem2: 216.603 15 285 -16 0.583402 0.812184<14.7252 1248.91 1308.04 1431.94>
LayerCount: 2
Fore
SplineSet
884 170 m 0
 884 64 939 34 976 34 c 0
 1090 34 1163 222 1163 335 c 0
 1163 442 1100 460 1071 460 c 0
 971 460 884 288 884 170 c 0
779 200 m 0
 779 354 898 524 1049 524 c 0
 1131 524 1225 487 1225 338 c 0
 1225 200 1134 -25 964 -25 c 0
 839 -25 779 92 779 200 c 0
745 1067 m 0
 831 1067 989 1091 1052 1178 c 1
 1117.38 1145 l 1
 285 -16 l 1
 216.603 15 l 1
 944.307 1030 l 1
 865.307 999 786 991 726 991 c 0
 677 991 600 1012 561 1035 c 1
 565 1019 567 1001 567 983 c 0
 567 851 478 621 306 621 c 0
 178 621 120 739 120 844 c 0
 120 1001 241 1170 390 1170 c 0
 447 1170 505 1143 526 1119 c 1
 636 1067 709 1067 745 1067 c 0
225 815 m 0
 225 709 281 680 318 680 c 0
 430 680 504 863 504 981 c 0
 504 1083 448 1105 411 1105 c 0
 312 1105 225 934 225 815 c 0
EndSplineSet
Validated: 3073
EndChar

StartChar: parenleft
Encoding: 40 40 5
Width: 606
VWidth: 2047
Flags: HW
VStem: 90 159<296.439 829.895>
LayerCount: 2
Fore
SplineSet
90 516 m 0
 90 898 281 1240 525 1448 c 1
 561 1412 l 1
 496 1338 249 1054 249 516 c 0
 249 -23 493 -306 561 -383 c 1
 525 -417 l 1
 99 -49 90 423 90 516 c 0
EndSplineSet
Validated: 3073
Substitution2: "'c2sc' Versale nach Kapitaelchen 1" parenleft.sc
AlternateSubs2: "'aalt' Alle Alternativen zeigen 1" parenleft.sc
Substitution2: "'sinf' Wissenschaftliche Indices 1" parenleft.inferior
Substitution2: "'sups' Hochgestellte 1" parenleft.superior
Substitution2: "'case' Versalformen 1" parenleft.sc
EndChar

StartChar: parenright
Encoding: 41 41 6
Width: 606
VWidth: 2047
Flags: HW
VStem: 357 159<202.105 735.561>
LayerCount: 2
Fore
SplineSet
516 516 m 0
 516 134 325 -208 81 -416 c 1
 45 -380 l 1
 110 -306 357 -22 357 516 c 0
 357 1055 113 1338 45 1415 c 1
 81 1449 l 1
 507 1081 516 609 516 516 c 0
EndSplineSet
Validated: 3073
Substitution2: "'c2sc' Versale nach Kapitaelchen 1" parenright.sc
AlternateSubs2: "'aalt' Alle Alternativen zeigen 1" parenright.sc
Substitution2: "'sinf' Wissenschaftliche Indices 1" parenright.inferior
Substitution2: "'sups' Hochgestellte 1" parenright.superior
Substitution2: "'case' Versalformen 1" parenright.sc
EndChar

StartChar: asterisk
Encoding: 42 42 7
Width: 887
VWidth: 2047
Flags: HMW
LayerCount: 2
Fore
SplineSet
406 1162 m 1
 379 1167 350 1169 319 1169 c 0
 220 1169 153 1183 153 1246 c 0
 153 1274 173 1307 221 1307 c 0
 291 1307 327 1240 418 1202 c 1
 410 1283 370 1337 370 1390 c 0
 370 1434 396 1470 433 1470 c 0
 469 1470 500 1448 500 1399 c 0
 500 1344 465 1262 460 1201 c 1
 554 1241 587 1306 656 1306 c 0
 710 1306 724 1266 724 1245 c 0
 724 1183 654 1170 584 1170 c 0
 544 1170 508 1167 472 1161 c 1
 541 1086 642 1065 642 984 c 0
 642 947 611 923 582 923 c 0
 502 923 487 1056 437 1137 c 1
 385 1045 370 923 293 923 c 0
 259 923 233 951 233 982 c 0
 233 1070 337 1085 406 1162 c 1
EndSplineSet
Validated: 3073
EndChar

StartChar: plus
Encoding: 43 43 8
Width: 1080
VWidth: 2047
Flags: HW
HStem: 424 101<135 490 591 945> 861 20G<490 591>
VStem: 490 101<70 424 525 881>
LayerCount: 2
Fore
SplineSet
591 525 m 1
 945 525 l 1
 945 424 l 1
 591 424 l 1
 591 70 l 1
 490 70 l 1
 490 424 l 1
 135 424 l 1
 135 525 l 1
 490 525 l 1
 490 881 l 1
 591 881 l 1
 591 525 l 1
EndSplineSet
Validated: 3073
AlternateSubs2: "'aalt' Alle Alternativen zeigen 1" plus.superior plus.inferior uni2098
Substitution2: "'sinf' Wissenschaftliche Indices 1" plus.inferior
Substitution2: "'sups' Hochgestellte 1" plus.superior
EndChar

StartChar: slash
Encoding: 47 47 9
Width: 598
VWidth: 2047
Flags: HW
VStem: 8 570
DStem2: 8 -44 93 -44 0.319188 0.947692<27.131 1519.48>
LayerCount: 2
Fore
SplineSet
578 1396 m 1
 93 -44 l 1
 8 -44 l 1
 493 1396 l 1
 578 1396 l 1
EndSplineSet
Validated: 3073
Ligature2: "'frac' Brueche 1" uni2215
AlternateSubs2: "'aalt' Alle Alternativen zeigen 1" uni2215
EndChar

StartChar: one
Encoding: 49 49 10
Width: 899
VWidth: 2047
Flags: HW
HStem: -2 61<214 422.743 585.169 779> 1164 20G<487 577>
VStem: 430 147<62.3496 976.964>
LayerCount: 2
Fore
SplineSet
384 977 m 0
 346 977 255 941 211 919 c 1
 187 984 l 1
 366 1066 436 1111 538 1184 c 1
 577 1184 l 1
 577 154 l 2
 577 80 587 59 655 59 c 2
 762 59 l 2
 769 59 779 55 779 42 c 2
 779 -2 l 1
 498 2 l 1
 214 -2 l 1
 214 43 l 1
 215 50 217 59 230 59 c 2
 352 59 l 2
 430 59 430 94 430 154 c 2
 430 858 l 2
 430 928 430 977 384 977 c 0
EndSplineSet
Validated: 3073
AlternateSubs2: "'aalt' Alle Alternativen zeigen 1" one.oldstyle one.superior one.fitted
Substitution2: "'sups' Hochgestellte 1" one.superior
Substitution2: "'sinf' Wissenschaftliche Indices 1" one.inferior
Substitution2: "'pnum' Proportionalziffern 1" one.fitted
Substitution2: "'onum' Minuskelziffern 1" one.taboldstyle
EndChar

StartChar: two
Encoding: 50 50 11
Width: 899
VWidth: 999
Flags: HMW
HStem: 0 118<257 696.532> 1120 64<310.322 532.413>
VStem: 118 136<873.097 1041.36> 631 157<716.212 1035.96>
DStem2: 325 398 404 360 0.716277 0.697816<-195.907 421.325>
LayerCount: 2
Fore
SplineSet
118 908 m 0
 118 1024 232 1184 447 1184 c 0
 605 1184 788 1125 788 888 c 0
 788 734 707.918 656.085 598 549 c 2
 404 360 l 2
 394 350 257 211 257 118 c 1
 604 118 l 2
 674 118 710 154 739 266 c 1
 791 258 l 1
 750 0 l 1
 116 0 l 1
 116 114 135 202 325 398 c 2
 469 538 l 2
 583 656 631 755 631 880 c 0
 631 1066 504 1120 434 1120 c 0
 292 1120 254 1046 254 997 c 0
 254 980 258 965 263 950 c 0
 267 936 271 921 271 906 c 0
 271 852 229 832 196 832 c 0
 152 832 118 866 118 908 c 0
EndSplineSet
Validated: 3073
AlternateSubs2: "'aalt' Alle Alternativen zeigen 1" two.oldstyle two.superior two.fitted
Substitution2: "'sups' Hochgestellte 1" two.superior
Substitution2: "'sinf' Wissenschaftliche Indices 1" two.inferior
Substitution2: "'pnum' Proportionalziffern 1" two.fitted
Substitution2: "'onum' Minuskelziffern 1" two.taboldstyle
EndChar

StartChar: three
Encoding: 51 51 12
Width: 899
VWidth: 999
Flags: HMW
HStem: -25 63<287.665 496.095> 610 61<328 350.03> 1121 63<323.298 538.464>
VStem: 609 132<847.207 1069.33> 655 151<194.906 526.99>
LayerCount: 2
Fore
SplineSet
443 1121 m 0
 392 1121 241 1092 241 967 c 0
 241 929 227 867 172 867 c 0
 119 867 115 926 115 931 c 0
 115 996 198 1184 483 1184 c 0
 681 1184 741 1059 741 976 c 0
 741 925 725 824 540 707 c 1
 656 689 806 604 806 392 c 0
 806 121 602 -25 370 -25 c 0
 254 -25 91 27 91 105 c 0
 91 135 121 171 162 171 c 0
 200 171 219 150 237 123 c 0
 261 88 297 38 395 38 c 0
 462 38 655 106 655 364 c 0
 655 584 501 618 392 618 c 0
 372 618 351 615 328 610 c 1
 319 671 l 1
 477 698 609 851 609 947 c 0
 609 1063 526 1121 443 1121 c 0
EndSplineSet
Validated: 3073
AlternateSubs2: "'aalt' Alle Alternativen zeigen 1" three.oldstyle three.superior three.fitted
Substitution2: "'sups' Hochgestellte 1" three.superior
Substitution2: "'sinf' Wissenschaftliche Indices 1" three.inferior
Substitution2: "'pnum' Proportionalziffern 1" three.fitted
Substitution2: "'onum' Minuskelziffern 1" three.taboldstyle
EndChar

StartChar: four
Encoding: 52 52 13
Width: 899
VWidth: 999
Flags: HW
HStem: -2 59<389 522.543 674.959 805> 314 95<204 529 667 821> 1164 20G<523 529.833>
VStem: 529 138<59.3448 314 409 767.481>
LayerCount: 2
Fore
SplineSet
529 727 m 2
 529 741 531 757 548 768 c 0
 572 784 608 802 638 802 c 0
 666 802 667 780 667 739 c 2
 667 409 l 1
 833 409 l 1
 821 314 l 1
 667 314 l 1
 667 144 l 2
 667 85 676 57 736 57 c 2
 790 57 l 2
 802 57 805 48 805 42 c 2
 805 -2 l 1
 805 -2 673 2 588 2 c 0
 510 2 389 -2 389 -2 c 1
 389 43 l 2
 389 48 391 57 403 57 c 2
 459 57 l 2
 523 57 529 83 529 143 c 2
 529 314 l 1
 126 314 l 2
 118 314 115 317 109 325 c 2
 92 348 l 1
 67 391 l 2
 66 392 66 394 66 396 c 0
 66 398 67 400 69 402 c 0
 202 548 438 1006 512 1173 c 0
 515 1181 519 1184 527 1184 c 0
 532.667 1184 573 1165 597 1162 c 1
 505 914 355 648 204 409 c 1
 529 409 l 1
 529 727 l 2
EndSplineSet
Validated: 3073
AlternateSubs2: "'aalt' Alle Alternativen zeigen 1" four.oldstyle four.superior four.fitted
Substitution2: "'sups' Hochgestellte 1" four.superior
Substitution2: "'sinf' Wissenschaftliche Indices 1" four.inferior
Substitution2: "'pnum' Proportionalziffern 1" four.fitted
Substitution2: "'onum' Minuskelziffern 1" four.taboldstyle
EndChar

StartChar: five
Encoding: 53 53 14
Width: 899
VWidth: 999
Flags: HMW
HStem: -25 70<306.254 504.76> 662 96<248.02 521.61> 1044 140<284 416.626 424.785 513.703 520.678 721>
VStem: 633 148<184.867 537.424>
DStem2: 145 615 246 728 0.117254 0.993102<124.063 449.291>
LayerCount: 2
Fore
SplineSet
633 346 m 0
 633 558 519 662 392 662 c 0
 297 662 225 648 145 615 c 1
 211 1174 l 1
 278 1168 348 1165 420 1165 c 0
 522 1165 629 1171 740 1184 c 1
 752 1178 l 1
 721 1044 l 1
 641 1037 575 1034 518 1034 c 0
 426 1034 356 1042 284 1051 c 1
 246 728 l 1
 289 744 363 758 442 758 c 0
 660 758 781 570 781 380 c 0
 781 152 621 -25 390 -25 c 0
 273 -25 103 40 103 121 c 0
 103 160 136 186 173 186 c 0
 214 186 239 156 265 123 c 0
 294.094 86.0735 328 45 393 45 c 0
 525 45 633 168 633 346 c 0
EndSplineSet
Validated: 3073
AlternateSubs2: "'aalt' Alle Alternativen zeigen 1" five.oldstyle five.superior five.fitted
Substitution2: "'sups' Hochgestellte 1" five.superior
Substitution2: "'sinf' Wissenschaftliche Indices 1" five.inferior
Substitution2: "'pnum' Proportionalziffern 1" five.fitted
Substitution2: "'onum' Minuskelziffern 1" five.taboldstyle
EndChar

StartChar: six
Encoding: 54 54 15
Width: 899
VWidth: 999
Flags: HW
HStem: -25 60<390.544 580.755> 628 67<341.551 560.718> 1131 53<637.32 769>
VStem: 94 141<212.069 536> 686 138<156.55 507.305>
LayerCount: 2
Fore
SplineSet
237 536 m 1
 236 516 235 485 235 464 c 0
 235 120 389 35 492 35 c 0
 586 35 686 122 686 335 c 0
 686 433 637 628 441 628 c 0
 398 628 320 624 237 536 c 1
775 1131 m 1
 641 1118 527.027 1083.97 428 987 c 0
 334.025 894.974 267 758 243 594 c 1
 290 651 404 695 481 695 c 0
 784 695 824 444 824 351 c 0
 824 210 754 -25 472 -25 c 0
 321 -25 94 64 94 471 c 0
 94 660 158.03 842.97 298 985 c 0
 430.029 1118.97 568 1173 769 1184 c 1
 775 1131 l 1
EndSplineSet
Validated: 3073
AlternateSubs2: "'aalt' Alle Alternativen zeigen 1" six.oldstyle six.superior six.fitted
Substitution2: "'sups' Hochgestellte 1" six.superior
Substitution2: "'sinf' Wissenschaftliche Indices 1" six.inferior
Substitution2: "'pnum' Proportionalziffern 1" six.fitted
Substitution2: "'onum' Minuskelziffern 1" six.taboldstyle
EndChar

StartChar: seven
Encoding: 55 55 16
Width: 899
VWidth: 999
Flags: HW
HStem: -25 21G<238 376> 900 21G<95 167.5> 1041 121<197.735 672.098> 1164 20G<142 191.5 772.5 820>
LayerCount: 2
Fore
SplineSet
307 1041 m 2
 217 1041 187 1004 148 900 c 1
 95 907 l 1
 119 991 139 1070 145 1184 c 1
 188 1184 l 1
 195 1169 202 1162 249 1162 c 2
 640 1162 l 2
 713 1162 756 1164 789 1173 c 1
 820 1160 l 1
 602 630 488 312 376 -18 c 1
 244 -25 l 1
 238 -12 l 1
 368 282 525 663 675 1041 c 1
 307 1041 l 2
EndSplineSet
Validated: 3073
AlternateSubs2: "'aalt' Alle Alternativen zeigen 1" seven.oldstyle seven.superior seven.fitted
Substitution2: "'sups' Hochgestellte 1" seven.superior
Substitution2: "'sinf' Wissenschaftliche Indices 1" seven.inferior
Substitution2: "'pnum' Proportionalziffern 1" seven.fitted
Substitution2: "'onum' Minuskelziffern 1" seven.taboldstyle
EndChar

StartChar: nine
Encoding: 57 57 17
Width: 899
VWidth: 999
Flags: HW
HStem: -25 53<121 252.68> 464 67<329.282 548.449> 1124 60<309.245 499.456>
VStem: 66 138<651.695 1002.45> 655 141<623 946.931>
LayerCount: 2
Fore
SplineSet
653 623 m 1
 654 643 655 674 655 695 c 0
 655 1039 501 1124 398 1124 c 0
 304 1124 204 1037 204 824 c 0
 204 726 253 531 449 531 c 0
 492 531 570 535 653 623 c 1
115 28 m 1
 249 41 362.973 75.0272 462 172 c 0
 555.975 264.026 623 401 647 565 c 1
 600 508 486 464 409 464 c 0
 106 464 66 715 66 808 c 0
 66 949 136 1184 418 1184 c 0
 569 1184 796 1095 796 688 c 0
 796 499 731.97 316.03 592 174 c 0
 459.971 40.0282 322 -14 121 -25 c 1
 115 28 l 1
EndSplineSet
Validated: 3073
AlternateSubs2: "'aalt' Alle Alternativen zeigen 1" nine.oldstyle nine.superior nine.fitted
Substitution2: "'sups' Hochgestellte 1" nine.superior
Substitution2: "'sinf' Wissenschaftliche Indices 1" nine.inferior
Substitution2: "'pnum' Proportionalziffern 1" nine.fitted
Substitution2: "'onum' Minuskelziffern 1" nine.taboldstyle
EndChar

StartChar: colon
Encoding: 58 58 18
Width: 450
VWidth: 2047
Flags: HW
HStem: 76 218<153.713 328.287> 614 218<153.713 328.287>
VStem: 132 218<97.713 272.287 635.713 810.287>
LayerCount: 2
Fore
SplineSet
132 723 m 0
 132 783 181 832 241 832 c 0
 301 832 350 783 350 723 c 0
 350 663 301 614 241 614 c 0
 181 614 132 663 132 723 c 0
132 185 m 0
 132 245 181 294 241 294 c 0
 301 294 350 245 350 185 c 0
 350 125 301 76 241 76 c 0
 181 76 132 125 132 185 c 0
EndSplineSet
Validated: 3073
EndChar

StartChar: less
Encoding: 60 60 19
Width: 999
VWidth: 2047
Flags: HW
DStem2: 100 538 250 489 0.939999 0.341176<124.282 815.201> 250 489 100 441 0.939622 -0.342215<0 690.919>
LayerCount: 2
Fore
SplineSet
250 489 m 1
 899 252 l 1
 899 150 l 1
 100 441 l 1
 100 538 l 1
 899 828 l 1
 899 726 l 1
 250 489 l 1
EndSplineSet
Validated: 3073
EndChar

StartChar: equal
Encoding: 61 61 20
Width: 1080
VWidth: 2047
Flags: HW
HStem: 294 101<135 945> 551 101<135 945>
VStem: 135 810
LayerCount: 2
Fore
SplineSet
945 652 m 1
 945 551 l 1
 135 551 l 1
 135 652 l 1
 945 652 l 1
945 395 m 1
 945 294 l 1
 135 294 l 1
 135 395 l 1
 945 395 l 1
EndSplineSet
Validated: 3073
AlternateSubs2: "'aalt' Alle Alternativen zeigen 1" equal.superior
Substitution2: "'sinf' Wissenschaftliche Indices 1" equal.inferior
Substitution2: "'sups' Hochgestellte 1" equal.superior
EndChar

StartChar: greater
Encoding: 62 62 21
Width: 999
VWidth: 2047
Flags: HW
DStem2: 749 484 899 532 0.939622 -0.342215<-690.919 0> 899 435 749 484 0.939999 0.341176<-815.201 -124.282>
LayerCount: 2
Fore
SplineSet
749 484 m 1
 100 721 l 1
 100 823 l 1
 899 532 l 1
 899 435 l 1
 100 145 l 1
 100 247 l 1
 749 484 l 1
EndSplineSet
Validated: 3073
EndChar

StartChar: question
Encoding: 63 63 22
Width: 831
VWidth: 999
Flags: HMW
HStem: -25 218<281.713 456.287> 1289 60<265.985 492.087>
VStem: 60 138<1037.65 1210.11> 260 218<-3.28705 171.287> 603 152<890.146 1187.43>
LayerCount: 2
Fore
SplineSet
198 1171 m 0
 198 1141 203 1129 211 1118 c 0
 219 1107 224 1096 224 1069 c 0
 224 1022 183 997 143 997 c 0
 111 997 60 1013 60 1085 c 0
 60 1164 102.245 1219.7 163 1270 c 0
 224.247 1320.7 309 1349 417 1349 c 0
 626 1349 755 1226 755 1041 c 0
 755 879 635 789 539 719 c 0
 491 684 450 651 432 617 c 0
 405 566 395 516 395 467 c 2
 395 377 l 2
 395 363 384 356 368 356 c 0
 353 356 343 363 343 377 c 2
 343 471 l 2
 343 559 346.321 679.648 479 801 c 0
 561 876 603 936 603 1033 c 0
 603 1165 515 1289 397 1289 c 0
 280 1289 198 1232 198 1171 c 0
260 84 m 0
 260 144 309 193 369 193 c 0
 429 193 478 144 478 84 c 0
 478 24 429 -25 369 -25 c 0
 309 -25 260 24 260 84 c 0
EndSplineSet
Validated: 3073
EndChar

StartChar: at
Encoding: 64 64 23
Width: 1833
VWidth: 2047
Flags: HMW
HStem: -324 67<750.725 1165.27> 56 88<754.364 923.903> 56 72<1099.5 1368.66> 776 64<919.613 1121.71> 1190 62<750.603 1118.82>
VStem: 120 165<209.447 706.655> 559 150<186.378 520.312> 1556 162<363.579 796.059>
DStem2: 1194 752 1343 817 0.224725 0.974422<0 49.9939>
LayerCount: 2
Fore
SplineSet
1166 648 m 0
 1166 724 1105 776 1032 776 c 0
 997 776 910 757 847 694 c 0
 743 590 709 458 709 332 c 0
 709 234 740 144 869 144 c 0
 940 144 1041 260 1104 409 c 0
 1131 474 1166 578 1166 648 c 0
1194 152 m 0
 1194 132 1212 128 1216 128 c 0
 1426 128 1556 224 1556 564 c 0
 1556 986 1196 1190 940 1190 c 0
 629 1190 285 978 285 493 c 0
 285 186 441 -257 968 -257 c 0
 1142 -257 1269 -208 1380 -121 c 1
 1407 -158 l 1
 1284 -251 1161 -324 929 -324 c 0
 441 -324 120 20 120 457 c 0
 120 898 499 1252 961 1252 c 0
 1400 1252 1718 961 1718 577 c 0
 1718 344 1574 56 1129 56 c 0
 1070 56 1055 107 1055 140 c 0
 1055 170 1069 217 1086 268 c 1
 1081 270 l 1
 992 118 880 60 809 60 c 0
 605 60 559 232 559 313 c 0
 559 607 819 840 1036 840 c 0
 1104 840 1173 805 1194 752 c 1
 1204 801 l 1
 1312 827 l 1
 1343 817 l 1
 1221 288 l 2
 1209 234 1194 169 1194 152 c 0
EndSplineSet
Validated: 3073
EndChar

StartChar: A
Encoding: 65 65 24
Width: 1280
Flags: HW
HStem: -4 59<9 138.05 285.913 445 898 1053.62 1322.56 1406> 500 80<478.811 896> 1327 20G<718.5 747>
DStem2: 195 166 287 147 0.392235 0.919865<-19.4003 420.865 509.52 1078.8> 799 1287 694 1126 0.353155 -0.935565<113.545 695.7 780.787 1191.15>
AnchorPoint: "unten_punkt" 630 -222 basechar 0
AnchorPoint: "top_akzent" 737 1635 basechar 0
LayerCount: 2
Fore
SplineSet
863 344 m 1
 405 344 l 2
 381 344 363.667 341.167 353 335.5 c 128
 342.333 329.833 334.667 320.667 330 308 c 2
 270 148 l 2
 260 122.667 255 104.667 255 94 c 0
 255 79.3333 264 69.8333 282 65.5 c 128
 300 61.1667 328.667 59 368 59 c 2
 404 59 l 2
 415.333 59 421 53.3333 421 42 c 2
 421 4 l 1
 417 0 l 1
 317.667 2.66667 241.333 4 188 4 c 2
 39 -1 l 1
 5 4 l 1
 5 42 l 2
 5 53.3333 10.3333 59 21 59 c 0
 64.3333 59 96.8333 65.1667 118.5 77.5 c 128
 140.167 89.8333 157.667 113.333 171 148 c 2
 602 1302 l 2
 614 1333.33 630.667 1349 652 1349 c 0
 672.667 1349 688.667 1333 700 1301 c 2
 1103 152 l 2
 1116.33 114 1134.83 89 1158.5 77 c 128
 1182.17 65 1213.33 59 1252 59 c 0
 1263.33 59 1269 53.3333 1269 42 c 2
 1269 4 l 1
 1265 0 l 1
 1159 2.66667 1079.33 4 1026 4 c 2
 771 0 l 1
 767 4 l 1
 767 42 l 2
 767 53.3333 772.333 59 783 59 c 2
 838 59 l 2
 904.667 59 938 76.3333 938 111 c 0
 938 119 935 132.667 929 152 c 2
 863 344 l 1
835 424 m 1
 674 882 l 1
 609 1060 l 1
 547 887 l 1
 387 460 l 2
 384.333 453.333 383 447.667 383 443 c 0
 383 430.333 400.667 424 436 424 c 2
 835 424 l 1
EndSplineSet
Validated: 3073
Position2: "'cpsp' Versalabstaende 1" dx=5 dy=0 dh=10 dv=0
Substitution2: "'c2sc' Versale nach Kapitaelchen 1" a.sc
EndChar

StartChar: B
Encoding: 66 66 25
Width: 1203
VWidth: 2047
Flags: HW
HStem: -4 70<-1101 -951.672 -725.675 -378.176> 693 70<-757 -421.977> 1254 70<-1101 -946.24 -730.169 -409.566>
VStem: -922 165<76 693 763 1245.07> -290 158<867.241 1156.08> -193 183<218.143 539.783>
AnchorPoint: "top_akzent" 575 1635 basechar 0
LayerCount: 2
Fore
SplineSet
216.52 152.29 m 9
 217 1171 l 2
 217 1235 189 1263 111 1263 c 2
 50 1263 l 2
 36 1263 34 1272 34 1277 c 2
 34 1318 l 1
 38 1322 l 1
 38 1322 320 1322 392 1322 c 0
 773 1322 842 1145 842 1007 c 0
 842 856.341 711.026 765.715 711 765.686 c 1
 779.979 763.001 1118.52 683.616 1118.52 357.594 c 0
 1118.52 357.29 l 1
 1118.52 183.685 992.552 -0.746094 601.009 -0.746094 c 0
 597.863 -0.746094 594.7 -0.733398 591.52 -0.709961 c 0
 485.113 0.0898523 423.003 3.37715 325.311 3.37715 c 0
 316.366 3.37715 307.122 3.34959 297.52 3.29004 c 0
 199.547 3.01013 143.038 -0.724992 47.9982 -0.724992 c 0
 44.5571 -0.724992 41.0655 -0.720096 37.5195 -0.709961 c 8
 36 -1 35 1 34.5195 3.04004 c 16
 34.1865 8.12305 34.0752 14.1787 34.0752 19.9941 c 0
 34.0752 31.623 34.5195 42.29 34.5195 42.29 c 0
 34.5195 52.29 37.5195 58.29 49.5195 58.29 c 0
 110.52 58.29 l 0
 191.52 58.29 216.52 80.29 216.52 152.29 c 9
563.52 692.29 m 2
 370.52 692.29 l 1
 370.52 149.29 l 2
 370.52 81.29 385.52 68.29 552.52 68.29 c 0
 863.52 68.29 931.52 188.29 934.52 380.29 c 16
 934.553 382.377 934.57 384.456 934.57 386.528 c 0
 934.57 568.555 806.881 692.431 577.064 692.431 c 0
 572.588 692.431 568.073 692.384 563.52 692.29 c 2
371 1249 m 25
 371 760 l 25
 374 760 379 761 379 761 c 0
 549 761 684 830 684 1003 c 0
 684 1213 521 1250 406 1250 c 0
 394 1250 385 1249 371 1249 c 25
EndSplineSet
Validated: 3073
Position2: "'cpsp' Versalabstaende 1" dx=5 dy=0 dh=10 dv=0
Substitution2: "'c2sc' Versale nach Kapitaelchen 1" b.sc
EndChar

StartChar: C
Encoding: 67 67 26
Width: 1319
VWidth: 2047
Flags: HMW
HStem: -25 85<553.754 942.673> 1272 75<569.918 906.666>
VStem: 75 178<418.126 892.619>
AnchorPoint: "unten_punkt" 743 -226 basechar 0
AnchorPoint: "top_akzent" 737 1635 basechar 0
LayerCount: 2
Fore
SplineSet
1008 1175.85 m 1
 937.28 1233.73 840.163 1271 706 1271 c 0
 544 1271 253 1099 253 682.999 c 0
 253 383.999 408 58.999 726 58.999 c 0
 916 58.999 1054 126.999 1200 284.999 c 1
 1247 254.999 l 1
 1108 72.999 925 -26.001 728 -26.001 c 0
 286 -26.001 75 314.999 75 643.999 c 0
 75 1047 390 1346 729 1346 c 0
 980 1346 1177 1253 1177 1253 c 1
 1177 1253 1092.92 1098.51 1033.61 969.336 c 1
 977.089 996.706 l 1
 996.103 1054.4 1008 1114.21 1008 1175.85 c 1
EndSplineSet
Validated: 3073
Position2: "'cpsp' Versalabstaende 1" dx=5 dy=0 dh=10 dv=0
Substitution2: "'c2sc' Versale nach Kapitaelchen 1" c.sc
EndChar

StartChar: D
Encoding: 68 68 27
Width: 1206
VWidth: 2047
Flags: HW
HStem: -4 70<38 186.665 423.05 851.208> 1254 70<38 192.93 423.015 758.537>
VStem: 217 165<79.7508 151 151 1239.77> 1152 188<367.238 857.536>
AnchorPoint: "unten_punkt" 572 -219 basechar 0
AnchorPoint: "top_akzent" 626 1635 basechar 0
LayerCount: 2
Fore
SplineSet
297 1319 m 0
 370 1319 534 1323 534 1323 c 2
 537.633 1323.06 541.25 1323.09 544.851 1323.09 c 0
 917.882 1323.09 1118 1016.48 1118 652 c 0
 1118 282 896 1 510 -1 c 2
 297 -2 l 1
 39 -6 l 1
 36 -2 l 1
 36 35 l 2
 36 45 41 53 51 53 c 2
 112 53 l 2
 189 53 218 81 218 147 c 2
 218 679 l 1
 218 1175 l 2
 218 1238 187 1264 106 1264 c 2
 52 1264 l 2
 43 1264 35 1270 35 1281 c 2
 35 1319 l 1
 39 1323 l 1
 39 1323 217 1319 297 1319 c 0
514 66 m 2
 725 66 930 246 930 670 c 0
 930 1107 758 1252 560 1252 c 2
 489 1252 l 2
 411 1252 383 1239 383 1175 c 2
 383 147 l 2
 383 90 407 66 489 66 c 2
 514 66 l 2
EndSplineSet
Validated: 3073
Position2: "'cpsp' Versalabstaende 1" dx=5 dy=0 dh=10 dv=0
Substitution2: "'c2sc' Versale nach Kapitaelchen 1" d.sc
EndChar

StartChar: E
Encoding: 69 69 28
Width: 1167
VWidth: 2047
Flags: HMW
HStem: -4 59<28 199.047> 0 80<375.074 920.566> 669 70<373 740.095> 1240 80<375.211 857.022> 1265 59<29 200.021>
VStem: 208 165<82.875 669 739 1236.87> 768 69<508 579 830 904.994>
AnchorPoint: "unten_punkt" 572 -219 basechar 0
AnchorPoint: "top_akzent" 580 1648 basechar 0
LayerCount: 2
Fore
SplineSet
588 1240 m 2
 447 1240 l 2
 398 1240 373 1222 373 1173 c 2
 373 764 l 1
 577 764 l 2
 649 764 666.92 798.018 680 855 c 2
 694 916 l 2
 695 925 701 933 709 933 c 2
 754 933 l 2
 759 933 761 929 761 924 c 0
 754 873 745 798 745 729 c 0
 745 659 756 568 761 533 c 1
 756 526 l 1
 709 526 l 2
 698 526 693 534 692 541 c 2
 680 604 l 2
 668.77 662.957 646 694 577 694 c 2
 373 694 l 1
 373 145 l 2
 373 91 402 78 447 78 c 2
 786 78 l 2
 942 78 1002 198 1043 346 c 1
 1105 336 l 1
 1082 230 1060 112 1051 -2 c 1
 449 -2 l 1
 290 0 l 1
 28 -4 l 1
 25 0 l 1
 25 41 l 2
 25 48 28 55 41 55 c 2
 102 55 l 2
 184 55 208 88 208 145 c 2
 208 1171 l 2
 208 1235 180 1263 102 1263 c 2
 41 1263 l 2
 27 1263 25 1272 25 1277 c 2
 25 1318 l 1
 29 1322 l 1
 291 1318 l 1
 450 1320 l 1
 840 1322 l 1
 849 1213 867 1088 883 1004 c 1
 823 994 l 1
 778 1135 742 1240 588 1240 c 2
EndSplineSet
Validated: 3073
Position2: "'cpsp' Versalabstaende 1" dx=5 dy=0 dh=10 dv=0
Substitution2: "'c2sc' Versale nach Kapitaelchen 1" e.sc
EndChar

StartChar: F
Encoding: 70 70 29
Width: 1004
VWidth: 2047
Flags: HMW
HStem: -4 59<30 194.943 381.694 552> 669 70<373 738.095> 1240 80<374.827 837.022> 1265 59<32 201.88>
VStem: 208 165<66.8792 669 739 1236.11> 766 69<508 579 830 904.994>
AnchorPoint: "unten_punkt" 412 -228 basechar 0
AnchorPoint: "top_akzent" 586 1635 basechar 0
LayerCount: 2
Fore
SplineSet
343 696 m 1
 343 147 l 2
 343 73 354 59 418 59 c 2
 478 59 l 2
 485 59 495 57 495 44 c 2
 495 4 l 1
 493 0 l 1
 493 0 342 4 246 4 c 0
 161 4 28 0 28 0 c 1
 25 4 l 1
 25 44 l 2
 25 54 31 59 41 59 c 2
 102 59 l 2
 177 59 178 87 178 148 c 2
 178 1178 l 2
 178 1251 167 1267 102 1267 c 2
 41 1267 l 2
 31 1267 25 1273 25 1281 c 2
 25 1321 l 1
 29 1326 l 1
 79.9071 1325.51 130.815 1322.07 181.722 1322.07 c 0
 201.482 1322.07 221.241 1322.59 241 1324 c 1
 992 1324 l 1
 1019 932 l 1
 960 932 l 1
 943 1021 870 1237 783 1237 c 2
 343 1237 l 1
 343 766 l 1
 547 766 l 2
 619 766 636.92 800.018 650 857 c 2
 664 918 l 2
 665 927 671 935 679 935 c 2
 724 935 l 2
 729 935 731 931 731 926 c 0
 724 875 715 800 715 731 c 0
 715 661 726 570 731 535 c 1
 726 528 l 1
 679 528 l 2
 668 528 663 536 662 543 c 2
 650 606 l 2
 638.77 664.957 616 696 547 696 c 2
 343 696 l 1
EndSplineSet
Validated: 3073
Position2: "'cpsp' Versalabstaende 1" dx=5 dy=0 dh=10 dv=0
Substitution2: "'c2sc' Versale nach Kapitaelchen 1" f.sc
EndChar

StartChar: G
Encoding: 71 71 30
Width: 1377
VWidth: 2047
Flags: HMW
HStem: -25 75<597.937 1018.34> 555 74<927 1095.06 1277.81 1376> 1272 75<550.557 965.743>
VStem: 65 178<440.982 883.546> 1106 165<199.651 544.121>
AnchorPoint: "unten_punkt" 748 -228 basechar 0
AnchorPoint: "top_akzent" 743 1635 basechar 0
LayerCount: 2
Fore
SplineSet
1261 515 m 2
 1262 84.2227 l 2
 1262 80.4179 l 0
 1262 -441.487 1056.68 -541.777 925 -541.777 c 0
 856 -541.777 711 -514.777 711 -405.777 c 0
 711 -355.777 745 -343.777 776 -343.777 c 0
 793 -343.777 839 -349.777 853 -419.777 c 0
 859.189 -450.739 867 -478.777 924 -478.777 c 0
 1032 -478.777 1104 -393.777 1104 42.2227 c 1
 1007.15 -0.360352 894.9 -25 758 -25 c 0
 346 -25 65 274 65 629 c 0
 65 1080 416 1347 767 1347 c 0
 1018 1347 1092 1256 1214 1255 c 1
 1228 1108 1242 1026 1259 940 c 1
 1198 928 l 1
 1144 1103 1037 1272 739 1272 c 0
 463 1272 243 1028 243 669 c 0
 243 399 441 50 804 50 c 0
 916 50 1036 85 1106 151 c 1
 1106 465 l 2
 1106 533 1091 568 1016 568 c 0
 1007 568 994.5 567.25 982 566 c 1
 976 569 l 1
 976 622 l 1
 982 627 l 1
 982 627 1120 623 1186 623 c 0
 1215 623 1261 627 1261 627 c 1
 1261 515 l 2
EndSplineSet
Validated: 3073
Position2: "'cpsp' Versalabstaende 1" dx=5 dy=0 dh=10 dv=0
Substitution2: "'c2sc' Versale nach Kapitaelchen 1" g.sc
EndChar

StartChar: grave
Encoding: 96 96 31
Width: 803
VWidth: 2047
Flags: HW
LayerCount: 2
Fore
SplineSet
365 1430 m 1
 508 1173 l 2
 519 1153 521 1139 521 1124 c 0
 521 1114 507 1102 491 1102 c 0
 478 1102 464 1112 432 1142 c 2
 197 1365 l 1
 202 1387 l 1
 218 1400 265 1435 335 1435 c 0
 345 1435 358 1433 365 1430 c 1
EndSplineSet
Validated: 3073
Substitution2: "'case' Versalformen 1" grave.cap
EndChar

StartChar: ograve
Encoding: 242 242 32
Width: 1038
VWidth: 2047
Flags: HW
HStem: -25 73<393.077 651.011> 837 68<353.786 601.514>
VStem: 70 162<254.531 655.886> 751 162<232.28 651.445>
LayerCount: 2
Fore
SplineSet
490 1373 m 1
 633 1116 l 2
 644 1096 646 1082 646 1067 c 0
 646 1057 632 1045 616 1045 c 0
 603 1045 589 1055 557 1085 c 2
 322 1308 l 1
 327 1330 l 1
 343 1343 390 1378 460 1378 c 0
 470 1378 483 1376 490 1373 c 1
519 828 m 0
 337 828 223 662 223 454 c 0
 223 237 348 62 519 62 c 0
 712 62 815 225 815 454 c 0
 815 662 715 828 519 828 c 0
519 910 m 0
 822 910 968 697 968 454 c 0
 968 189 798 -20 519 -20 c 0
 249 -20 70 181 70 454 c 0
 70 697 255 910 519 910 c 0
EndSplineSet
Validated: 3073
Substitution2: "'smcp' Gemeine nach Kapitaelchen 1" ograve.sc
AlternateSubs2: "'aalt' Alle Alternativen zeigen 1" ograve.sc
EndChar

StartChar: oacute
Encoding: 243 243 33
Width: 1038
VWidth: 2047
Flags: HW
HStem: -25 73<393.077 651.011> 837 68<353.786 601.514> 1344 34
VStem: 70 162<254.531 655.886> 751 162<232.28 651.445>
LayerCount: 2
Fore
SplineSet
583 1373 m 1
 590 1376 603 1378 613 1378 c 0
 670 1378 696 1356 713 1340 c 0
 718 1336 722 1333 726 1330 c 1
 731 1308 l 1
 496 1085 l 2
 464 1055 450 1045 437 1045 c 0
 421 1045 407 1056 407 1070 c 0
 407 1081 407 1096 420 1116 c 2
 583 1373 l 1
519 828 m 0
 337 828 223 662 223 454 c 0
 223 237 348 62 519 62 c 0
 712 62 815 225 815 454 c 0
 815 662 715 828 519 828 c 0
519 910 m 0
 822 910 968 697 968 454 c 0
 968 189 798 -20 519 -20 c 0
 249 -20 70 181 70 454 c 0
 70 697 255 910 519 910 c 0
EndSplineSet
Validated: 3073
Substitution2: "'smcp' Gemeine nach Kapitaelchen 1" oacute.sc
AlternateSubs2: "'aalt' Alle Alternativen zeigen 1" oacute.sc
EndChar

StartChar: ocircumflex
Encoding: 244 244 34
Width: 1038
VWidth: 2047
Flags: HW
HStem: -25 73<393.077 651.011> 837 68<353.786 601.514>
VStem: 70 162<254.531 655.886> 236 519<1058 1058> 751 162<232.28 651.445>
LayerCount: 2
Fore
SplineSet
573 1322 m 1
 632 1226 707 1140 780 1058 c 1
 738 1029 l 1
 658 1088 589 1139 520 1213 c 1
 444 1135 378 1084 302 1029 c 1
 261 1058 l 1
 333 1139 411 1228 471 1322 c 1
 573 1322 l 1
519 828 m 0
 337 828 223 662 223 454 c 0
 223 237 348 62 519 62 c 0
 712 62 815 225 815 454 c 0
 815 662 715 828 519 828 c 0
519 910 m 0
 822 910 968 697 968 454 c 0
 968 189 798 -20 519 -20 c 0
 249 -20 70 181 70 454 c 0
 70 697 255 910 519 910 c 0
EndSplineSet
Validated: 3073
Substitution2: "'smcp' Gemeine nach Kapitaelchen 1" ocircumflex.sc
AlternateSubs2: "'aalt' Alle Alternativen zeigen 1" ocircumflex.sc
EndChar

StartChar: otilde
Encoding: 245 245 35
Width: 1038
VWidth: 2047
Flags: HW
HStem: -25 73<393.077 651.011> 837 68<353.786 601.514> 1076 90<517.672 697.067> 1175 94<276.934 464.061> 1254 20
VStem: 70 162<254.531 655.886> 751 162<232.28 651.445>
LayerCount: 2
Fore
SplineSet
651 1166 m 0
 695 1166 724 1188 753 1274 c 1
 802 1261 l 1
 777 1138 719 1076 624 1076 c 0
 579 1076 536.215 1102.34 494 1129 c 0
 456 1153 418 1175 382 1175 c 0
 329 1175 302 1145 282 1077 c 1
 234 1087 l 1
 262 1208 308 1269 396 1269 c 0
 459 1269 504 1240 544 1212 c 0
 578.094 1188.13 612 1166 651 1166 c 0
519 828 m 0
 337 828 223 662 223 454 c 0
 223 237 348 62 519 62 c 0
 712 62 815 225 815 454 c 0
 815 662 715 828 519 828 c 0
519 910 m 0
 822 910 968 697 968 454 c 0
 968 189 798 -20 519 -20 c 0
 249 -20 70 181 70 454 c 0
 70 697 255 910 519 910 c 0
EndSplineSet
Validated: 3073
Substitution2: "'smcp' Gemeine nach Kapitaelchen 1" otilde.sc
AlternateSubs2: "'aalt' Alle Alternativen zeigen 1" otilde.sc
EndChar

StartChar: odieresis
Encoding: 246 246 36
Width: 1038
VWidth: 2047
Flags: HW
HStem: -25 73<405.868 638.806> 837 68<364.646 586.072> 1079 186<251.548 410.452 580.548 739.452>
VStem: 70 162<254.531 655.886> 238 186<1092.55 1251.45> 567 186<1092.55 1251.45> 751 162<232.28 651.445>
LayerCount: 2
Fore
SplineSet
595 1172 m 0
 595 1223 637 1265 688 1265 c 0
 739 1265 781 1223 781 1172 c 0
 781 1121 739 1079 688 1079 c 0
 637 1079 595 1121 595 1172 c 0
266 1172 m 0
 266 1223 308 1265 359 1265 c 0
 410 1265 452 1223 452 1172 c 0
 452 1121 410 1079 359 1079 c 0
 308 1079 266 1121 266 1172 c 0
519 828 m 0
 337 828 223 662 223 454 c 0
 223 237 348 62 519 62 c 0
 712 62 815 225 815 454 c 0
 815 662 715 828 519 828 c 0
519 910 m 0
 822 910 968 697 968 454 c 0
 968 189 798 -20 519 -20 c 0
 249 -20 70 181 70 454 c 0
 70 697 255 910 519 910 c 0
EndSplineSet
Validated: 3073
Substitution2: "'smcp' Gemeine nach Kapitaelchen 1" odieresis.sc
AlternateSubs2: "'aalt' Alle Alternativen zeigen 1" odieresis.sc
EndChar

StartChar: divide
Encoding: 247 247 37
Width: 1080
VWidth: 2047
Flags: HW
HStem: 105.047 182.715<470.423 616.74> 425 101<135 945> 655.047 182.715<470.423 616.74>
VStem: 135 810 452.224 182.715<123.245 269.563> 452.224 182.715<673.245 819.562>
LayerCount: 2
Fore
SplineSet
452.225 746.403 m 0
 452.225 796.692 493.293 837.761 543.581 837.761 c 0
 593.87 837.761 634.938 796.692 634.938 746.403 c 0
 634.938 696.115 593.87 655.047 543.581 655.047 c 0
 493.293 655.047 452.225 696.115 452.225 746.403 c 0
452.225 196.403 m 0
 452.225 246.692 493.293 287.761 543.581 287.761 c 0
 593.87 287.761 634.938 246.692 634.938 196.403 c 0
 634.938 146.115 593.87 105.047 543.581 105.047 c 0
 493.293 105.047 452.225 146.115 452.225 196.403 c 0
945 526 m 1
 945 425 l 1
 135 425 l 1
 135 526 l 1
 945 526 l 1
EndSplineSet
Validated: 3073
EndChar

StartChar: ugrave
Encoding: 249 249 38
Width: 1081
VWidth: 2047
Flags: HW
HStem: -25 92<384.663 596.562> 823 59<56 170.694 598 715.266>
VStem: 180 153<120.194 816.469> 725 153<208 817.944>
LayerCount: 2
Fore
SplineSet
448 1373 m 1
 591 1116 l 2
 602 1096 604 1082 604 1067 c 0
 604 1057 590 1045 574 1045 c 0
 561 1045 547 1055 515 1085 c 2
 280 1308 l 1
 285 1330 l 1
 301 1343 348 1378 418 1378 c 0
 428 1378 441 1376 448 1373 c 1
337 737 m 2
 337 289 l 2
 337 144 362 78 469 78 c 0
 559 78 637 112 742 234 c 1
 742 737 l 2
 742 795 721 827 654 827 c 2
 625 827 l 2
 616 827 608 833 608 844 c 2
 608 882 l 1
 612 886 l 1
 612 886 742 882 822 882 c 0
 895 882 1034 886 1034 886 c 1
 1038 882 l 1
 1038 844 l 2
 1038 833 1032 827 1022 827 c 2
 983 827 l 2
 914 827 895 795 895 737 c 2
 895 227 l 2
 895 116 913 101 941 101 c 0
 968 101 992 104 1026 111 c 1
 1037 55 l 1
 950 40 889 29 826 -4 c 0
 804 -15 788 -21 773 -21 c 2
 742 -21 l 1
 748 161 l 1
 742 161 l 1
 611 8 513 -21 408 -21 c 0
 224 -21 184 120 184 303 c 2
 184 737 l 2
 184 795 163 827 96 827 c 2
 57 827 l 2
 48 827 40 833 40 844 c 2
 40 882 l 1
 44 886 l 1
 44 886 184 882 264 882 c 0
 337 882 466 886 466 886 c 1
 470 882 l 1
 470 844 l 2
 470 833 464 827 454 827 c 2
 425 827 l 2
 356 827 337 795 337 737 c 2
EndSplineSet
Validated: 3073
Substitution2: "'smcp' Gemeine nach Kapitaelchen 1" ugrave.sc
AlternateSubs2: "'aalt' Alle Alternativen zeigen 1" ugrave.sc
EndChar

StartChar: uacute
Encoding: 250 250 39
Width: 1081
VWidth: 2047
Flags: HW
HStem: -25 92<384.663 596.562> 823 59<56 170.694 598 715.266> 1344 34
VStem: 180 153<120.194 816.469> 725 153<208 817.944>
LayerCount: 2
Fore
SplineSet
608 1373 m 1
 615 1376 628 1378 638 1378 c 0
 695 1378 721 1356 738 1340 c 0
 743 1336 747 1333 751 1330 c 1
 756 1308 l 1
 521 1085 l 2
 489 1055 475 1045 462 1045 c 0
 446 1045 432 1056 432 1070 c 0
 432 1081 432 1096 445 1116 c 2
 608 1373 l 1
337 737 m 2
 337 289 l 2
 337 144 362 78 469 78 c 0
 559 78 637 112 742 234 c 1
 742 737 l 2
 742 795 721 827 654 827 c 2
 625 827 l 2
 616 827 608 833 608 844 c 2
 608 882 l 1
 612 886 l 1
 612 886 742 882 822 882 c 0
 895 882 1034 886 1034 886 c 1
 1038 882 l 1
 1038 844 l 2
 1038 833 1032 827 1022 827 c 2
 983 827 l 2
 914 827 895 795 895 737 c 2
 895 227 l 2
 895 116 913 101 941 101 c 0
 968 101 992 104 1026 111 c 1
 1037 55 l 1
 950 40 889 29 826 -4 c 0
 804 -15 788 -21 773 -21 c 2
 742 -21 l 1
 748 161 l 1
 742 161 l 1
 611 8 513 -21 408 -21 c 0
 224 -21 184 120 184 303 c 2
 184 737 l 2
 184 795 163 827 96 827 c 2
 57 827 l 2
 48 827 40 833 40 844 c 2
 40 882 l 1
 44 886 l 1
 44 886 184 882 264 882 c 0
 337 882 466 886 466 886 c 1
 470 882 l 1
 470 844 l 2
 470 833 464 827 454 827 c 2
 425 827 l 2
 356 827 337 795 337 737 c 2
EndSplineSet
Validated: 3073
Substitution2: "'smcp' Gemeine nach Kapitaelchen 1" uacute.sc
AlternateSubs2: "'aalt' Alle Alternativen zeigen 1" uacute.sc
EndChar

StartChar: ucircumflex
Encoding: 251 251 40
Width: 1081
VWidth: 2047
Flags: HW
HStem: -25 92<384.663 596.562> 823 59<56 170.694 598 715.266>
VStem: 180 153<120.194 816.469> 246 519<1058 1058> 725 153<208 817.944>
LayerCount: 2
Fore
SplineSet
595 1322 m 1
 654 1226 729 1140 802 1058 c 1
 760 1029 l 1
 680 1088 611 1139 542 1213 c 1
 466 1135 400 1084 324 1029 c 1
 283 1058 l 1
 355 1139 433 1228 493 1322 c 1
 595 1322 l 1
337 737 m 2
 337 289 l 2
 337 144 362 78 469 78 c 0
 559 78 637 112 742 234 c 1
 742 737 l 2
 742 795 721 827 654 827 c 2
 625 827 l 2
 616 827 608 833 608 844 c 2
 608 882 l 1
 612 886 l 1
 612 886 742 882 822 882 c 0
 895 882 1034 886 1034 886 c 1
 1038 882 l 1
 1038 844 l 2
 1038 833 1032 827 1022 827 c 2
 983 827 l 2
 914 827 895 795 895 737 c 2
 895 227 l 2
 895 116 913 101 941 101 c 0
 968 101 992 104 1026 111 c 1
 1037 55 l 1
 950 40 889 29 826 -4 c 0
 804 -15 788 -21 773 -21 c 2
 742 -21 l 1
 748 161 l 1
 742 161 l 1
 611 8 513 -21 408 -21 c 0
 224 -21 184 120 184 303 c 2
 184 737 l 2
 184 795 163 827 96 827 c 2
 57 827 l 2
 48 827 40 833 40 844 c 2
 40 882 l 1
 44 886 l 1
 44 886 184 882 264 882 c 0
 337 882 466 886 466 886 c 1
 470 882 l 1
 470 844 l 2
 470 833 464 827 454 827 c 2
 425 827 l 2
 356 827 337 795 337 737 c 2
EndSplineSet
Validated: 3073
Substitution2: "'smcp' Gemeine nach Kapitaelchen 1" ucircumflex.sc
AlternateSubs2: "'aalt' Alle Alternativen zeigen 1" ucircumflex.sc
EndChar

StartChar: ebreve
Encoding: 277 277 41
Width: 957
VWidth: 2047
Flags: HW
HStem: -25 101<384.041 652.941> 487 80<234 632.024> 835 70<379.618 573.516> 1025 117<326.002 606.525>
VStem: 70 155<258.044 562.935 567 639.386> 190 55<1224.04 1302> 640 163<536.851 741.299> 689 54<1222.92 1302>
LayerCount: 2
Fore
SplineSet
245 1330 m 1
 249 1225 344 1142 468 1142 c 0
 562 1142 684 1203 689 1330 c 1
 743 1302 l 1
 723 1096 570 1025 468 1025 c 0
 309 1025 205 1143 190 1302 c 1
 245 1330 l 1
234 567 m 1
 610 567 l 2
 630 567 640 577 640 595 c 0
 640 786 542 835 468 835 c 0
 421 835 268 817 234 567 c 1
766 487 m 1
 227 487 l 1
 226 476 225 463 225 446 c 0
 225 238 370 76 519 76 c 0
 631 76 703 113 774 191 c 1
 815 157 l 1
 738 51 616 -25 470 -25 c 0
 188 -25 70 185 70 408 c 0
 70 719 275 905 470 905 c 0
 715.51 905 790.26 730.073 802 568 c 1
 913 568 l 2
 923 568 929 564 929 556 c 2
 929 514 l 2
 929 495 901 487 881 487 c 2
 766 487 l 1
EndSplineSet
Validated: 3073
EndChar

StartChar: Edotaccent
Encoding: 278 278 42
Width: 1167
VWidth: 2047
Flags: HW
HStem: -4 59<28 199.047> 0 80<375.074 920.566> 669 70<373 740.095> 1240 80<375.211 857.022> 1265 59<29 200.021> 1417 196<492.77 655.23>
VStem: 208 165<82.875 669 739 1236.87> 476 196<1433.77 1596.23> 768 69<508 579 830 904.994>
LayerCount: 2
Fore
SplineSet
476 1515 m 0
 476 1569 520 1613 574 1613 c 0
 628 1613 672 1569 672 1515 c 0
 672 1461 628 1417 574 1417 c 0
 520 1417 476 1461 476 1515 c 0
588 1240 m 2
 447 1240 l 2
 398 1240 373 1222 373 1173 c 2
 373 764 l 1
 577 764 l 2
 649 764 666.92 798.018 680 855 c 2
 694 916 l 2
 695 925 701 933 709 933 c 2
 754 933 l 2
 759 933 761 929 761 924 c 0
 754 873 745 798 745 729 c 0
 745 659 756 568 761 533 c 1
 756 526 l 1
 709 526 l 2
 698 526 693 534 692 541 c 2
 680 604 l 2
 668.77 662.957 646 694 577 694 c 2
 373 694 l 1
 373 145 l 2
 373 91 402 78 447 78 c 2
 786 78 l 2
 942 78 1002 198 1043 346 c 1
 1105 336 l 1
 1082 230 1060 112 1051 -2 c 1
 449 -2 l 1
 290 0 l 1
 28 -4 l 1
 25 0 l 1
 25 41 l 2
 25 48 28 55 41 55 c 2
 102 55 l 2
 184 55 208 88 208 145 c 2
 208 1171 l 2
 208 1235 180 1263 102 1263 c 2
 41 1263 l 2
 27 1263 25 1272 25 1277 c 2
 25 1318 l 1
 29 1322 l 1
 291 1318 l 1
 450 1320 l 1
 840 1322 l 1
 849 1213 867 1088 883 1004 c 1
 823 994 l 1
 778 1135 742 1240 588 1240 c 2
EndSplineSet
Validated: 3073
Position2: "'cpsp' Versalabstaende 1" dx=5 dy=0 dh=10 dv=0
EndChar

StartChar: edotaccent
Encoding: 279 279 43
Width: 957
VWidth: 2047
Flags: HW
HStem: -25 101<384.041 652.941> 487 80<234 632.024> 835 70<379.618 573.516> 1071 196<389.77 552.23>
VStem: 70 155<258.044 562.935 567 639.386> 373 196<1087.77 1250.23> 640 163<536.851 741.299>
LayerCount: 2
Fore
SplineSet
373 1169 m 0
 373 1223 417 1267 471 1267 c 0
 525 1267 569 1223 569 1169 c 0
 569 1115 525 1071 471 1071 c 0
 417 1071 373 1115 373 1169 c 0
234 567 m 1
 610 567 l 2
 630 567 640 577 640 595 c 0
 640 786 542 835 468 835 c 0
 421 835 268 817 234 567 c 1
766 487 m 1
 227 487 l 1
 226 476 225 463 225 446 c 0
 225 238 370 76 519 76 c 0
 631 76 703 113 774 191 c 1
 815 157 l 1
 738 51 616 -25 470 -25 c 0
 188 -25 70 185 70 408 c 0
 70 719 275 905 470 905 c 0
 715.51 905 790.26 730.073 802 568 c 1
 913 568 l 2
 923 568 929 564 929 556 c 2
 929 514 l 2
 929 495 901 487 881 487 c 2
 766 487 l 1
EndSplineSet
Validated: 3073
EndChar

StartChar: Eogonek
Encoding: 280 280 44
Width: 1167
VWidth: 2047
Flags: HW
HStem: -459 81<783.979 968.648> -4 59<28 199.047> 0 52<893.478 993> 0 80<375.074 920.566> 669 70<373 740.095> 1240 80<375.211 857.022> 1265 59<29 200.021>
VStem: 208 165<82.875 669 739 1236.87> 637 123<-354.321 -152.569> 768 69<508 579 830 904.994>
LayerCount: 2
Fore
SplineSet
828 -459 m 0
 718 -459 637 -396 637 -284 c 0
 637 -186.923 718.512 -68.5361 841.482 -6.1073e-08 c 1
 290 0 l 1
 28 -4 l 1
 25 0 l 1
 25 41 l 2
 25 48 28 55 41 55 c 2
 102 55 l 2
 184 55 208 90 208 147 c 2
 208 1173 l 2
 208 1237 180 1265 102 1265 c 2
 41 1265 l 2
 27 1265 25 1274 25 1279 c 2
 25 1320 l 1
 29 1324 l 1
 291 1320 l 1
 975 1320 l 1
 984 1211 1002 1090 1018 1006 c 1
 958 996 l 1
 913 1137 877 1240 723 1240 c 2
 447 1240 l 2
 398 1240 373 1222 373 1173 c 2
 373 739 l 1
 653 739 l 2
 725 739 742.922 773.018 756 830 c 2
 770 891 l 2
 771 900 777 908 785 908 c 2
 830 908 l 2
 835 908 837 904 837 899 c 0
 830 848 821 773 821 704 c 0
 821 634 832 543 837 508 c 1
 832 501 l 1
 785 501 l 2
 774 501 769 509 768 516 c 2
 756 579 l 2
 744.77 637.957 722 669 653 669 c 2
 373 669 l 1
 373 147 l 2
 373 93 402 80 447 80 c 2
 786 80 l 2
 942 80 1002 200 1043 348 c 1
 1105 338 l 1
 1082 232 1060 114 1051 0 c 1
 1036 0 l 2
 872 0 760 -153 760 -259 c 0
 760 -324 805 -378 879 -378 c 0
 940 -378 982 -348 1022 -306 c 1
 1052 -322 l 1
 1004 -418 901 -459 828 -459 c 0
EndSplineSet
Validated: 3073
Position2: "'cpsp' Versalabstaende 1" dx=5 dy=0 dh=10 dv=0
Substitution2: "'c2sc' Versale nach Kapitaelchen 1" eogonek.sc
EndChar

StartChar: eogonek
Encoding: 281 281 45
Width: 877
VWidth: 2047
Flags: HW
HStem: -443 79<542.896 725.706> -25 101<384.041 652.941> 487 80<234 632.024> 835 70<379.618 573.516>
VStem: 70 155<258.044 562.935 567 639.386> 397 121<-338.162 -137.766> 640 163<536.851 741.299>
LayerCount: 2
Fore
SplineSet
234 567 m 1
 610 567 l 2
 630 567 640 577 640 595 c 0
 640 786 542 835 468 835 c 0
 421 835 268 817 234 567 c 1
774 191 m 1
 815 157 l 1
 786.927 118.355 752.874 83.6969 713.856 55.2558 c 0
 621.852 -27.9131 518 -125.001 518 -258 c 0
 518 -310 567 -364 641 -364 c 0
 702 -364 735 -336 780 -290 c 1
 811 -305 l 1
 752 -397 677 -443 593 -443 c 0
 483 -443 397 -383 397 -271 c 0
 397 -180.541 460.534 -92.4498 539.509 -19.121 c 1
 517.041 -22.9736 493.84 -25 470 -25 c 0
 188 -25 70 185 70 408 c 0
 70 719 275 905 470 905 c 0
 739 905 803 695 803 522 c 0
 803 499 788 487 766 487 c 2
 227 487 l 1
 227 182 404 76 519 76 c 0
 631 76 703 113 774 191 c 1
EndSplineSet
Validated: 3073
AlternateSubs2: "'aalt' Alle Alternativen zeigen 1" eogonek.sc
Substitution2: "'smcp' Gemeine nach Kapitaelchen 1" eogonek.sc
EndChar

StartChar: Ecaron
Encoding: 282 282 46
Width: 1167
VWidth: 2047
Flags: HW
HStem: -4 59<28 199.047> 0 80<375.074 920.566> 669 70<373 740.095> 1240 80<375.211 857.022> 1265 59<29 200.021>
VStem: 208 165<82.875 669 739 1236.87> 768 69<508 579 830 904.994>
LayerCount: 2
Fore
SplineSet
548 1429 m 1
 487 1504 416 1566 342 1622 c 1
 374 1664 l 1
 454 1629 524 1589 592 1538 c 1
 667 1593 733 1630 811 1664 c 1
 840 1622 l 1
 764 1564 698 1498 636 1429 c 1
 548 1429 l 1
723 1240 m 2
 447 1240 l 2
 398 1240 373 1222 373 1173 c 2
 373 739 l 1
 653 739 l 2
 725 739 742.922 773.018 756 830 c 2
 770 891 l 2
 771 900 777 908 785 908 c 2
 830 908 l 2
 835 908 837 904 837 899 c 0
 830 848 821 773 821 704 c 0
 821 634 832 543 837 508 c 1
 832 501 l 1
 785 501 l 2
 774 501 769 509 768 516 c 2
 756 579 l 2
 744.77 637.957 722 669 653 669 c 2
 373 669 l 1
 373 147 l 2
 373 93 402 80 447 80 c 2
 786 80 l 2
 942 80 1002 200 1043 348 c 1
 1105 338 l 1
 1082 232 1060 114 1051 0 c 1
 290 0 l 1
 28 -4 l 1
 25 0 l 1
 25 41 l 2
 25 48 28 55 41 55 c 2
 102 55 l 2
 184 55 208 90 208 147 c 2
 208 1173 l 2
 208 1237 180 1265 102 1265 c 2
 41 1265 l 2
 27 1265 25 1274 25 1279 c 2
 25 1320 l 1
 29 1324 l 1
 291 1320 l 1
 975 1320 l 1
 984 1211 1002 1090 1018 1006 c 1
 958 996 l 1
 913 1137 877 1240 723 1240 c 2
EndSplineSet
Validated: 3073
Position2: "'cpsp' Versalabstaende 1" dx=5 dy=0 dh=10 dv=0
Substitution2: "'c2sc' Versale nach Kapitaelchen 1" ecaron.sc
EndChar

StartChar: ecaron
Encoding: 283 283 47
Width: 957
VWidth: 2047
Flags: HW
HStem: -25 101<384.041 652.941> 487 80<234 632.024> 835 70<379.618 573.516>
VStem: 70 155<258.044 562.935 567 639.386> 640 163<536.851 741.299>
LayerCount: 2
Fore
SplineSet
408 1028 m 1
 349 1124 272 1217 201 1294 c 1
 243 1321 l 1
 323 1262 389 1210 459 1136 c 1
 535 1214 604 1266 680 1321 c 1
 719 1294 l 1
 648 1213 570 1122 510 1028 c 1
 408 1028 l 1
234 567 m 1
 610 567 l 2
 630 567 640 577 640 595 c 0
 640 786 542 835 468 835 c 0
 421 835 268 817 234 567 c 1
766 487 m 1
 227 487 l 1
 226 476 225 463 225 446 c 0
 225 238 370 76 519 76 c 0
 631 76 703 113 774 191 c 1
 815 157 l 1
 738 51 616 -25 470 -25 c 0
 188 -25 70 185 70 408 c 0
 70 719 275 905 470 905 c 0
 715.51 905 790.26 730.073 802 568 c 1
 913 568 l 2
 923 568 929 564 929 556 c 2
 929 514 l 2
 929 495 901 487 881 487 c 2
 766 487 l 1
EndSplineSet
Validated: 3073
AlternateSubs2: "'aalt' Alle Alternativen zeigen 1" ecaron.sc
Substitution2: "'smcp' Gemeine nach Kapitaelchen 1" ecaron.sc
EndChar

StartChar: Gcircumflex
Encoding: 284 284 48
Width: 1377
VWidth: 2047
Flags: HW
HStem: -25 75<597.937 1018.34> 555 74<927 1095.06 1277.81 1376> 1272 75<550.557 965.743>
VStem: 65 178<440.982 883.546> 1106 165<199.651 544.121>
LayerCount: 2
Fore
SplineSet
788 1649 m 1
 849 1574 920 1512 994 1456 c 1
 962 1414 l 1
 882 1449 812 1489 744 1540 c 1
 669 1485 603 1448 525 1414 c 1
 496 1456 l 1
 572 1514 637 1580 700 1649 c 1
 788 1649 l 1
1261 515 m 2
 1262 84.2227 l 2
 1262 80.418 l 0
 1262 -441.487 1056.68 -541.777 925 -541.777 c 0
 856 -541.777 711 -514.777 711 -405.777 c 0
 711 -355.777 745 -343.777 776 -343.777 c 0
 793 -343.777 839 -349.777 853 -419.777 c 0
 859.189 -450.739 867 -478.777 924 -478.777 c 0
 1032 -478.777 1104 -393.777 1104 42.2227 c 1
 1007.15 -0.360352 894.9 -25 758 -25 c 0
 346 -25 65 274 65 629 c 0
 65 1080 416 1347 767 1347 c 0
 1018 1347 1092 1256 1214 1255 c 1
 1228 1108 1242 1026 1259 940 c 1
 1198 928 l 1
 1144 1103 1037 1272 739 1272 c 0
 463 1272 243 1028 243 669 c 0
 243 399 441 50 804 50 c 0
 916 50 1036 85 1106 151 c 1
 1106 465 l 2
 1106 533 1091 568 1016 568 c 0
 1007 568 994.5 567.25 982 566 c 1
 976 569 l 1
 976 622 l 1
 982 627 l 1
 982 627 1120 623 1186 623 c 0
 1215 623 1261 627 1261 627 c 1
 1261 515 l 2
EndSplineSet
Validated: 3073
Position2: "'cpsp' Versalabstaende 1" dx=5 dy=0 dh=10 dv=0
EndChar

StartChar: gcircumflex
Encoding: 285 285 49
Width: 953
VWidth: 2047
Flags: HW
HStem: -481 76<283.608 661.676> -19 125<442.441 678.328> 279 61<350.311 586.281> 848 57<340.374 564.533>
VStem: 67 120<-318.353 -110.559> 122 145<431.677 750.128> 210 519<1057 1057> 648 149<427.864 754.977> 839 98<-281.865 -107.872>
LayerCount: 2
Fore
SplineSet
522 1321 m 1
 581 1225 656 1139 729 1057 c 1
 687 1028 l 1
 607 1087 538 1138 469 1212 c 1
 393 1134 327 1083 251 1028 c 1
 210 1057 l 1
 282 1138 360 1227 420 1321 c 1
 522 1321 l 1
448 64 m 0
 493 64 592 77 665 155 c 1
 665 762 l 1
 624 812 572 840 509 840 c 0
 315 840 213 650 213 427 c 0
 213 237 322 64 448 64 c 0
665 92 m 1
 595 16 506 -25 406 -25 c 0
 240 -25 55 152 55 400 c 0
 55 738 306 905 498 905 c 0
 585 905 658 881 718 829 c 1
 735 864 769 904 792 905 c 2
 818 905 l 1
 818 65 l 2
 818 -144 778 -331 669 -408 c 0
 598 -458 522 -475 444 -475 c 0
 331 -475 131 -396 131 -289 c 0
 131 -245 159 -216 201 -216 c 0
 257 -216 273 -248 290 -286 c 0
 307 -322 356 -410 454 -410 c 0
 623 -410 665 -230 665 38 c 2
 665 92 l 1
EndSplineSet
Validated: 3073
EndChar

StartChar: Gbreve
Encoding: 286 286 50
Width: 1377
VWidth: 2047
Flags: HW
HStem: -25 75<597.937 1018.34> 555 74<927 1095.06 1277.81 1376> 1272 75<550.557 965.743> 1419 107<599.186 919.759>
VStem: 65 178<440.982 883.546> 483 57<1569.6 1646.63> 982 55<1572.75 1651> 1106 165<199.651 544.121>
LayerCount: 2
Fore
SplineSet
1037 1651 m 1
 1025 1505 896 1419 762 1419 c 0
 611 1419 494 1508 483 1651 c 1
 540 1651 l 1
 557 1571 653 1526 762 1526 c 0
 862 1526 968 1571 982 1651 c 1
 1037 1651 l 1
1261 515 m 2
 1262 84.2227 l 2
 1262 80.418 l 0
 1262 -441.487 1056.68 -541.777 925 -541.777 c 0
 856 -541.777 711 -514.777 711 -405.777 c 0
 711 -355.777 745 -343.777 776 -343.777 c 0
 793 -343.777 839 -349.777 853 -419.777 c 0
 859.189 -450.739 867 -478.777 924 -478.777 c 0
 1032 -478.777 1104 -393.777 1104 42.2227 c 1
 1007.15 -0.360352 894.9 -25 758 -25 c 0
 346 -25 65 274 65 629 c 0
 65 1080 416 1347 767 1347 c 0
 1018 1347 1092 1256 1214 1255 c 1
 1228 1108 1242 1026 1259 940 c 1
 1198 928 l 1
 1144 1103 1037 1272 739 1272 c 0
 463 1272 243 1028 243 669 c 0
 243 399 441 50 804 50 c 0
 916 50 1036 85 1106 151 c 1
 1106 465 l 2
 1106 533 1091 568 1016 568 c 0
 1007 568 994.5 567.25 982 566 c 1
 976 569 l 1
 976 622 l 1
 982 627 l 1
 982 627 1120 623 1186 623 c 0
 1215 623 1261 627 1261 627 c 1
 1261 515 l 2
EndSplineSet
Validated: 3073
Position2: "'cpsp' Versalabstaende 1" dx=5 dy=0 dh=10 dv=0
Substitution2: "'c2sc' Versale nach Kapitaelchen 1" gbreve.sc
EndChar

StartChar: gbreve
Encoding: 287 287 51
Width: 953
VWidth: 2047
Flags: HW
HStem: -481 76<283.608 661.676> -19 125<442.441 678.328> 279 61<350.311 586.281> 848 57<340.374 564.533> 1017 117<311.002 591.525>
VStem: 67 120<-318.353 -110.559> 122 145<431.677 750.128> 175 55<1216.04 1294> 648 149<427.864 754.977> 674 54<1214.92 1294> 839 98<-281.865 -107.872>
LayerCount: 2
Fore
SplineSet
230 1322 m 1
 234 1217 329 1134 453 1134 c 0
 547 1134 669 1195 674 1322 c 1
 728 1294 l 1
 708 1088 555 1017 453 1017 c 0
 294 1017 190 1135 175 1294 c 1
 230 1322 l 1
448 64 m 0
 493 64 592 77 665 155 c 1
 665 762 l 1
 624 812 572 840 509 840 c 0
 315 840 213 650 213 427 c 0
 213 237 322 64 448 64 c 0
665 92 m 1
 595 16 506 -25 406 -25 c 0
 240 -25 55 152 55 400 c 0
 55 738 306 905 498 905 c 0
 585 905 658 881 718 829 c 1
 735 864 769 904 792 905 c 2
 818 905 l 1
 818 65 l 2
 818 -144 778 -331 669 -408 c 0
 598 -458 522 -475 444 -475 c 0
 331 -475 131 -396 131 -289 c 0
 131 -245 159 -216 201 -216 c 0
 257 -216 273 -248 290 -286 c 0
 307 -322 356 -410 454 -410 c 0
 623 -410 665 -230 665 38 c 2
 665 92 l 1
EndSplineSet
Validated: 3073
AlternateSubs2: "'aalt' Alle Alternativen zeigen 1" gbreve.sc
Substitution2: "'smcp' Gemeine nach Kapitaelchen 1" gbreve.sc
EndChar

StartChar: Gdotaccent
Encoding: 288 288 52
Width: 1377
VWidth: 2047
Flags: HW
HStem: -25 75<597.937 1018.34> 555 74<927 1095.06 1277.81 1376> 1272 75<550.557 965.743> 1445 196<686.77 849.23>
VStem: 65 178<440.982 883.546> 670 196<1461.77 1624.23> 1106 165<199.651 544.121>
LayerCount: 2
Fore
SplineSet
670 1543 m 0
 670 1597 714 1641 768 1641 c 0
 822 1641 866 1597 866 1543 c 0
 866 1489 822 1445 768 1445 c 0
 714 1445 670 1489 670 1543 c 0
1261 515 m 2
 1262 84.2227 l 2
 1262 80.418 l 0
 1262 -441.487 1056.68 -541.777 925 -541.777 c 0
 856 -541.777 711 -514.777 711 -405.777 c 0
 711 -355.777 745 -343.777 776 -343.777 c 0
 793 -343.777 839 -349.777 853 -419.777 c 0
 859.189 -450.739 867 -478.777 924 -478.777 c 0
 1032 -478.777 1104 -393.777 1104 42.2227 c 1
 1007.15 -0.360352 894.9 -25 758 -25 c 0
 346 -25 65 274 65 629 c 0
 65 1080 416 1347 767 1347 c 0
 1018 1347 1092 1256 1214 1255 c 1
 1228 1108 1242 1026 1259 940 c 1
 1198 928 l 1
 1144 1103 1037 1272 739 1272 c 0
 463 1272 243 1028 243 669 c 0
 243 399 441 50 804 50 c 0
 916 50 1036 85 1106 151 c 1
 1106 465 l 2
 1106 533 1091 568 1016 568 c 0
 1007 568 994.5 567.25 982 566 c 1
 976 569 l 1
 976 622 l 1
 982 627 l 1
 982 627 1120 623 1186 623 c 0
 1215 623 1261 627 1261 627 c 1
 1261 515 l 2
EndSplineSet
Validated: 3073
Position2: "'cpsp' Versalabstaende 1" dx=5 dy=0 dh=10 dv=0
EndChar

StartChar: gdotaccent
Encoding: 289 289 53
Width: 953
VWidth: 2047
Flags: HW
HStem: -481 76<283.608 661.676> -19 125<442.441 678.328> 279 61<350.311 586.281> 848 57<340.374 564.533> 1071 196<379.77 542.23>
VStem: 67 120<-318.353 -110.559> 122 145<431.677 750.128> 363 196<1087.77 1250.23> 648 149<427.864 754.977> 839 98<-281.865 -107.872>
LayerCount: 2
Fore
SplineSet
363 1169 m 0
 363 1223 407 1267 461 1267 c 0
 515 1267 559 1223 559 1169 c 0
 559 1115 515 1071 461 1071 c 0
 407 1071 363 1115 363 1169 c 0
448 64 m 0
 493 64 592 77 665 155 c 1
 665 762 l 1
 624 812 572 840 509 840 c 0
 315 840 213 650 213 427 c 0
 213 237 322 64 448 64 c 0
665 92 m 1
 595 16 506 -25 406 -25 c 0
 240 -25 55 152 55 400 c 0
 55 738 306 905 498 905 c 0
 585 905 658 881 718 829 c 1
 735 864 769 904 792 905 c 2
 818 905 l 1
 818 65 l 2
 818 -144 778 -331 669 -408 c 0
 598 -458 522 -475 444 -475 c 0
 331 -475 131 -396 131 -289 c 0
 131 -245 159 -216 201 -216 c 0
 257 -216 273 -248 290 -286 c 0
 307 -322 356 -410 454 -410 c 0
 623 -410 665 -230 665 38 c 2
 665 92 l 1
EndSplineSet
Validated: 3073
EndChar

StartChar: Gcommaaccent
Encoding: 290 290 54
Width: 1377
VWidth: 2047
Flags: HW
HStem: -274 167<673.718 799.688> -25 75<597.937 1018.34> 555 74<927 1095.06 1277.81 1376> 1272 75<550.557 965.743>
VStem: 65 178<440.982 883.546> 828 66<-340.319 -219.641> 1106 165<199.651 544.121>
LayerCount: 2
Fore
SplineSet
550 -107 m 0
 629 -107 677 -183 677 -256 c 0
 677 -309 642 -464 457 -472 c 1
 449 -438 l 1
 605 -407 611 -287 611 -276 c 0
 611 -268 610 -262 608 -256 c 1
 584 -268 564 -274 548 -274 c 0
 465 -274 445 -223 445 -189 c 0
 445 -156 477 -107 550 -107 c 0
1261 515 m 2
 1262 84.2227 l 2
 1262 80.418 l 0
 1262 -441.487 1056.68 -541.777 925 -541.777 c 0
 856 -541.777 711 -514.777 711 -405.777 c 0
 711 -355.777 745 -343.777 776 -343.777 c 0
 793 -343.777 839 -349.777 853 -419.777 c 0
 859.189 -450.739 867 -478.777 924 -478.777 c 0
 1032 -478.777 1104 -393.777 1104 42.2227 c 1
 1007.15 -0.360352 894.9 -25 758 -25 c 0
 346 -25 65 274 65 629 c 0
 65 1080 416 1347 767 1347 c 0
 1018 1347 1092 1256 1214 1255 c 1
 1228 1108 1242 1026 1259 940 c 1
 1198 928 l 1
 1144 1103 1037 1272 739 1272 c 0
 463 1272 243 1028 243 669 c 0
 243 399 441 50 804 50 c 0
 916 50 1036 85 1106 151 c 1
 1106 465 l 2
 1106 533 1091 568 1016 568 c 0
 1007 568 994.5 567.25 982 566 c 1
 976 569 l 1
 976 622 l 1
 982 627 l 1
 982 627 1120 623 1186 623 c 0
 1215 623 1261 627 1261 627 c 1
 1261 515 l 2
EndSplineSet
Validated: 3073
Position2: "'cpsp' Versalabstaende 1" dx=5 dy=0 dh=10 dv=0
EndChar

StartChar: gcommaaccent
Encoding: 291 291 55
Width: 953
VWidth: 2047
Flags: HW
HStem: -481 76<283.608 661.676> -19 125<442.441 678.328> 279 61<350.311 586.281> 848 57<340.374 564.533> 1048 167<434.312 560.282> 1394 20<467.5 564.571>
VStem: 67 120<-318.353 -110.559> 122 145<431.677 750.128> 340 66<1160.64 1282.03> 648 149<427.864 754.977> 839 98<-281.865 -107.872>
LayerCount: 2
Fore
SplineSet
467 1048 m 0
 388 1048 340 1124 340 1197 c 0
 340 1250 375 1405 560 1414 c 1
 568 1379 l 1
 410 1348 406 1225 406 1217 c 0
 406 1209 407 1203 409 1197 c 1
 433 1209 453 1215 469 1215 c 0
 552 1215 572 1164 572 1130 c 0
 572 1097 540 1048 467 1048 c 0
448 64 m 0
 493 64 592 77 665 155 c 1
 665 762 l 1
 624 812 572 840 509 840 c 0
 315 840 213 650 213 427 c 0
 213 237 322 64 448 64 c 0
665 92 m 1
 595 16 506 -25 406 -25 c 0
 240 -25 55 152 55 400 c 0
 55 738 306 905 498 905 c 0
 585 905 658 881 718 829 c 1
 735 864 769 904 792 905 c 2
 818 905 l 1
 818 65 l 2
 818 -144 778 -331 669 -408 c 0
 598 -458 522 -475 444 -475 c 0
 331 -475 131 -396 131 -289 c 0
 131 -245 159 -216 201 -216 c 0
 257 -216 273 -248 290 -286 c 0
 307 -322 356 -410 454 -410 c 0
 623 -410 665 -230 665 38 c 2
 665 92 l 1
EndSplineSet
Validated: 3073
EndChar

StartChar: Hcircumflex
Encoding: 292 292 56
Width: 1434
VWidth: 2047
Flags: HW
HStem: -4 59<40 204.943 393.94 562 874 1038.94 1227.94 1396> 664 80<383 1052> 1265 59<39 207.06 396.057 561 873 1041.06 1230.06 1395>
VStem: 218 165<66.8792 664 744 1253.13> 1052 165<66.8792 664 744 1253.13>
LayerCount: 2
Fore
SplineSet
754 1645 m 1
 815 1570 886 1508 960 1452 c 1
 928 1410 l 1
 848 1445 778 1485 710 1536 c 1
 635 1481 569 1444 491 1410 c 1
 462 1452 l 1
 538 1510 603 1576 666 1645 c 1
 754 1645 l 1
1051 1317 m 2
 1107 1317 l 1
 1148 1299 1178 1290 1215 1283 c 0
 1250 1276 1325 1265 1357 1265 c 1
 1353 1213 l 2
 1353 1207 1348 1203 1342 1203 c 2
 1276 1210 l 2
 1274 1210.2 1272.05 1210.3 1270.15 1210.3 c 0
 1233.1 1210.3 1215 1172.29 1215 1061 c 2
 1216 140 l 2
 1216 77 1247 50 1328 50 c 2
 1382 50 l 2
 1391 50 1399 44 1399 33 c 2
 1399 -5 l 1
 1395 -9 l 1
 1395 -9 1217 -5 1137 -5 c 0
 1064 -5 873 -9 873 -9 c 1
 869 -5 l 1
 869 33 l 2
 869 44 875 50 885 50 c 2
 939 50 l 2
 1023 50 1051 83 1051 140 c 2
 1051 657 l 1
 382 657 l 1
 382 140 l 2
 382 77 413 50 494 50 c 2
 548 50 l 2
 557 50 565 44 565 33 c 2
 565 -5 l 1
 561 -9 l 1
 561 -9 383 -5 303 -5 c 0
 230 -5 39 -9 39 -9 c 1
 35 -5 l 1
 35 33 l 2
 35 44 41 50 51 50 c 2
 105 50 l 2
 189 50 217 83 217 140 c 2
 217 1061 l 2
 217 1172.29 198.904 1210.3 161.85 1210.3 c 0
 159.95 1210.3 158 1210.2 156 1210 c 2
 90 1203 l 2
 84 1203 79 1207 79 1213 c 2
 75 1265 l 1
 107 1265 182 1276 217 1283 c 0
 254 1290 284 1299 325 1317 c 1
 381 1317 l 2
 382 737 l 1
 1051 737 l 1
 1051 1317 l 2
EndSplineSet
Validated: 3073
Position2: "'cpsp' Versalabstaende 1" dx=5 dy=0 dh=10 dv=0
EndChar

StartChar: hcircumflex
Encoding: 293 293 57
Width: 1048
VWidth: 2047
Flags: HW
HStem: -4 59<42 172.483 345.064 474 600 730.483 903.064 1032> 809 96<502.1 704.457> 1315 62<43.0036 113.963> 1409 20<268.5 334>
VStem: 181 153<62.0094 659 736 1319.95> 739 153<62.0094 776.24>
LayerCount: 2
Fore
SplineSet
631 1704 m 1
 692 1629 763 1567 837 1511 c 1
 805 1469 l 1
 725 1504 655 1544 587 1595 c 1
 512 1540 446 1503 368 1469 c 1
 339 1511 l 1
 415 1569 480 1635 543 1704 c 1
 631 1704 l 1
181 1430 m 2
 226 1430 l 1
 267 1412 297 1403 334 1396 c 0
 369 1389 444 1378 476 1378 c 1
 472 1326 l 2
 472 1320 467 1316 461 1316 c 2
 395 1323 l 2
 354.933 1323 333.966 1292.44 333.966 1181.85 c 0
 334 1174 l 2
 334 986 l 1
 334 738 l 1
 471 875 591 907 671 907 c 0
 819 907 891 794 892 583 c 2
 893 164 l 2
 893 96 908 61 983 61 c 0
 992 61 1004.5 61.75 1017 63 c 1
 1023 60 l 1
 1023 7 l 1
 1017 2 l 1
 1017 2 879 6 813 6 c 0
 784 6 738 2 738 2 c 1
 740 165 l 2
 739 606 l 2
 739 772 694 811 580 811 c 0
 521 811 432 758 334 661 c 1
 334 149 l 2
 334 90 355 59 422 59 c 2
 461 59 l 2
 470 59 478 53 478 42 c 2
 478 4 l 1
 474 0 l 1
 474 0 334 4 254 4 c 0
 181 4 42 0 42 0 c 1
 38 4 l 1
 38 42 l 2
 38 53 44 59 54 59 c 2
 93 59 l 2
 162 59 181 91 181 149 c 2
 181 1430 l 2
EndSplineSet
Validated: 3073
EndChar

StartChar: Hbar
Encoding: 294 294 58
Width: 1435
VWidth: 2047
Flags: HMW
HStem: -4 59<40 204.943 393.94 562 874 1038.94 1227.94 1396> 664 80<383 1052> 1049 70<83 1343> 1265 59<39 207.06 396.057 561 873 1041.06 1230.06 1395>
VStem: 218 165<66.8792 664 744 1253.13> 1052 165<66.8792 664 744 1253.13>
LayerCount: 2
Fore
SplineSet
1052 147 m 2
 1052 664 l 1
 383 664 l 1
 383 147 l 2
 383 84 414 55 495 55 c 2
 549 55 l 2
 558 55 566 49 566 38 c 2
 566 0 l 1
 562 -4 l 1
 562 -4 384 0 304 0 c 0
 231 0 40 -4 40 -4 c 1
 36 0 l 1
 36 38 l 2
 36 49 42 55 52 55 c 2
 106 55 l 2
 190 55 218 90 218 147 c 2
 218 1049 l 1
 83 1049 l 1
 83 1119 l 1
 218 1119 l 1
 218 1175 l 2
 218 1238 187 1265 106 1265 c 2
 52 1265 l 2
 43 1265 35 1271 35 1282 c 2
 35 1320 l 1
 39 1324 l 1
 39 1324 217 1320 297 1320 c 0
 370 1320 561 1324 561 1324 c 1
 565 1320 l 1
 565 1282 l 2
 565 1271 559 1265 549 1265 c 2
 495 1265 l 2
 411 1265 383 1232 383 1175 c 2
 383 1119 l 1
 1052 1119 l 1
 1052 1175 l 2
 1052 1238 1021 1265 940 1265 c 2
 886 1265 l 2
 877 1265 869 1271 869 1282 c 2
 869 1320 l 1
 873 1324 l 1
 873 1324 1051 1320 1131 1320 c 0
 1204 1320 1395 1324 1395 1324 c 1
 1399 1320 l 1
 1399 1282 l 2
 1399 1271 1393 1265 1383 1265 c 2
 1329 1265 l 2
 1245 1265 1217 1232 1217 1175 c 2
 1217 1119 l 1
 1343 1119 l 1
 1343 1049 l 1
 1217 1049 l 1
 1217 147 l 2
 1217 84 1248 55 1329 55 c 2
 1383 55 l 2
 1392 55 1400 49 1400 38 c 2
 1400 0 l 1
 1396 -4 l 1
 1396 -4 1218 0 1138 0 c 0
 1065 0 874 -4 874 -4 c 1
 870 0 l 1
 870 38 l 2
 870 49 876 55 886 55 c 2
 940 55 l 2
 1024 55 1052 90 1052 147 c 2
1052 1049 m 1
 383 1049 l 1
 383 744 l 1
 1052 744 l 1
 1052 1049 l 1
EndSplineSet
Validated: 3073
Position2: "'cpsp' Versalabstaende 1" dx=5 dy=0 dh=10 dv=0
EndChar

StartChar: hbar
Encoding: 295 295 59
Width: 1061
VWidth: 2047
Flags: HW
HStem: -4 59<42 172.483 345.064 474 600 730.483 903.064 1032> 809 96<502.1 704.457> 1085 81<53 698> 1315 62<43.0036 113.963> 1409 20<268.5 334>
VStem: 181 153<62.0094 659 736 1319.95> 739 153<62.0094 776.24>
LayerCount: 2
Fore
SplineSet
181 1085 m 1
 53 1085 l 1
 53 1166 l 1
 181 1166 l 1
 181 1173 l 2
 181 1290 161 1322 120 1322 c 2
 54 1315 l 2
 48 1315 43 1319 43 1325 c 2
 39 1377 l 1
 71 1377 146 1388 181 1395 c 0
 218 1402 248 1411 289 1429 c 1
 334 1429 l 1
 334 1166 l 1
 698 1166 l 1
 698 1085 l 1
 334 1085 l 1
 334 736 l 1
 471 873 591 905 671 905 c 0
 819 905 892 792 892 581 c 2
 892 147 l 2
 892 89 913 55 980 55 c 2
 1019 55 l 2
 1028 55 1036 49 1036 38 c 2
 1036 0 l 1
 1032 -4 l 1
 1032 -4 892 0 812 0 c 0
 739 0 600 -4 600 -4 c 1
 596 0 l 1
 596 38 l 2
 596 49 602 55 612 55 c 2
 651 55 l 2
 720 55 739 89 739 147 c 2
 739 604 l 2
 739 770 694 809 580 809 c 0
 521 809 432 756 334 659 c 1
 334 147 l 2
 334 88 355 55 422 55 c 2
 461 55 l 2
 470 55 478 49 478 38 c 2
 478 0 l 1
 474 -4 l 1
 474 -4 334 0 254 0 c 0
 181 0 42 -4 42 -4 c 1
 38 0 l 1
 38 38 l 2
 38 49 44 55 54 55 c 2
 93 55 l 2
 162 55 181 89 181 147 c 2
 181 1085 l 1
EndSplineSet
Validated: 3073
EndChar

StartChar: Itilde
Encoding: 296 296 60
Width: 601
VWidth: 2047
Flags: HW
HStem: -4 59<40 204.943 393.94 562> 1265 59<39 207.06 396.057 561> 1426 90<331.672 511.067> 1525 94<90.934 278.061> 1604 20
VStem: 218 165<67.1816 1253.13>
LayerCount: 2
Fore
SplineSet
437 1516 m 0
 481 1516 510 1538 539 1624 c 1
 588 1611 l 1
 563 1488 505 1426 410 1426 c 0
 365 1426 322.215 1452.34 280 1479 c 0
 242 1503 204 1525 168 1525 c 0
 115 1525 88 1495 68 1427 c 1
 20 1437 l 1
 48 1558 94 1619 182 1619 c 0
 245 1619 290 1590 330 1562 c 0
 364.094 1538.13 398 1516 437 1516 c 0
382 1194 m 2
 382 144 l 2
 382 81 413 55 494 55 c 2
 548 55 l 2
 557 55 565 49 565 38 c 2
 565 0 l 1
 561 -4 l 1
 561 -4 383 0 303 0 c 0
 230 0 39 -4 39 -4 c 1
 35 0 l 1
 35 38 l 2
 35 49 41 55 51 55 c 2
 105 55 l 2
 189 55 217 87 217 144 c 2
 217 1194 l 2
 217 1257 210 1263 179 1263 c 2
 149 1263 l 2
 140 1263 132 1269 132 1280 c 2
 132 1318 l 1
 136 1322 l 1
 136 1322 216 1318 296 1318 c 0
 369 1318 454 1322 454 1322 c 1
 458 1318 l 1
 458 1280 l 2
 458 1269 452 1263 442 1263 c 2
 416 1263 l 2
 382 1263 382 1251 382 1194 c 2
EndSplineSet
Validated: 3073
Position2: "'cpsp' Versalabstaende 1" dx=5 dy=0 dh=10 dv=0
EndChar

StartChar: itilde
Encoding: 297 297 61
Width: 613
VWidth: 2047
Flags: HW
HStem: -4 59<63 193.483 366.064 495> 773 56<60.5157 145.733> 885 20<316.5 355> 1076 90<281.405 442.86> 1175 94<64.7406 233.155> 1254 20
VStem: 202 153<62.0094 782.987>
LayerCount: 2
Fore
SplineSet
376.2 1166 m 0
 415.8 1166 441.9 1188 468 1274 c 1
 512.1 1261 l 1
 489.6 1138 437.4 1076 351.9 1076 c 0
 311.4 1076 272.924 1102.32 234.9 1129 c 0
 200.7 1153 166.5 1175 134.1 1175 c 0
 86.4004 1175 62.0996 1145 44.0996 1077 c 1
 0.900391 1087 l 1
 26.0996 1208 67.5 1269 146.7 1269 c 0
 203.4 1269 243.9 1240 279.9 1212 c 0
 310.597 1188.12 341.1 1166 376.2 1166 c 0
354 276 m 2
 354 149 368 89 423 89 c 0
 476 89 516 104 569 145 c 1
 606 110 l 1
 527 21 444 -25 351 -25 c 0
 256 -25 201 31 201 179 c 2
 201 657 l 2
 201 766 183 783 155 783 c 0
 128 783 104 780 69 773 c 1
 59 829 l 1
 189 851 213 860 272 888 c 0
 293.01 897.972 308 905 323 905 c 2
 354 905 l 1
 354 276 l 2
EndSplineSet
Validated: 3073
EndChar

StartChar: Imacron
Encoding: 298 298 62
Width: 601
VWidth: 2047
Flags: HW
HStem: -4 59<40 204.943 393.94 562> 1265 59<39 207.06 396.057 561> 1501 90<20.448 43 43 589.428>
VStem: 18 574 218 165<67.1816 1253.13>
LayerCount: 2
Fore
SplineSet
544 1501 m 2
 43 1501 l 2
 25 1501 18 1517 18 1531 c 0
 18 1555 39 1591 63 1591 c 2
 564 1591 l 2
 584 1591 592 1575 592 1561 c 0
 592 1537 570 1501 544 1501 c 2
382 1194 m 2
 382 144 l 2
 382 81 413 55 494 55 c 2
 548 55 l 2
 557 55 565 49 565 38 c 2
 565 0 l 1
 561 -4 l 1
 561 -4 383 0 303 0 c 0
 230 0 39 -4 39 -4 c 1
 35 0 l 1
 35 38 l 2
 35 49 41 55 51 55 c 2
 105 55 l 2
 189 55 217 87 217 144 c 2
 217 1194 l 2
 217 1257 210 1263 179 1263 c 2
 149 1263 l 2
 140 1263 132 1269 132 1280 c 2
 132 1318 l 1
 136 1322 l 1
 136 1322 216 1318 296 1318 c 0
 369 1318 454 1322 454 1322 c 1
 458 1318 l 1
 458 1280 l 2
 458 1269 452 1263 442 1263 c 2
 416 1263 l 2
 382 1263 382 1251 382 1194 c 2
EndSplineSet
Validated: 3073
Position2: "'cpsp' Versalabstaende 1" dx=5 dy=0 dh=10 dv=0
EndChar

StartChar: imacron
Encoding: 299 299 63
Width: 613
VWidth: 2047
Flags: HW
HStem: -4 59<63 193.483 366.064 495> 773 56<60.5157 145.733> 885 20<316.5 355> 1103 90<-0.996805 19.3 19.3 511.085>
VStem: -3.2 516.6 202 153<62.0094 782.987>
LayerCount: 2
Fore
SplineSet
470.2 1103 m 2
 19.2998 1103 l 2
 3.09961 1103 -3.2002 1119 -3.2002 1133 c 0
 -3.2002 1157 15.7002 1193 37.2998 1193 c 2
 488.2 1193 l 2
 506.2 1193 513.4 1177 513.4 1163 c 0
 513.4 1139 493.6 1103 470.2 1103 c 2
354 276 m 2
 354 149 368 89 423 89 c 0
 476 89 516 104 569 145 c 1
 606 110 l 1
 527 21 444 -25 351 -25 c 0
 256 -25 201 31 201 179 c 2
 201 657 l 2
 201 766 183 783 155 783 c 0
 128 783 104 780 69 773 c 1
 59 829 l 1
 189 851 213 860 272 888 c 0
 293.01 897.972 308 905 323 905 c 2
 354 905 l 1
 354 276 l 2
EndSplineSet
Validated: 3073
EndChar

StartChar: Ibreve
Encoding: 300 300 64
Width: 601
VWidth: 2047
Flags: HW
HStem: -4 59<40 204.943 393.94 562> 1265 59<39 207.06 396.057 561> 1417 107<142.186 462.759>
VStem: 26 57<1567.6 1644.63> 218 165<67.1816 1253.13> 525 55<1570.75 1649>
LayerCount: 2
Fore
SplineSet
580 1649 m 1
 568 1503 439 1417 305 1417 c 0
 154 1417 37 1506 26 1649 c 1
 83 1649 l 1
 100 1569 196 1524 305 1524 c 0
 405 1524 511 1569 525 1649 c 1
 580 1649 l 1
382 1194 m 2
 382 144 l 2
 382 81 413 55 494 55 c 2
 548 55 l 2
 557 55 565 49 565 38 c 2
 565 0 l 1
 561 -4 l 1
 561 -4 383 0 303 0 c 0
 230 0 39 -4 39 -4 c 1
 35 0 l 1
 35 38 l 2
 35 49 41 55 51 55 c 2
 105 55 l 2
 189 55 217 87 217 144 c 2
 217 1194 l 2
 217 1257 210 1263 179 1263 c 2
 149 1263 l 2
 140 1263 132 1269 132 1280 c 2
 132 1318 l 1
 136 1322 l 1
 136 1322 216 1318 296 1318 c 0
 369 1318 454 1322 454 1322 c 1
 458 1318 l 1
 458 1280 l 2
 458 1269 452 1263 442 1263 c 2
 416 1263 l 2
 382 1263 382 1251 382 1194 c 2
EndSplineSet
Validated: 3073
Position2: "'cpsp' Versalabstaende 1" dx=5 dy=0 dh=10 dv=0
EndChar

StartChar: ibreve
Encoding: 301 301 65
Width: 613
VWidth: 2047
Flags: HW
HStem: -4 59<63 193.483 366.064 495> 773 56<60.5157 145.733> 885 20<316.5 355> 1029 117<130.102 382.572>
VStem: 7.7 49.5<1228.04 1306> 202 153<62.0094 782.987> 456.8 48.6<1226.92 1306>
LayerCount: 2
Fore
SplineSet
57.2002 1334 m 1
 60.7998 1229 146.3 1146 257.9 1146 c 0
 342.5 1146 452.3 1207 456.8 1334 c 1
 505.4 1306 l 1
 487.4 1100 349.7 1029 257.9 1029 c 0
 114.8 1029 21.2002 1147 7.7002 1306 c 1
 57.2002 1334 l 1
354 276 m 2
 354 149 368 89 423 89 c 0
 476 89 516 104 569 145 c 1
 606 110 l 1
 527 21 444 -25 351 -25 c 0
 256 -25 201 31 201 179 c 2
 201 657 l 2
 201 766 183 783 155 783 c 0
 128 783 104 780 69 773 c 1
 59 829 l 1
 189 851 213 860 272 888 c 0
 293.01 897.972 308 905 323 905 c 2
 354 905 l 1
 354 276 l 2
EndSplineSet
Validated: 3073
EndChar

StartChar: Iogonek
Encoding: 302 302 66
Width: 601
VWidth: 2047
Flags: HW
HStem: -461 81<308.979 493.745> -4 59<40 204.943 393.94 562> -2 52<418.478 518> 1265 59<39 207.06 396.057 561>
VStem: 162 123<-356.321 -154.569> 218 165<67.1816 1253.13>
LayerCount: 2
Fore
SplineSet
353 -461 m 0
 243 -461 162 -398 162 -286 c 0
 162 -188.156 244.805 -68.6643 369.404 -0.385126 c 1
 348.703 -0.144292 326.659 -2.38419e-07 302 0 c 0
 199.808 0 142.18 -2.44043 40 -4 c 1
 36 0 l 1
 36 38 l 2
 36 49 42 55 52 55 c 2
 106 55 l 2
 190 55 218 89 218 146 c 2
 218 1175 l 2
 218 1238 187 1265 106 1265 c 2
 52 1265 l 2
 43 1265 35 1271 35 1282 c 2
 35 1320 l 1
 39 1324 l 1
 140.79 1322.44 198.198 1320 300 1320 c 0
 401.802 1320 459.21 1322.44 561 1324 c 1
 565 1320 l 1
 565 1282 l 2
 565 1271 559 1265 549 1265 c 2
 495 1265 l 2
 411 1265 383 1232 383 1175 c 2
 383 146 l 2
 383 83 414 55 495 55 c 2
 549 55 l 2
 558 55 566 49 566 38 c 2
 566 0 l 1
 562 -4 l 1
 551.905 -3.84474 542.249 -3.68075 532.943 -3.5113 c 0
 384.359 -19.6264 285 -161.161 285 -261 c 0
 285 -326 330 -380 404 -380 c 0
 465 -380 507 -350 547 -308 c 1
 578 -324 l 1
 529 -420 426 -461 353 -461 c 0
EndSplineSet
Validated: 3073
Position2: "'cpsp' Versalabstaende 1" dx=5 dy=0 dh=10 dv=0
EndChar

StartChar: iogonek
Encoding: 303 303 67
Width: 542
VWidth: 2047
Flags: HW
HStem: -461 81<242.877 424.782> -4 59<63 193.483 366.064 495> -2 52<349.929 450> 773 56<60.5157 145.733> 885 20<316.5 355> 1071 196<175.77 338.23>
VStem: 94 123<-356.321 -154.569> 159 196<1087.77 1250.23> 202 153<62.0094 782.987>
LayerCount: 2
Fore
SplineSet
284 -461 m 0
 174 -461 94 -398 94 -286 c 0
 94 -188.015 176.502 -68.3182 301.517 -0.0887709 c 1
 293.387 -0.0314437 285.506 9.0003e-06 278 0 c 0
 194.136 0 63 -4 63 -4 c 1
 59 0 l 1
 59 38 l 2
 59 49 65 55 75 55 c 2
 114 55 l 2
 183 55 202 89 202 147 c 2
 202 657 l 2
 202 766 184 783 156 783 c 0
 129 783 105 780 70 773 c 1
 60 829 l 1
 190 851 214 860 273 888 c 0
 294.013 897.972 309 905 324 905 c 2
 355 905 l 1
 355 147 l 2
 355 89 376 55 443 55 c 2
 482 55 l 2
 491 55 499 49 499 38 c 2
 499 0 l 1
 495 -4 l 1
 466.888 -3.20974 l 2
 316.771 -17.7637 217 -160.505 217 -261 c 0
 217 -326 262 -380 336 -380 c 0
 396 -380 438 -350 478 -308 c 1
 509 -324 l 1
 460 -420 357 -461 284 -461 c 0
159 1169 m 0
 159 1223 203 1267 257 1267 c 0
 311 1267 355 1223 355 1169 c 0
 355 1115 311 1071 257 1071 c 0
 203 1071 159 1115 159 1169 c 0
EndSplineSet
Validated: 3073
EndChar

StartChar: Idotaccent
Encoding: 304 304 68
Width: 601
VWidth: 2047
Flags: HW
HStem: -4 59<40 204.943 393.94 562> 1265 59<39 207.06 396.057 561> 1439 196<218.77 381.23>
VStem: 202 196<1455.77 1618.23> 218 165<67.1816 1253.13>
LayerCount: 2
Fore
SplineSet
202 1537 m 0
 202 1591 246 1635 300 1635 c 0
 354 1635 398 1591 398 1537 c 0
 398 1483 354 1439 300 1439 c 0
 246 1439 202 1483 202 1537 c 0
382 1194 m 2
 382 144 l 2
 382 81 413 55 494 55 c 2
 548 55 l 2
 557 55 565 49 565 38 c 2
 565 0 l 1
 561 -4 l 1
 561 -4 383 0 303 0 c 0
 230 0 39 -4 39 -4 c 1
 35 0 l 1
 35 38 l 2
 35 49 41 55 51 55 c 2
 105 55 l 2
 189 55 217 87 217 144 c 2
 217 1194 l 2
 217 1257 210 1263 179 1263 c 2
 149 1263 l 2
 140 1263 132 1269 132 1280 c 2
 132 1318 l 1
 136 1322 l 1
 136 1322 216 1318 296 1318 c 0
 369 1318 454 1322 454 1322 c 1
 458 1318 l 1
 458 1280 l 2
 458 1269 452 1263 442 1263 c 2
 416 1263 l 2
 382 1263 382 1251 382 1194 c 2
EndSplineSet
Validated: 3073
Position2: "'cpsp' Versalabstaende 1" dx=5 dy=0 dh=10 dv=0
EndChar

StartChar: afii10057
Encoding: 1032 1032 69
Width: 760
VWidth: 2047
Flags: HW
HStem: -25 64<234.394 367.283> 1265 59<193 375.767 584.095 729>
VStem: 406 165<128.623 1238.01>
LayerCount: 2
Fore
SplineSet
292 39 m 0
 393 39 406 162 406 353 c 2
 406 1144 l 2
 406 1207 361 1265 280 1265 c 2
 206 1265 l 2
 197 1265 189 1271 189 1282 c 2
 189 1320 l 1
 193 1324 l 1
 193 1324 405 1320 485 1320 c 0
 558 1320 729 1324 729 1324 c 1
 733 1320 l 1
 733 1282 l 2
 733 1271 727 1265 717 1265 c 2
 683 1265 l 2
 599 1265 571 1233 571 1176 c 2
 571 398 l 2
 571 32 422 -25 293 -25 c 0
 224 -25 80 -4 80 105 c 0
 80 155 116 177 147 177 c 0
 204 177 226 125 230 101 c 0
 234 74 248 39 292 39 c 0
EndSplineSet
Validated: 3073
EndChar

StartChar: afii10061
Encoding: 1036 1036 70
Width: 1233
VWidth: 2047
Flags: HW
HStem: -4 59<40 204.943 393.94 562 1078.31 1193> 661 88<383 469.924> 1208 126<873.696 1079.16> 1265 59<39 207.06 396.057 561> 1431 250
VStem: 218 165<67.1816 1253.13> 589 413
LayerCount: 2
Fore
SplineSet
874 1681 m 1
 1002 1574 l 1
 707 1455 l 2
 662.912 1437.22 636 1431 619 1431 c 0
 600 1431 589 1441 589 1461 c 0
 589 1475 594.055 1485.92 620 1504 c 2
 874 1681 l 1
1193 -4 m 1
 1045 -2 l 2
 881.003 0.216179 816.439 144.173 728 368 c 0
 647 573 611 657 383 661 c 1
 383 146 l 2
 383 83 414 55 495 55 c 2
 549 55 l 2
 558 55 566 49 566 38 c 2
 566 0 l 1
 562 -4 l 1
 460.6 -2.44043 403.412 0 302 0 c 0
 199.808 0 142.18 -2.44043 40 -4 c 1
 36 0 l 1
 36 38 l 2
 36 49 42 55 52 55 c 2
 106 55 l 2
 190 55 218 89 218 146 c 2
 218 1175 l 2
 218 1238 187 1265 106 1265 c 2
 52 1265 l 2
 43 1265 35 1271 35 1282 c 2
 35 1320 l 1
 39 1324 l 1
 140.79 1322.44 198.198 1320 300 1320 c 0
 401.802 1320 459.21 1322.44 561 1324 c 1
 565 1320 l 1
 565 1282 l 2
 565 1271 559 1265 549 1265 c 2
 495 1265 l 2
 411 1265 383 1232 383 1175 c 2
 383 749 l 1
 456 749 548 752 598 780 c 0
 719 846 742 999 759 1115 c 0
 776.287 1232.96 884 1334 1028 1334 c 0
 1136 1334 1174 1278 1174 1230 c 0
 1174 1180 1126 1144 1084 1144 c 0
 1057 1144 1026 1154 1008 1172 c 0
 987 1193 960 1208 933 1208 c 0
 887 1208 844.304 1150.95 834 1091 c 0
 812 963 776 754 612 702 c 1
 753 702 796 607 850 483 c 0
 968.746 210.324 1085 55 1159 55 c 2
 1180 55 l 2
 1189 55 1197 49 1197 38 c 2
 1197 0 l 1
 1193 -4 l 1
EndSplineSet
Validated: 3073
LCarets2: 1 0 
EndChar

StartChar: uni040D
Encoding: 1037 1037 71
Width: 1435
VWidth: 2047
Flags: HW
HStem: -4 59<40 205.388 393.728 561 874 1038.94 1227.94 1396> 1265 59<40 208.06 391.136 561 873 1041.06 1230.06 1395>
VStem: 218 165<66.8792 159 274 1253.77> 1052 165<67.1816 1034 1149 1176 1176 1254.42>
DStem2: 383 274 383 159 0.607383 0.794409<0 1010.09>
LayerCount: 2
Fore
SplineSet
611 1677 m 1
 859 1504 l 2
 881 1488 890 1475 890 1461 c 0
 890 1441 879 1431 860 1431 c 0
 842 1431 815 1437 772 1455 c 2
 455 1583 l 1
 611 1677 l 1
1217 1176 m 2
 1217 146 l 2
 1217 83 1248 55 1329 55 c 2
 1383 55 l 2
 1392 55 1400 49 1400 38 c 2
 1400 0 l 1
 1396 -4 l 1
 1396 -4 1218 1 1138 1 c 0
 1065 1 874 -4 874 -4 c 1
 870 0 l 1
 870 38 l 2
 870 49 876 55 886 55 c 2
 940 55 l 2
 1024 55 1052 89 1052 146 c 2
 1052 1034 l 1
 383 159 l 1
 383 147 l 2
 383 84 413 55 495 55 c 2
 549 55 l 2
 557 55 565 49 565 38 c 2
 565 0 l 1
 561 -4 l 1
 561 -4 384 1 304 1 c 0
 232 1 40 -4 40 -4 c 1
 36 0 l 1
 36 38 l 2
 36 49 42 55 52 55 c 2
 106 55 l 2
 190 55 218 90 218 147 c 2
 218 1177 l 2
 218 1240 188 1265 106 1265 c 2
 52 1265 l 2
 44 1265 36 1271 36 1282 c 2
 36 1320 l 1
 40 1324 l 1
 40 1324 218 1318 298 1318 c 0
 370 1318 561 1324 561 1324 c 1
 565 1320 l 1
 565 1282 l 2
 565 1271 559 1265 549 1265 c 2
 495 1265 l 2
 411 1265 383 1234 383 1177 c 2
 383 274 l 1
 1052 1149 l 1
 1052 1176 l 2
 1052 1239 1021 1265 940 1265 c 2
 886 1265 l 2
 877 1265 869 1271 869 1282 c 2
 869 1320 l 1
 873 1324 l 1
 873 1324 1051 1319 1131 1319 c 0
 1204 1319 1395 1325 1395 1325 c 1
 1399 1321 l 1
 1399 1283 l 2
 1399 1272 1393 1266 1383 1266 c 2
 1329 1266 l 2
 1245 1266 1217 1233 1217 1176 c 2
EndSplineSet
Validated: 3073
LCarets2: 1 0 
EndChar

StartChar: afii10062
Encoding: 1038 1038 72
Width: 1189
VWidth: 2047
Flags: HW
HStem: -46 127<299.336 470.362> 1265 59<3.16406 65.8507 65.8507 130.5 336.01 481.88 481.88 482 801 801.097 801.097 934.552 1051.7 1185.36 1185.36 1185.44> 1427 63<537.523 742.14>
VStem: 383 142<1506.65 1643.48> 751 142<1504.73 1614.09>
DStem2: 349 1178 181 1144 0.41846 -0.908235<-54.7923 779.591> 580 278 700 330 0.36961 0.929187<-209.624 0 210.18 1022.48>
LayerCount: 2
Fore
SplineSet
893 1586 m 0
 893 1478 766 1427 636 1427 c 0
 501 1427 383 1476 383 1584 c 0
 383 1629 407 1647 462 1647 c 0
 506 1647 527 1614 527 1583 c 0
 527 1579.8 525 1568.6 525 1567 c 0
 525 1526 572 1490 638 1490 c 0
 700 1490 751 1519 751 1565 c 0
 751 1566.9 749 1580.2 749 1584 c 0
 749 1613 768 1647 814 1647 c 0
 869 1647 893 1626 893 1586 c 0
400 81 m 0
 465 81 517 125 580 278 c 1
 181 1144 l 2
 161 1186 120 1265 20 1265 c 0
 8 1265 0 1272 0 1281 c 2
 0 1320 l 1
 3 1324 l 1
 3 1324 131 1320 215 1320 c 0
 317 1320 482 1324 482 1324 c 1
 486 1320 l 1
 486 1282 l 2
 486 1272 481 1265 472 1265 c 2
 394 1265 l 2
 350 1265 336 1254 336 1233 c 0
 336 1219 340 1200 349 1178 c 2
 671 468 l 1
 938 1178 l 2
 948 1202 952 1219 952 1231 c 0
 952 1260 926 1265 871 1265 c 2
 810 1265 l 2
 803 1265 798 1272 798 1281 c 2
 798 1320 l 1
 801 1324 l 1
 801 1324 935 1320 1022 1320 c 0
 1087 1320 1186 1324 1186 1324 c 1
 1189 1320 l 1
 1189 1282 l 2
 1189 1269 1176 1265 1168 1265 c 0
 1073 1265 1053 1241 1021 1159 c 2
 700 330 l 2
 613 106 500 -46 316 -46 c 0
 229 -46 136 2 136 68 c 0
 136 125 165 162 231 162 c 0
 260 162 306 147 325 123 c 0
 340.026 104.02 370 81 400 81 c 0
EndSplineSet
Validated: 3073
LCarets2: 1 0 
EndChar

StartChar: afii10020
Encoding: 1043 1043 73
Width: 987
VWidth: 2047
Flags: HW
HStem: -4 59<29 197.06 386.057 551> 1240 80<375.074 835.963> 1265 59<29 201.599>
VStem: 208 165<66.8792 1237.12>
LayerCount: 2
Fore
SplineSet
702 1240 m 2
 447 1240 l 2
 402 1240 373 1227 373 1173 c 2
 373 147 l 2
 373 90 401 55 485 55 c 2
 539 55 l 2
 549 55 555 49 555 38 c 2
 555 0 l 1
 551 -4 l 1
 551 -4 360 0 287 0 c 0
 207 0 29 -4 29 -4 c 1
 25 0 l 1
 25 38 l 2
 25 49 33 55 42 55 c 2
 96 55 l 2
 177 55 208 84 208 147 c 2
 208 1173 l 2
 208 1245 189 1265 102 1265 c 2
 41 1265 l 2
 32 1265 25 1271 25 1281 c 2
 25 1320 l 1
 29 1324 l 1
 29 1324 264 1320 290 1320 c 2
 290 1320 732.667 1320 954 1320 c 1
 963 1211 980 1088 996 1004 c 1
 936 994 l 1
 892 1135 856 1240 702 1240 c 2
EndSplineSet
Validated: 3073
EndChar

StartChar: afii10021
Encoding: 1044 1044 74
Width: 1342
VWidth: 2047
Flags: HW
HStem: 0 55<126 371 956 1198> 0 80<392.729 947.807> 1239 80.6025<547.279 948.736> 1265 59<311.648 451.663 1122.21 1265.49>
VStem: 951 165<82.2525 1236.66>
LayerCount: 2
Fore
SplineSet
229 97 m 0
 278 154 319.869 296.026 384 616 c 0
 430.904 850.019 455 1060 455 1190 c 0
 455 1240 436 1265 382 1265 c 2
 321 1265 l 2
 312 1265 306 1274 306 1283 c 2
 306 1306 l 2
 306 1314.84 316.628 1324.01 330.279 1324.01 c 0
 331 1324 l 2
 515 1319.6 l 1
 1041 1320.3 l 1
 1255 1324 l 2
 1262 1324.12 1268 1320 1268 1311 c 2
 1268 1282 l 2
 1268 1270 1260 1265 1252 1265 c 2
 1191 1265 l 2
 1127 1265 1116 1230 1116 1158 c 2
 1116 160 l 2
 1116 84 1163 55 1198 55 c 0
 1244 55 1258.93 40.9971 1260 16 c 2
 1273 -288 l 1
 1218 -288 1218 -288 1218 -288 c 1
 1194 -175 1120 0 956 0 c 2
 371 0 l 2
 200 0 148 -183 125 -288 c 1
 70 -288 l 1
 83 16 l 2
 84.0263 39.9989 106 55 126 55 c 0
 168 55 195 58 229 97 c 0
874 1239 m 2
 621 1239 l 2
 566 1239 544.019 1211 540 1159 c 0
 524 952 494 740 468 600 c 0
 423 361 373 158 373 114 c 0
 373 91 399 80 429 80 c 2
 876 80 l 2
 925 80 951 87 951 161 c 2
 951 1160 l 2
 951 1222 938 1239 874 1239 c 2
EndSplineSet
Validated: 3073
EndChar

StartChar: afii10024
Encoding: 1046 1046 75
Width: 1753
VWidth: 2047
Flags: HW
HStem: -4 59<50 153.816 616 780.943 969.94 1138 1599.18 1703> 661 88<700.537 794 959 1052.46> 1208 126<153.113 337.617 1415.38 1599.89> 1265 59<615 783.06 972.057 1137>
VStem: 794 165<67.1816 1253.13>
LayerCount: 2
Fore
SplineSet
1703 -4 m 1
 1569 -2 l 2
 1422 0.193989 1363.28 144.098 1284 368 c 0
 1210 577 1177 661 959 661 c 1
 959 146 l 2
 959 83 990 55 1071 55 c 2
 1125 55 l 2
 1134 55 1142 49 1142 38 c 2
 1142 0 l 1
 1138 -4 l 1
 1036.6 -2.44043 979.412 0 878 0 c 0
 775.808 0 718.18 -2.44043 616 -4 c 1
 612 0 l 1
 612 38 l 2
 612 49 618 55 628 55 c 2
 682 55 l 2
 766 55 794 89 794 146 c 2
 794 661 l 1
 576 661 543 577 469 368 c 0
 389.724 144.098 330.997 0.193989 184 -2 c 2
 50 -4 l 1
 47 0 l 1
 47 38 l 2
 47 49 54 55 62 55 c 2
 81 55 l 2
 148 55 251.373 210.637 359 483 c 0
 408 607 446 702 573 702 c 1
 426 754 393 963 373 1091 c 0
 363.634 1150.94 326 1208 284 1208 c 0
 260 1208 236 1193 217 1172 c 0
 200.842 1154.14 173 1144 149 1144 c 0
 110 1144 68 1180 68 1230 c 0
 68 1278 102 1334 199 1334 c 0
 328 1334 425.746 1232.97 441 1115 c 0
 456 999 477.163 846.268 586 780 c 0
 635.073 750.121 726 749 794 749 c 1
 794 1175 l 2
 794 1238 763 1265 682 1265 c 2
 628 1265 l 2
 619 1265 611 1271 611 1282 c 2
 611 1320 l 1
 615 1324 l 1
 716.79 1322.44 774.198 1320 876 1320 c 0
 977.802 1320 1035.21 1322.44 1137 1324 c 1
 1141 1320 l 1
 1141 1282 l 2
 1141 1271 1135 1265 1125 1265 c 2
 1071 1265 l 2
 987 1265 959 1232 959 1175 c 2
 959 749 l 1
 1027 749 1117.93 750.121 1167 780 c 0
 1275.84 846.268 1297 999 1312 1115 c 0
 1327.25 1232.97 1425 1334 1554 1334 c 0
 1651 1334 1685 1278 1685 1230 c 0
 1685 1180 1643 1144 1604 1144 c 0
 1580 1144 1552.16 1154.14 1536 1172 c 0
 1517 1193 1493 1208 1469 1208 c 0
 1427 1208 1389.37 1150.94 1380 1091 c 0
 1360 963 1327 754 1180 702 c 1
 1307 702 1345 607 1394 483 c 0
 1501.63 210.637 1605 55 1672 55 c 2
 1691 55 l 2
 1699 55 1706 49 1706 38 c 2
 1706 0 l 1
 1703 -4 l 1
EndSplineSet
Validated: 3073
EndChar

StartChar: afii10025
Encoding: 1047 1047 76
Width: 1112
VWidth: 2047
Flags: HW
HStem: -25 76<341.258 676.401> 689 75<323.011 637.116> 1278 69<321.393 651.529>
VStem: 768 164<885.852 1165.45> 830 187<206.435 521.43>
LayerCount: 2
Fore
SplineSet
507 51 m 0
 652 51 830 140 830 361 c 0
 830 464 750 689 510 689 c 2
 361 689 l 2
 338 689 323 702 323 725 c 0
 323 748 338 764 361 764 c 2
 456 764 l 2
 701 764 768 924 768 1036 c 0
 768 1173 636 1278 510 1278 c 0
 258 1278 210 1126 162 960 c 1
 101 965 l 1
 142 1322 l 1
 320 1322 391 1347 515 1347 c 0
 704 1347 932 1252 932 1056 c 0
 932 894 843 792 697 738 c 1
 842 696 1017 613 1017 394 c 0
 1017 84 744 -25 502 -25 c 0
 336 -25 236 39 172 89 c 0
 117 132 74 187 74 242 c 0
 74 295 96 337 143 337 c 0
 201 337 221.539 311.847 244 245 c 0
 286 120 352 51 507 51 c 0
EndSplineSet
Validated: 3073
EndChar

StartChar: afii10026
Encoding: 1048 1048 77
Width: 1435
VWidth: 2047
Flags: HW
HStem: -4 59<40 205.388 393.728 561 874 1038.94 1227.94 1396> 1265 59<40 208.06 391.136 561 873 1041.06 1230.06 1395>
VStem: 218 165<66.8792 159 274 1253.77> 1052 165<67.1816 1034 1149 1176 1176 1254.42>
DStem2: 383 274 383 159 0.607383 0.794409<0 1010.09>
LayerCount: 2
Fore
SplineSet
1217 1176 m 2
 1217 146 l 2
 1217 83 1248 55 1329 55 c 2
 1383 55 l 2
 1392 55 1400 49 1400 38 c 2
 1400 0 l 1
 1396 -4 l 1
 1396 -4 1218 1 1138 1 c 0
 1065 1 874 -4 874 -4 c 1
 870 0 l 1
 870 38 l 2
 870 49 876 55 886 55 c 2
 940 55 l 2
 1024 55 1052 89 1052 146 c 2
 1052 1034 l 1
 383 159 l 1
 383 147 l 2
 383 84 413 55 495 55 c 2
 549 55 l 2
 557 55 565 49 565 38 c 2
 565 0 l 1
 561 -4 l 1
 561 -4 384 1 304 1 c 0
 232 1 40 -4 40 -4 c 1
 36 0 l 1
 36 38 l 2
 36 49 42 55 52 55 c 2
 106 55 l 2
 190 55 218 90 218 147 c 2
 218 1177 l 2
 218 1240 188 1265 106 1265 c 2
 52 1265 l 2
 44 1265 36 1271 36 1282 c 2
 36 1320 l 1
 40 1324 l 1
 40 1324 218 1318 298 1318 c 0
 370 1318 561 1324 561 1324 c 1
 565 1320 l 1
 565 1282 l 2
 565 1271 559 1265 549 1265 c 2
 495 1265 l 2
 411 1265 383 1234 383 1177 c 2
 383 274 l 1
 1052 1149 l 1
 1052 1176 l 2
 1052 1239 1021 1265 940 1265 c 2
 886 1265 l 2
 877 1265 869 1271 869 1282 c 2
 869 1320 l 1
 873 1324 l 1
 873 1324 1051 1319 1131 1319 c 0
 1204 1319 1395 1325 1395 1325 c 1
 1399 1321 l 1
 1399 1283 l 2
 1399 1272 1393 1266 1383 1266 c 2
 1329 1266 l 2
 1245 1266 1217 1233 1217 1176 c 2
EndSplineSet
Validated: 3073
EndChar

StartChar: afii10027
Encoding: 1049 1049 78
Width: 1435
VWidth: 2047
Flags: HW
HStem: -4 59<40 205.388 393.728 561 874 1038.94 1227.94 1396> 1265 59<40 208.06 391.136 561 873 1041.06 1230.06 1395> 1427 63<617.523 822.14>
VStem: 218 165<66.8792 159 274 1253.77> 463 142<1506.65 1643.48> 831 142<1504.73 1614.09> 1052 165<67.1816 1034 1149 1176 1176 1254.42>
DStem2: 383 274 383 159 0.607383 0.794409<0 1010.09>
LayerCount: 2
Fore
SplineSet
973 1586 m 0
 973 1478 846 1427 716 1427 c 0
 581 1427 463 1476 463 1584 c 0
 463 1629 487 1647 542 1647 c 0
 586 1647 607 1614 607 1583 c 0
 607 1579.8 605 1568.6 605 1567 c 0
 605 1526 652 1490 718 1490 c 0
 780 1490 831 1519 831 1565 c 0
 831 1566.9 829 1580.2 829 1584 c 0
 829 1613 848 1647 894 1647 c 0
 949 1647 973 1626 973 1586 c 0
1217 1176 m 2
 1217 146 l 2
 1217 83 1248 55 1329 55 c 2
 1383 55 l 2
 1392 55 1400 49 1400 38 c 2
 1400 0 l 1
 1396 -4 l 1
 1396 -4 1218 1 1138 1 c 0
 1065 1 874 -4 874 -4 c 1
 870 0 l 1
 870 38 l 2
 870 49 876 55 886 55 c 2
 940 55 l 2
 1024 55 1052 89 1052 146 c 2
 1052 1034 l 1
 383 159 l 1
 383 147 l 2
 383 84 413 55 495 55 c 2
 549 55 l 2
 557 55 565 49 565 38 c 2
 565 0 l 1
 561 -4 l 1
 561 -4 384 1 304 1 c 0
 232 1 40 -4 40 -4 c 1
 36 0 l 1
 36 38 l 2
 36 49 42 55 52 55 c 2
 106 55 l 2
 190 55 218 90 218 147 c 2
 218 1177 l 2
 218 1240 188 1265 106 1265 c 2
 52 1265 l 2
 44 1265 36 1271 36 1282 c 2
 36 1320 l 1
 40 1324 l 1
 40 1324 218 1318 298 1318 c 0
 370 1318 561 1324 561 1324 c 1
 565 1320 l 1
 565 1282 l 2
 565 1271 559 1265 549 1265 c 2
 495 1265 l 2
 411 1265 383 1234 383 1177 c 2
 383 274 l 1
 1052 1149 l 1
 1052 1176 l 2
 1052 1239 1021 1265 940 1265 c 2
 886 1265 l 2
 877 1265 869 1271 869 1282 c 2
 869 1320 l 1
 873 1324 l 1
 873 1324 1051 1319 1131 1319 c 0
 1204 1319 1395 1325 1395 1325 c 1
 1399 1321 l 1
 1399 1283 l 2
 1399 1272 1393 1266 1383 1266 c 2
 1329 1266 l 2
 1245 1266 1217 1233 1217 1176 c 2
EndSplineSet
Validated: 3073
LCarets2: 1 0 
EndChar

StartChar: afii10033
Encoding: 1055 1055 79
Width: 1367
VWidth: 2047
Flags: HW
HStem: -4 59<39 203.943 390.819 551 816 973.467 1159.94 1328> 1238 82<385.522 979.697> 1265 59<39 209.734 1162.08 1328>
VStem: 217 165<66.8792 1235.14> 984 165<66.8792 1234.27>
LayerCount: 2
Fore
SplineSet
984 147 m 2
 984 1147 l 2
 984 1204 974 1238 909 1238 c 2
 456 1238 l 2
 393 1238 382 1214 382 1146 c 2
 382 147 l 2
 382 84 413 55 494 55 c 2
 538 55 l 2
 547 55 555 49 555 38 c 2
 555 0 l 1
 551 -4 l 1
 551 -4 383 0 303 0 c 0
 230 0 39 -4 39 -4 c 1
 35 0 l 1
 35 38 l 2
 35 49 41 55 51 55 c 2
 105 55 l 2
 189 55 217 90 217 147 c 2
 217 1175 l 2
 217 1251 177 1265 112 1265 c 2
 51 1265 l 2
 38 1265 35 1274 35 1281 c 2
 35 1320 l 1
 39 1324 l 1
 167 1324 39 1320 677 1320 c 0
 1328 1320 1198 1324 1328 1324 c 1
 1332 1320 l 1
 1332 1282 l 2
 1332 1274 1325 1265 1315 1265 c 2
 1255 1265 l 2
 1198 1264 1149 1238 1149 1175 c 2
 1149 147 l 2
 1149 84 1180 55 1261 55 c 2
 1315 55 l 2
 1324 55 1332 49 1332 38 c 2
 1332 0 l 1
 1328 -4 l 1
 1328 -4 1150 0 1070 0 c 0
 997 0 816 -4 816 -4 c 1
 812 0 l 1
 812 38 l 2
 812 49 818 55 828 55 c 2
 872 55 l 2
 956 55 984 90 984 147 c 2
EndSplineSet
Validated: 3073
EndChar

StartChar: afii10034
Encoding: 1056 1056 80
Width: 1068
VWidth: 2047
Flags: HW
HStem: -4 59<39 203.943 392.94 561> 577 70<437.343 721.695> 1265 59<39 201.683> 1269 70<428.705 725.139>
VStem: 217 165<67.1816 598 657 1251.91> 843 175<803.23 1151.1>
LayerCount: 2
Fore
SplineSet
382 1175 m 2
 382 657 l 1
 405 652 478 647 528 647 c 0
 728 647 843 738 843 959 c 0
 843 1218 692 1269 550 1269 c 0
 404 1269 382 1235 382 1175 c 2
217 146 m 2
 217 1175 l 2
 217 1241 162 1265 126 1265 c 2
 48 1265 l 2
 39 1265 35 1270 35 1278 c 2
 35 1320 l 1
 39 1324 l 1
 39 1324 204 1320 298 1320 c 0
 360 1320 513 1339 566 1339 c 0
 945 1339 1018 1116 1018 995 c 0
 1018 822 912 577 539 577 c 0
 466 577 429 583 382 598 c 1
 382 146 l 2
 382 83 413 55 494 55 c 2
 548 55 l 2
 557 55 565 49 565 38 c 2
 565 0 l 1
 561 -4 l 1
 561 -4 383 0 303 0 c 0
 230 0 39 -4 39 -4 c 1
 35 0 l 1
 35 38 l 2
 35 49 41 55 51 55 c 2
 105 55 l 2
 189 55 217 89 217 146 c 2
EndSplineSet
Validated: 3073
EndChar

StartChar: afii10035
Encoding: 1057 1057 81
Width: 1319
VWidth: 2047
Flags: HW
HStem: -25 85<539.142 950.601> 1272 75<552.926 927.464>
VStem: 75 178<418.126 892.619>
LayerCount: 2
Fore
SplineSet
1008 1175.85 m 1
 937.28 1233.73 840.163 1271 706 1271 c 0
 544 1271 253 1099 253 682.999 c 0
 253 383.999 408 58.999 726 58.999 c 0
 916 58.999 1054 126.999 1200 284.999 c 1
 1247 254.999 l 1
 1108 72.999 925 -26.001 728 -26.001 c 0
 286 -26.001 75 314.999 75 643.999 c 0
 75 1047 390 1346 729 1346 c 0
 980 1346 1177 1253 1177 1253 c 1
 1177 1253 1092.92 1098.51 1033.61 969.336 c 1
 977.089 996.706 l 1
 996.104 1054.4 1008 1114.21 1008 1175.85 c 1
EndSplineSet
Validated: 3073
EndChar

StartChar: afii10036
Encoding: 1058 1058 82
Width: 1263
VWidth: 2047
Flags: HW
HStem: -4 59<350 514.195 703.152 872> 1240 80<130.147 158 158 523.571 697.906 1052.85>
VStem: 528 165<68.8652 1233.9>
LayerCount: 2
Fore
SplineSet
821 1324 m 1
 1216 1324 l 1
 1220 1198 1230 1087 1248 972 c 1
 1187 962 l 1
 1169 1050 1100 1244 966 1244 c 2
 831 1244 l 2
 757 1244 733 1226 733 1158 c 2
 733 149 l 2
 733 86 764 59 845 59 c 2
 899 59 l 2
 908 59 916 53 916 42 c 2
 916 4 l 1
 912 0 l 1
 912 0 733 4 653 4 c 0
 580 4 390 0 390 0 c 1
 386 4 l 1
 386 42 l 2
 386 53 392 59 402 59 c 2
 456 59 l 2
 540 59 568 92 568 149 c 2
 568 1163 l 2
 568 1226 543 1244 469 1244 c 2
 297 1244 l 2
 163 1244 94 1050 76 962 c 1
 15 972 l 1
 33 1087 43 1198 47 1324 c 1
 821 1324 l 1
EndSplineSet
Validated: 3073
EndChar

StartChar: afii10037
Encoding: 1059 1059 83
Width: 1189
VWidth: 2047
Flags: HW
HStem: -46 127<299.336 470.362> 1265 59<3.16406 65.8507 65.8507 130.5 336.01 481.88 481.88 482 801 801.097 801.097 934.552 1051.7 1185.36 1185.36 1185.44>
DStem2: 349 1178 181 1144 0.41846 -0.908235<-54.7923 779.591> 580 278 700 330 0.36961 0.929187<-209.624 0 210.18 1022.48>
LayerCount: 2
Fore
SplineSet
400 81 m 0
 465 81 517 125 580 278 c 1
 181 1144 l 2
 161 1186 120 1265 20 1265 c 0
 8 1265 0 1272 0 1281 c 2
 0 1320 l 1
 3 1324 l 1
 3 1324 131 1320 215 1320 c 0
 317 1320 482 1324 482 1324 c 1
 486 1320 l 1
 486 1282 l 2
 486 1272 481 1265 472 1265 c 2
 394 1265 l 2
 350 1265 336 1254 336 1233 c 0
 336 1219 340 1200 349 1178 c 2
 671 468 l 1
 938 1178 l 2
 948 1202 952 1219 952 1231 c 0
 952 1260 926 1265 871 1265 c 2
 810 1265 l 2
 803 1265 798 1272 798 1281 c 2
 798 1320 l 1
 801 1324 l 1
 801 1324 935 1320 1022 1320 c 0
 1087 1320 1186 1324 1186 1324 c 1
 1189 1320 l 1
 1189 1282 l 2
 1189 1269 1176 1265 1168 1265 c 0
 1073 1265 1053 1241 1021 1159 c 2
 700 330 l 2
 613 106 500 -46 316 -46 c 0
 229 -46 136 2 136 68 c 0
 136 125 165 162 231 162 c 0
 260 162 306 147 325 123 c 0
 340.026 104.02 370 81 400 81 c 0
EndSplineSet
Validated: 3073
EndChar

StartChar: afii10039
Encoding: 1061 1061 84
Width: 1351
VWidth: 2047
Flags: HW
HStem: -4 59<9 84.8113 84.8113 160.443 306.015 358.052 358.052 410 860 962.659 1202.89 1273.77 1273.77 1332> 1265 59<37 95.6324 95.6324 96.0364 386.135 488 488.006 496.091 886 991.872 991.872 993.554 1130.02 1208.75 1208.75 1289>
DStem2: 412 1172 242 1124 0.579178 -0.815201<0 1135.47> 264 212 333 157 0.593227 0.805035<0 1192.25>
LayerCount: 2
Fore
SplineSet
1149 148 m 2
 1196 85 1250 56 1309 56 c 2
 1323 56 l 2
 1332 56 1343 50 1343 39 c 2
 1343 1 l 1
 1336 -3 l 1
 1336 -3 1183 1 1103 1 c 0
 1030 1 980 -3 980 -3 c 1
 976 1 l 1
 976 14 l 2
 976 51 969 98 934 148 c 2
 663 532 l 2
 651 549 643 556 635 556 c 0
 628 556 617 542 605 526 c 2
 333 155 l 2
 315 130 306 109 306 93 c 0
 306 69 326 55 365 55 c 2
 404 55 l 2
 413 54 416 48 416 40 c 2
 416 0 l 1
 410 -4 l 1
 410 -4 210 0 180 0 c 0
 170 0 9 -4 9 -4 c 1
 6 0 l 1
 6 41 l 2
 6 52 17 55 28 55 c 0
 150 55 219.51 149.358 264 210 c 2
 545 593 l 2
 558 610 566 628 566 642 c 0
 566 662 555 679 536 703 c 2
 242 1122 l 2
 107.99 1312.99 27 1243 27 1277 c 2
 27 1318 l 1
 37 1322 l 1
 89 1320 221 1318 243 1318 c 0
 254 1318 426 1320 488 1322 c 1
 488 1322 496 1318 497 1318 c 1
 497 1278 l 2
 497 1268 494 1263 487 1263 c 2
 421 1263 l 2
 387 1263 375 1256 375 1242 c 0
 375 1225 391 1198 412 1170 c 2
 655 810 l 2
 666 794 673 787 680 787 c 0
 687 787 695 795 707 812 c 2
 971 1170 l 2
 992 1199 1002 1224 1002 1239 c 0
 1002 1257 987 1263 959 1263 c 2
 896 1263 l 1
 889 1264 882 1267 882 1277 c 2
 882 1318 l 1
 886 1322 l 1
 930 1321 1067 1318 1090 1318 c 0
 1100 1318 1253 1320 1289 1322 c 1
 1294 1318 l 1
 1294 1278 l 2
 1294 1271 1293 1263 1275 1263 c 0
 1150 1263 1105.34 1202.75 1050 1128 c 2
 782 766 l 17
 764 741 756 723 756 705 c 0
 756 684 769 664 789 636 c 2
 1149 148 l 2
EndSplineSet
Validated: 3073
EndChar

StartChar: afii10040
Encoding: 1062 1062 85
Width: 1310
VWidth: 999
Flags: HW
HStem: -4 59<40 183.81> 0 75<356.986 944.149> 1265 59<39 184.617 356.219 501 801 944.954 1115.81 1258>
VStem: 188 165<78.6135 1262.45> 948 165<78.7637 1261.36>
LayerCount: 2
Fore
SplineSet
938 0 m 2
 353 0 l 2
 321 0 290 0 261 0 c 2
 40 -4 l 1
 35 0 l 1
 35 34 l 2
 35 46 44 55 53 55 c 2
 107 55 l 2
 174 57 188 72 188 153 c 2
 188 1171 l 2
 188 1251 176 1265 107 1265 c 2
 46 1265 l 2
 39 1265 35 1268 35 1275 c 2
 35 1320 l 1
 39 1324 l 1
 261 1320 l 1
 501 1324 l 1
 505 1320 l 1
 505 1276 l 2
 505 1269 501 1265 494 1265 c 2
 433 1265 l 2
 367 1265 353 1253 353 1171 c 2
 353 171 l 2
 353 86 369 75 433 75 c 2
 868 75 l 2
 941 75 948 105 948 171 c 2
 948 1171 l 2
 948 1236 945 1264 868 1265 c 2
 807 1265 l 2
 800 1265 796 1268 796 1275 c 2
 796 1320 l 1
 801 1324 l 1
 1021 1320 l 1
 1258 1324 l 1
 1264 1320 l 1
 1264 1276 l 2
 1264 1269 1260 1265 1252 1265 c 2
 1192 1265 l 2
 1117 1264 1113 1240 1113 1171 c 2
 1113 157 l 2
 1113 106 1146 55 1197 55 c 0
 1248 55 1256 32 1257 14 c 2
 1270 -288 l 1
 1215 -288 l 1
 1186 -144 1096 0 938 0 c 2
EndSplineSet
Validated: 3073
EndChar

StartChar: afii10041
Encoding: 1063 1063 86
Width: 1297
VWidth: 2047
Flags: HW
HStem: -4 59<741 905.943 1094.94 1263> 512 119<432.292 748.621> 1265 59<20 188.06 377.057 542 740 908.06 1097.06 1262>
VStem: 199 165<702.392 1253.12> 919 165<67.1816 649 727 1253.13>
LayerCount: 2
Fore
SplineSet
199 1173 m 2
 199 1236 168 1265 87 1265 c 2
 33 1265 l 2
 24 1265 16 1271 16 1282 c 2
 16 1320 l 1
 20 1324 l 1
 20 1324 198 1320 278 1320 c 0
 351 1320 542 1324 542 1324 c 1
 546 1320 l 1
 546 1282 l 2
 546 1271 540 1265 530 1265 c 2
 476 1265 l 2
 392 1265 364 1230 364 1173 c 2
 364 855 l 2
 364 687 450 631 598 631 c 0
 658 631 788 640 919 727 c 1
 919 1175 l 2
 919 1238 888 1265 807 1265 c 2
 753 1265 l 2
 744 1265 736 1271 736 1282 c 2
 736 1320 l 1
 740 1324 l 1
 740 1324 918 1320 998 1320 c 0
 1071 1320 1262 1324 1262 1324 c 1
 1266 1320 l 1
 1266 1282 l 2
 1266 1271 1260 1265 1250 1265 c 2
 1196 1265 l 2
 1112 1265 1084 1232 1084 1175 c 2
 1084 146 l 2
 1084 83 1115 55 1196 55 c 2
 1250 55 l 2
 1259 55 1267 49 1267 38 c 2
 1267 0 l 1
 1263 -4 l 1
 1263 -4 1085 0 1005 0 c 0
 932 0 741 -4 741 -4 c 1
 737 0 l 1
 737 38 l 2
 737 49 743 55 753 55 c 2
 807 55 l 2
 891 55 919 89 919 146 c 2
 919 649 l 1
 770 544 630 512 512 512 c 0
 278 512 199 674 199 877 c 2
 199 1173 l 2
EndSplineSet
Validated: 3073
EndChar

StartChar: afii10042
Encoding: 1064 1064 87
Width: 1972
VWidth: 999
Flags: HW
HStem: -4 59<69 214.151 1758.66 1904> 0 70<411.514 897.802 1072.47 1585.49> 1265 59<39 207.06 394.795 556 728 892.12 1078.8 1240 1416 1580.12 1768.06 1933>
VStem: 218 165<103.235 153 153 1253.13> 902 165<74.0078 171 171 1253.13> 1590 165<73.6316 1253.13>
LayerCount: 2
Fore
SplineSet
1755 1175 m 2
 1755 143 l 2
 1755 72 1772 55 1836 55 c 2
 1897 55 l 2
 1904 55 1908 52 1908 45 c 2
 1908 0 l 1
 1904 -4 l 1
 1669 0 l 1
 368 0 l 1
 69 -4 l 1
 65 0 l 1
 65 45 l 2
 65 52 69 55 76 55 c 2
 137 55 l 2
 206 57 218 73 218 153 c 2
 218 1175 l 2
 218 1238 187 1265 106 1265 c 2
 52 1265 l 2
 43 1265 35 1271 35 1282 c 2
 35 1320 l 1
 39 1324 l 1
 39 1324 217 1320 297 1320 c 0
 370 1320 556 1324 556 1324 c 1
 560 1320 l 1
 560 1282 l 2
 560 1271 554 1265 544 1265 c 2
 495 1265 l 2
 411 1265 383 1232 383 1175 c 2
 383 171 l 2
 383 122 383 100 409 79 c 0
 417 72 435 70 463 70 c 2
 833 70 l 2
 896 70 902 107 902 171 c 2
 902 1175 l 2
 902 1238 871 1265 790 1265 c 2
 741 1265 l 2
 732 1265 724 1271 724 1282 c 2
 724 1320 l 1
 728 1324 l 1
 728 1324 901 1320 981 1320 c 0
 1054 1320 1240 1324 1240 1324 c 1
 1244 1320 l 1
 1244 1282 l 2
 1244 1271 1238 1265 1228 1265 c 2
 1179 1265 l 2
 1095 1265 1067 1232 1067 1175 c 2
 1067 171 l 2
 1067 109 1075 70 1142 70 c 2
 1510 70 l 2
 1577 70 1590 90 1590 171 c 2
 1590 1175 l 2
 1590 1238 1559 1265 1478 1265 c 2
 1429 1265 l 2
 1420 1265 1412 1271 1412 1282 c 2
 1412 1320 l 1
 1416 1324 l 1
 1416 1324 1589 1320 1669 1320 c 0
 1742 1320 1933 1324 1933 1324 c 1
 1937 1320 l 1
 1937 1282 l 2
 1937 1271 1931 1265 1921 1265 c 2
 1867 1265 l 2
 1783 1265 1755 1232 1755 1175 c 2
EndSplineSet
Validated: 3073
EndChar

StartChar: afii10043
Encoding: 1065 1065 88
Width: 1977
VWidth: 999
Flags: HW
HStem: -4 59<69 215.317> 0 70<388.202 897.795 1072.21 1585.75> 1265 59<39 207.06 394.795 556 728 892.12 1078.8 1240 1416 1580.12 1768.06 1933>
VStem: 218 165<107.898 1253.13> 902 165<76.0899 1253.13> 1590 165<73.9014 1253.13>
LayerCount: 2
Fore
SplineSet
383 1175 m 2
 383 171 l 2
 383 109 389 70 463 70 c 2
 817 70 l 2
 894 70 902 97 902 171 c 2
 902 1175 l 2
 902 1238 871 1265 790 1265 c 2
 741 1265 l 2
 732 1265 724 1271 724 1282 c 2
 724 1320 l 1
 728 1324 l 1
 728 1324 901 1320 981 1320 c 0
 1054 1320 1240 1324 1240 1324 c 1
 1244 1320 l 1
 1244 1282 l 2
 1244 1271 1238 1265 1228 1265 c 2
 1179 1265 l 2
 1095 1265 1067 1232 1067 1175 c 2
 1067 171 l 2
 1067 96 1078 70 1165 70 c 2
 1510 70 l 2
 1581 70 1590 97 1590 171 c 2
 1590 1175 l 2
 1590 1238 1559 1265 1478 1265 c 2
 1429 1265 l 2
 1420 1265 1412 1271 1412 1282 c 2
 1412 1320 l 1
 1416 1324 l 1
 1416 1324 1589 1320 1669 1320 c 0
 1742 1320 1933 1324 1933 1324 c 1
 1937 1320 l 1
 1937 1282 l 2
 1937 1271 1931 1265 1921 1265 c 2
 1867 1265 l 2
 1783 1265 1755 1232 1755 1175 c 2
 1755 165 l 2
 1755 85 1806 55 1837 55 c 0
 1873 55 1897 48 1899 13 c 2
 1912 -288 l 1
 1856 -288 l 1
 1842 -198 1764 0 1587 0 c 2
 301 0 l 1
 69 -4 l 1
 65 0 l 1
 65 45 l 2
 65 52 69 55 76 55 c 2
 137 55 l 2
 205 55 218 63 218 143 c 2
 218 1175 l 2
 218 1238 187 1265 106 1265 c 2
 52 1265 l 2
 43 1265 35 1271 35 1282 c 2
 35 1320 l 1
 39 1324 l 1
 39 1324 217 1320 297 1320 c 0
 370 1320 556 1324 556 1324 c 1
 560 1320 l 1
 560 1282 l 2
 560 1271 554 1265 544 1265 c 2
 495 1265 l 2
 411 1265 383 1232 383 1175 c 2
EndSplineSet
Validated: 3073
EndChar

StartChar: afii10044
Encoding: 1066 1066 89
Width: 1470
VWidth: 2047
Flags: HW
HStem: -4 59<365 529.943 716.161 1045.88> 683 80<708 1070.74> 1240 80<232.476 537.275> 1265 59<721.057 886>
VStem: 53 61<970 1062.98> 543 165<67.9574 683 763 1233.65> 1212 183<212.169 545.396>
LayerCount: 2
Fore
SplineSet
708 683 m 1
 708 162 l 2
 708 94 718 57 830 57 c 0
 1141 57 1212 248 1212 374 c 0
 1212 498 1150 683 887 683 c 2
 708 683 l 1
622 1320 m 2
 695 1320 886 1324 886 1324 c 1
 890 1320 l 1
 890 1282 l 2
 890 1271 884 1265 874 1265 c 2
 820 1265 l 2
 736 1265 708 1232 708 1175 c 2
 708 763 l 1
 832 763 l 2
 1335 763 1395 558 1395 374 c 0
 1395 33 1074 -4 826 -4 c 0
 752 -4 689 0 629 0 c 0
 556 0 365 -4 365 -4 c 1
 361 0 l 1
 361 38 l 2
 361 49 367 55 377 55 c 2
 431 55 l 2
 515 55 543 90 543 147 c 2
 543 1155 l 2
 543 1211 520 1240 462 1240 c 2
 335 1240 l 2
 201 1240 132 1048 114 960 c 1
 53 970 l 1
 71 1085 81 1194 85 1320 c 1
 264 1320 622 1320 622 1320 c 2
EndSplineSet
Validated: 3073
EndChar

StartChar: afii10045
Encoding: 1067 1067 90
Width: 1611
VWidth: 2047
Flags: HW
HStem: -4 59<39 205.102 390.161 719.879> -1 59<1047 1211.94 1400.94 1569> 683 80<382 744.74> 1265 59<39 203.943 392.94 561> 1268 59<1046 1214.06 1403.06 1568>
VStem: 217 165<67.9574 683 763 1253.13> 886 183<212.169 545.396> 1225 165<70.1816 1256.13>
LayerCount: 2
Fore
SplineSet
217 1175 m 2
 217 1232 189 1265 105 1265 c 2
 51 1265 l 2
 41 1265 35 1271 35 1282 c 2
 35 1320 l 1
 39 1324 l 1
 39 1324 230 1320 303 1320 c 0
 383 1320 561 1324 561 1324 c 1
 565 1320 l 1
 565 1282 l 2
 565 1271 557 1265 548 1265 c 2
 494 1265 l 2
 413 1265 382 1238 382 1175 c 2
 382 763 l 1
 506 763 l 2
 1009 763 1069 558 1069 374 c 0
 1069 33 748 -4 500 -4 c 0
 426 -4 363 0 303 0 c 0
 245 0 39 -4 39 -4 c 1
 35 0 l 1
 35 38 l 2
 35 49 41 55 51 55 c 2
 105 55 l 2
 189 55 217 90 217 147 c 2
 217 1175 l 2
382 683 m 1
 382 162 l 2
 382 94 392 57 504 57 c 0
 815 57 886 248 886 374 c 0
 886 498 824 683 561 683 c 2
 382 683 l 1
1389 1197 m 2
 1389 147 l 2
 1389 84 1420 58 1501 58 c 2
 1555 58 l 2
 1564 58 1572 52 1572 41 c 2
 1572 3 l 1
 1568 -1 l 1
 1568 -1 1390 3 1310 3 c 0
 1237 3 1046 -1 1046 -1 c 1
 1042 3 l 1
 1042 41 l 2
 1042 52 1048 58 1058 58 c 2
 1112 58 l 2
 1196 58 1224 90 1224 147 c 2
 1224 1197 l 2
 1224 1260 1217 1266 1186 1266 c 2
 1156 1266 l 2
 1147 1266 1139 1272 1139 1283 c 2
 1139 1321 l 1
 1143 1325 l 1
 1143 1325 1223 1321 1303 1321 c 0
 1376 1321 1461 1325 1461 1325 c 1
 1465 1321 l 1
 1465 1283 l 2
 1465 1272 1459 1266 1449 1266 c 2
 1423 1266 l 2
 1389 1266 1389 1254 1389 1197 c 2
EndSplineSet
Validated: 3073
EndChar

StartChar: afii10046
Encoding: 1068 1068 91
Width: 1144
VWidth: 2047
Flags: HW
HStem: -4 59<39 205.102 390.161 719.879> 683 80<382 744.74> 1265 59<39 203.943 392.94 561>
VStem: 217 165<67.9574 683 763 1253.13> 886 183<212.169 545.396>
LayerCount: 2
Fore
SplineSet
217 1175 m 2
 217 1232 189 1265 105 1265 c 2
 51 1265 l 2
 41 1265 35 1271 35 1282 c 2
 35 1320 l 1
 39 1324 l 1
 39 1324 230 1320 303 1320 c 0
 383 1320 561 1324 561 1324 c 1
 565 1320 l 1
 565 1282 l 2
 565 1271 557 1265 548 1265 c 2
 494 1265 l 2
 413 1265 382 1238 382 1175 c 2
 382 763 l 1
 506 763 l 2
 1009 763 1069 558 1069 374 c 0
 1069 33 748 -4 500 -4 c 0
 426 -4 363 0 303 0 c 0
 245 0 39 -4 39 -4 c 1
 35 0 l 1
 35 38 l 2
 35 49 41 55 51 55 c 2
 105 55 l 2
 189 55 217 90 217 147 c 2
 217 1175 l 2
382 683 m 1
 382 162 l 2
 382 94 392 57 504 57 c 0
 815 57 886 248 886 374 c 0
 886 498 824 683 561 683 c 2
 382 683 l 1
EndSplineSet
Validated: 3073
EndChar

StartChar: afii10047
Encoding: 1069 1069 92
Width: 1239
VWidth: 2047
Flags: HMW
HStem: -25 69<397.985 734.303> 559 115<633.081 864.994> 637 101<317.036 580.917> 1272 75<387.272 709.023>
VStem: 967 182<381.688 628 705 941.86>
LayerCount: 2
Fore
SplineSet
967 628 m 1
 855 560 763 559 738 559 c 0
 610 559 522 637 401 637 c 0
 323 637 290 604 274 604 c 0
 266 604 255 611 255 628 c 0
 255 679 385 738 505 738 c 0
 642 738 701 674 820 674 c 0
 878 674 925 687 965 705 c 1
 944 1126 720 1272 554 1272 c 0
 361 1272 200 1105 147 929 c 1
 85 939 l 1
 108 1047 124 1143 130 1255 c 1
 248 1262 356 1347 571 1347 c 0
 910 1347 1149 1126 1149 683 c 0
 1149 231 912 -25 564 -25 c 0
 388 -25 272 39 208 89 c 0
 153 132 110 195 110 250 c 0
 110 303 136 337 173 337 c 0
 231 337 254.975 311.992 277 245 c 0
 325 99 438 44 585 44 c 0
 845 44 964 346 967 628 c 1
EndSplineSet
Validated: 3073
EndChar

StartChar: afii10048
Encoding: 1070 1070 93
Width: 1854
VWidth: 2047
Flags: HW
HStem: -25 70<1054.04 1363.4> -4 59<40 204.943 393.94 562> 625 80<383 583> 1265 59<39 207.06 396.057 561> 1277 70<1002.4 1327.06>
VStem: 218 165<67.1816 625 705 1253.13> 583 188<391.808 625 705 915.719> 1587 187<389.688 939.289>
LayerCount: 2
Fore
SplineSet
1774 674 m 0
 1774 264 1540 -25 1176 -25 c 0
 851 -25 587 228 583 625 c 1
 383 625 l 1
 383 146 l 2
 383 83 414 55 495 55 c 2
 549 55 l 2
 558 55 566 49 566 38 c 2
 566 0 l 1
 562 -4 l 1
 562 -4 384 0 304 0 c 0
 231 0 40 -4 40 -4 c 1
 36 0 l 1
 36 38 l 2
 36 49 42 55 52 55 c 2
 106 55 l 2
 190 55 218 89 218 146 c 2
 218 1175 l 2
 218 1238 187 1265 106 1265 c 2
 52 1265 l 2
 43 1265 35 1271 35 1282 c 2
 35 1320 l 1
 39 1324 l 1
 39 1324 217 1320 297 1320 c 0
 370 1320 561 1324 561 1324 c 1
 565 1320 l 1
 565 1282 l 2
 565 1271 559 1265 549 1265 c 2
 495 1265 l 2
 411 1265 383 1232 383 1175 c 2
 383 705 l 1
 586 705 l 1
 613 1072 853 1347 1174 1347 c 0
 1517 1347 1774 1080 1774 674 c 0
1150 1277 m 0
 978 1277 771 1100 771 670 c 0
 771 276 992 45 1213 45 c 0
 1424 45 1587 268 1587 634 c 0
 1587 1060 1406 1277 1150 1277 c 0
EndSplineSet
Validated: 3073
EndChar

StartChar: afii10049
Encoding: 1071 1071 94
Width: 1149
VWidth: 2047
Flags: HW
HStem: -4 59<23 126.413 586 750.943 939.94 1108> 661 80<581.379 605 605 764> 1265 59<395.412 740.664 935.396 1114>
VStem: 142 165<854.192 1163.45> 764 165<67.1816 661 741 1244.94>
LayerCount: 2
Fore
SplineSet
764 661 m 1
 546 661 516 577 442 368 c 0
 362.724 144.098 303.997 0.193989 157 -2 c 2
 23 -4 l 1
 20 0 l 1
 20 38 l 2
 20 49 27 55 35 55 c 2
 54 55 l 2
 121 55 224 211 332 483 c 0
 365.305 566.88 393 637 447 674 c 1
 308 694 142 789 142 997 c 0
 142 1138 211 1324 592 1324 c 0
 664 1324 784 1320 851 1320 c 0
 916 1320 1114 1324 1114 1324 c 1
 1114 1279 l 2
 1114 1271 1110 1265 1099 1265 c 2
 1038 1265 l 2
 953 1265 929 1245 929 1175 c 2
 929 146 l 2
 929 83 960 55 1041 55 c 2
 1095 55 l 2
 1104 55 1112 49 1112 38 c 2
 1112 0 l 1
 1108 -4 l 1
 1108 -4 930 0 850 0 c 0
 777 0 586 -4 586 -4 c 1
 582 0 l 1
 582 38 l 2
 582 49 588 55 598 55 c 2
 652 55 l 2
 736 55 764 89 764 146 c 2
 764 661 l 1
764 1178 m 2
 764 1245 755 1252 578 1252 c 0
 463 1252 307 1218 307 1029 c 0
 307 812 435 741 605 741 c 2
 764 741 l 1
 764 1178 l 2
EndSplineSet
Validated: 3073
EndChar

StartChar: afii10089
Encoding: 1095 1095 95
Width: 1046
VWidth: 2047
Flags: HW
HStem: -4 59<562 681.582 844.368 962> 298 73<330.371 616.552> 823 59<37 140.376 303.838 421 563 680.072 846.098 983>
VStem: 145 153<403.277 819.382> 686 153<58.6263 388 460 819.843>
LayerCount: 2
Fore
SplineSet
686 725 m 2
 686 804 676 823 603 823 c 2
 571 823 l 2
 564 823 560 826 560 833 c 2
 560 878 l 1
 563 882 l 1
 563 882 678.884 878 753 878 c 0
 842.714 878 983 882 983 882 c 1
 986 878 l 1
 986 834 l 2
 986 827 982 823 974 823 c 2
 922 823 l 2
 853 823 839 808 839 725 c 2
 839 155 l 2
 839 78 848 55 922 55 c 2
 956 55 l 2
 963 55 966 51 966 45 c 2
 966 0 l 1
 962 -4 l 1
 962 -4 841 0 765 0 c 0
 683 0 562 -4 562 -4 c 1
 558 1 l 1
 558 44 l 2
 558 51 562 55 570 55 c 2
 603 55 l 2
 677 55 686 76 686 155 c 2
 686 388 l 1
 606 328 541 298 418 298 c 0
 217 298 145 392 145 608 c 2
 145 727 l 2
 145 805 134 823 62 823 c 2
 46 823 l 2
 39 823 35 826 35 833 c 2
 35 878 l 1
 37 882 l 1
 37 882 146.782 878 217 878 c 0
 296.575 878 421 882 421 882 c 1
 424 878 l 1
 424 835 l 2
 424 827 420 823 412 823 c 2
 381 823 l 2
 312 823 298 803 298 738 c 2
 298 600 l 2
 298 440 314 371 440 371 c 0
 540 371 620 396 686 460 c 1
 686 725 l 2
EndSplineSet
Validated: 3073
EndChar

StartChar: afii10090
Encoding: 1096 1096 96
Width: 1676
VWidth: 2047
Flags: HW
HStem: -4 59<88 209.544 1455.56 1606> 0 70<369.95 750.898 915.634 1294.7> 823 59<67 208.277 368.732 496 625 752.448 913.234 1050 1158 1296.28 1456.73 1587>
VStem: 212 153<74.3997 143 143 819.976> 756 153<74.7471 173 173 819.843> 1300 153<74.8171 727 727 819.976>
CounterMasks: 1 1c
LayerCount: 2
Fore
SplineSet
1453 727 m 2
 1453 141 l 2
 1453 59 1468 55 1537 55 c 2
 1599 55 l 2
 1607 55 1611 50 1611 43 c 2
 1611 0 l 1
 1606 -4 l 1
 1373 0 l 1
 280 0 l 1
 88 -4 l 1
 85 0 l 1
 85 45 l 2
 85 52 89 55 96 55 c 2
 129 55 l 2
 201 55 212 64 212 143 c 2
 212 727 l 2
 212 805 201 823 129 823 c 2
 76 823 l 2
 69 823 65 826 65 833 c 2
 65 878 l 1
 67 882 l 1
 289 878 l 1
 496 882 l 1
 499 878 l 1
 499 835 l 2
 499 827 495 823 487 823 c 2
 448 823 l 2
 379 823 365 810 365 727 c 2
 365 174 l 2
 365 93 377 70 448 70 c 2
 673 70 l 2
 746 70 756 97 756 173 c 2
 756 725 l 2
 756 804 746 823 673 823 c 2
 633 823 l 2
 626 823 622 826 622 833 c 2
 622 878 l 1
 625 882 l 1
 829 878 l 1
 1050 882 l 1
 1053 878 l 1
 1053 834 l 2
 1053 827 1049 823 1041 823 c 2
 992 823 l 2
 923 823 909 808 909 725 c 2
 909 174 l 2
 909 88 933 70 992 70 c 2
 1218 70 l 2
 1294 70 1300 110 1300 174 c 2
 1300 727 l 2
 1300 805 1289 823 1217 823 c 2
 1167 823 l 2
 1160 823 1156 826 1156 833 c 2
 1156 878 l 1
 1158 882 l 1
 1370 878 l 1
 1587 882 l 1
 1590 878 l 1
 1590 835 l 2
 1590 827 1586 823 1578 823 c 2
 1536 823 l 2
 1467 823 1453 810 1453 727 c 2
EndSplineSet
Validated: 3073
EndChar

StartChar: afii10091
Encoding: 1097 1097 97
Width: 1658
VWidth: 2047
Flags: HW
HStem: -4 59<89 209.417> 0 70<369.403 751.453 915.133 1295> 823 59<67 208.277 368.732 496 625 752.448 913.234 1050 1158 1296.28 1456.73 1587>
VStem: 212 153<73.6219 144 144 819.976> 756 153<74.3156 170 170 819.843> 1300 153<74.7325 727 727 819.976>
CounterMasks: 1 1c
LayerCount: 2
Fore
SplineSet
1453 727 m 2
 1453 152 l 2
 1453 100 1480 55 1527 55 c 0
 1555 55 1584 52 1586 14 c 2
 1598 -263 l 1
 1547 -263 l 1
 1522 -162 1467 0 1302 0 c 2
 281 0 l 1
 89 -4 l 1
 85 0 l 1
 85 44 l 2
 85 51 89 55 96 55 c 2
 129 55 l 2
 200 55 212 65 212 144 c 2
 212 727 l 2
 212 805 201 823 129 823 c 2
 76 823 l 2
 69 823 65 826 65 833 c 2
 65 878 l 1
 67 882 l 1
 286 878 l 1
 496 882 l 1
 499 878 l 1
 499 835 l 2
 499 827 495 823 487 823 c 2
 448 823 l 2
 379 823 365 810 365 727 c 2
 365 171 l 2
 365 90 377 70 448 70 c 2
 673 70 l 2
 746 70 756 94 756 170 c 2
 756 725 l 2
 756 804 746 823 673 823 c 2
 633 823 l 2
 626 823 622 826 622 833 c 2
 622 878 l 1
 625 882 l 1
 831 878 l 1
 1050 882 l 1
 1053 878 l 1
 1053 834 l 2
 1053 827 1049 823 1041 823 c 2
 992 823 l 2
 923 823 909 808 909 725 c 2
 909 171 l 2
 909 85 934 70 993 70 c 2
 1217 70 l 2
 1293 70 1300 104 1300 173 c 2
 1300 727 l 2
 1300 805 1289 823 1217 823 c 2
 1167 823 l 2
 1160 823 1156 826 1156 833 c 2
 1156 878 l 1
 1158 882 l 1
 1367 878 l 1
 1587 882 l 1
 1590 878 l 1
 1590 835 l 2
 1590 827 1586 823 1578 823 c 2
 1536 823 l 2
 1467 823 1453 810 1453 727 c 2
EndSplineSet
Validated: 3073
EndChar

StartChar: afii10092
Encoding: 1098 1098 98
Width: 1101
VWidth: 2047
Flags: HW
HStem: -4 59<263.63 392.629 565.721 826.847> 459 65<554 827.058> 802 76<189.005 397.699> 823 59<556.422 706>
VStem: 54 55<573 754.274> 401 153<72.4921 459 524 800.693> 883 153<124.795 400.343>
LayerCount: 2
Fore
SplineSet
401 147 m 2
 401 711 l 2
 401 786 387 802 341 802 c 0
 175 802 144 731 109 564 c 1
 54 573 l 1
 67 667 75 760 78 878 c 1
 479 878 l 1
 706 882 l 1
 711 878 l 1
 711 831 l 2
 711 824 707 823 700 823 c 2
 637 823 l 2
 562 823 554 807 554 735 c 2
 554 524 l 1
 672 524 l 2
 868 524 1036 472 1036 278 c 0
 1036 106 911 -4 681 -4 c 2
 681 -4 554.745 0 474 0 c 0
 391.306 0 262 -4 262 -4 c 1
 258 0 l 1
 258 38 l 2
 258 49 264 55 274 55 c 2
 313 55 l 2
 382 55 401 89 401 147 c 2
883 258 m 0
 883 366 838 459 692 459 c 2
 554 459 l 1
 554 159 l 2
 554 86 589 59 684 59 c 0
 786 59 883 90 883 258 c 0
EndSplineSet
Validated: 3073
EndChar

StartChar: afii10093
Encoding: 1099 1099 99
Width: 1396
VWidth: 2047
Flags: HW
HStem: -4 59<79.6297 208.629 378.766 642.64 900 1030.48 1203.06 1332> 459 65<370 643.058> 822 59<78 208.483 376.915 510> 823 59<900 1030.48 1198.92 1332>
VStem: 217 153<70.1222 459 524 815.339> 699 153<124.795 400.343> 1039 153<62.0094 816.339>
LayerCount: 2
Fore
SplineSet
1039 733 m 2
 1039 791 1020 823 951 823 c 2
 912 823 l 2
 902 823 896 829 896 840 c 2
 896 878 l 1
 900 882 l 1
 900 882 1039 878 1112 878 c 0
 1192 878 1332 882 1332 882 c 1
 1336 878 l 1
 1336 840 l 2
 1336 829 1328 823 1319 823 c 2
 1280 823 l 2
 1213 823 1192 791 1192 733 c 2
 1192 147 l 2
 1192 89 1213 55 1280 55 c 2
 1319 55 l 2
 1328 55 1336 49 1336 38 c 2
 1336 0 l 1
 1332 -4 l 1
 1332 -4 1192 0 1112 0 c 0
 1039 0 900 -4 900 -4 c 1
 896 0 l 1
 896 38 l 2
 896 49 902 55 912 55 c 2
 951 55 l 2
 1020 55 1039 89 1039 147 c 2
 1039 733 l 2
699 258 m 0
 699 366 654 459 508 459 c 2
 370 459 l 1
 370 152 l 2
 370 79 405 59 500 59 c 0
 602 59 699 90 699 258 c 0
217 147 m 2
 217 732 l 2
 217 790 198 822 129 822 c 2
 90 822 l 2
 80 822 74 828 74 839 c 2
 74 877 l 1
 78 881 l 1
 78 881 217 878 290 878 c 0
 370 878 510 881 510 881 c 1
 514 877 l 1
 514 839 l 2
 514 828 506 822 497 822 c 2
 458 822 l 2
 391 822 370 790 370 732 c 2
 370 524 l 1
 488 524 l 2
 684 524 852 472 852 278 c 0
 852 106 726 -4 497 -4 c 0
 416.255 -4 370.745 0 290 0 c 0
 207.306 0 78 -4 78 -4 c 1
 74 0 l 1
 74 38 l 2
 74 49 80 55 90 55 c 2
 129 55 l 2
 198 55 217 89 217 147 c 2
EndSplineSet
Validated: 3073
EndChar

StartChar: afii10094
Encoding: 1100 1100 100
Width: 917
VWidth: 2047
Flags: HW
HStem: -4 59<79.6297 208.629 378.766 642.64> 459 65<370 643.058> 822 59<78 208.483 376.915 510>
VStem: 217 153<70.1222 459 524 815.339> 699 153<124.795 400.343>
LayerCount: 2
Fore
SplineSet
699 258 m 0
 699 366 654 459 508 459 c 2
 370 459 l 1
 370 152 l 2
 370 79 405 59 500 59 c 0
 602 59 699 90 699 258 c 0
217 147 m 2
 217 732 l 2
 217 790 198 822 129 822 c 2
 90 822 l 2
 80 822 74 828 74 839 c 2
 74 877 l 1
 78 881 l 1
 78 881 217 878 290 878 c 0
 370 878 510 881 510 881 c 1
 514 877 l 1
 514 839 l 2
 514 828 506 822 497 822 c 2
 458 822 l 2
 391 822 370 790 370 732 c 2
 370 524 l 1
 488 524 l 2
 684 524 852 472 852 278 c 0
 852 106 726 -4 497 -4 c 0
 416.255 -4 370.745 0 290 0 c 0
 207.306 0 78 -4 78 -4 c 1
 74 0 l 1
 74 38 l 2
 74 49 80 55 90 55 c 2
 129 55 l 2
 198 55 217 89 217 147 c 2
EndSplineSet
Validated: 3073
EndChar

StartChar: afii10095
Encoding: 1101 1101 101
Width: 890
VWidth: 2047
Flags: HMW
HStem: -25 63<255.706 506.28> 200 32 369 99<329.923 621.753> 413 94<183.077 215.269 199.173 397.005> 841 64<233.827 498.405>
VStem: 644 156<237.963 425.189 482.862 662.294>
LayerCount: 2
Fore
SplineSet
641 483 m 1
 627 633 557 841 373 841 c 0
 208 841 165 724 137 600 c 1
 82 609 l 1
 94 699 100 769 105 880 c 1
 248 880 247 905 394 905 c 0
 646 905 800 687 800 461 c 0
 800 139 582 -25 365 -25 c 0
 196 -25 75 65 75 173 c 0
 75 201 100 232 137 232 c 0
 159 232 204 224 216 156 c 0
 228.171 87.03 291 38 378 38 c 0
 571 38 643 267 644 425 c 1
 599 401 531 369 466 369 c 0
 377 369 318 424 246 424 c 0
 221 424 200 413 185 413 c 0
 172 413 169 433 169 441 c 0
 169 471 262 507 351 507 c 0
 442 507 477 468 556 468 c 0
 588 468 617 474 641 483 c 1
EndSplineSet
Validated: 3073
EndChar

StartChar: afii10096
Encoding: 1102 1102 102
Width: 1405
VWidth: 2047
Flags: HW
HStem: -25 73<853.511 1081.58> -4 59<59 189.483 362.064 491> 406 80<351 548> 823 59<59 189.483 357.915 491> 837 68<815.76 1042.32>
VStem: 198 153<62.0094 406 486 816.339> 548 162<232.235 406 486 673.143> 1170 160<217.974 673.337>
LayerCount: 2
Fore
SplineSet
920 837 m 0
 768 837 710 641 710 462 c 0
 710 305 780 48 972 48 c 0
 1056 48 1170 108 1170 378 c 0
 1170 678 1080 837 920 837 c 0
551 486 m 1
 572 730 704 905 940 905 c 0
 1234 905 1330 657 1330 444 c 0
 1330 239 1222 -25 938 -25 c 0
 676 -25 552 198 548 406 c 1
 351 406 l 1
 351 147 l 2
 351 89 372 55 439 55 c 2
 478 55 l 2
 487 55 495 49 495 38 c 2
 495 0 l 1
 491 -4 l 1
 491 -4 351 0 271 0 c 0
 198 0 59 -4 59 -4 c 1
 55 0 l 1
 55 38 l 2
 55 49 61 55 71 55 c 2
 110 55 l 2
 179 55 198 89 198 147 c 2
 198 733 l 2
 198 791 179 823 110 823 c 2
 71 823 l 2
 61 823 55 829 55 840 c 2
 55 878 l 1
 59 882 l 1
 59 882 198 878 271 878 c 0
 351 878 491 882 491 882 c 1
 495 878 l 1
 495 840 l 2
 495 829 487 823 478 823 c 2
 439 823 l 2
 372 823 351 791 351 733 c 2
 351 486 l 1
 551 486 l 1
EndSplineSet
Validated: 3073
EndChar

StartChar: afii10097
Encoding: 1103 1103 103
Width: 880
VWidth: 2047
Flags: HW
HStem: -4 59<40 133.699 440.292 440.32 440.32 550.558 710.296 808.699 808.699 814.996> 400 71<415.236 553> 823 59<287.817 551.067 708.198 811>
VStem: 89 153<525.285 764.789> 553 153<88.7966 400 471 820.343>
LayerCount: 2
Fore
SplineSet
553 471 m 1
 553 750 l 2
 553 815 539 823 459 823 c 0
 282 823 242 753 242 658 c 0
 242 555 299 471 415 471 c 2
 553 471 l 1
226 278 m 0
 258 362 302 405 358 418 c 1
 245 418 89 489 89 635 c 0
 89 693.619 114 882 464 882 c 0
 621.21 882 566.461 878 632 878 c 0
 701.827 878 811 882 811 882 c 1
 815 878 l 1
 815 830 l 2
 815 826 813 823 808 823 c 2
 757 823 l 2
 706 823 706 805 706 762 c 2
 706 156 l 2
 706 102 712 55 750 55 c 2
 794 55 l 2
 810 55 815 40 815 37 c 2
 815 -4 l 1
 815 -4 701.557 0 629 0 c 0
 554.884 0 439 -4 439 -4 c 1
 439 41 l 2
 439 49 443 55 451 55 c 2
 481 55 l 2
 550 55 553 76 553 156 c 2
 553 400 l 1
 497 400 l 2
 416 400 367 296 325 172 c 0
 296.595 88.1362 236 -1 171 -2 c 2
 40 -4 l 1
 35 0 l 1
 35 38 l 2
 35 53 47 55 56 55 c 2
 71 55 l 2
 132 55 196.709 201.11 226 278 c 0
EndSplineSet
Validated: 3073
EndChar

StartChar: uni04AE
Encoding: 1198 1198 104
Width: 1177
VWidth: 2047
Flags: HW
HStem: -4 59<342 506.943 695.94 864> 1265 59<3 100.655 343.217 454 807 807.117 807.117 920.416 1018.76 1173.88 1173.88 1174>
VStem: 520 165<66.8792 576>
DStem2: 359 1179 172 1175 0.502344 -0.864668<0 558.711> 645 699 685 600 0.468593 0.883414<0 545.873>
LayerCount: 2
Fore
SplineSet
520 147 m 2
 520 576 l 1
 172 1175 l 2
 150 1216 132 1239 104 1256 c 0
 95 1262 75 1265 46 1265 c 2
 21 1265 l 1
 14 1266 0 1268 0 1280 c 2
 0 1321 l 1
 3 1324 l 1
 3 1324 193 1320 220 1320 c 0
 232 1320 454 1324 454 1324 c 1
 457 1321 l 1
 457 1282 l 2
 457 1274 453 1265 444 1265 c 2
 386 1265 l 2
 347 1265 334 1258 334 1239 c 0
 334 1226 342 1208 359 1179 c 2
 645 699 l 1
 905 1179 l 2
 921 1209 928 1227 928 1238 c 0
 928 1260 918 1265 876 1265 c 2
 816 1265 l 2
 806 1266 804 1273 804 1280 c 2
 804 1320 l 1
 807 1324 l 1
 807 1324 969 1320 995 1320 c 0
 1013 1320 1174 1324 1174 1324 c 1
 1177 1321 l 1
 1177 1281 l 2
 1177 1270 1170 1265 1158 1265 c 2
 1114 1265 l 2
 1053 1265 1025.42 1241.78 990 1175 c 2
 685 600 l 1
 685 147 l 2
 685 84 716 55 797 55 c 2
 851 55 l 2
 860 55 868 49 868 38 c 2
 868 0 l 1
 864 -4 l 1
 864 -4 686 0 606 0 c 0
 533 0 342 -4 342 -4 c 1
 338 0 l 1
 338 38 l 2
 338 49 344 55 354 55 c 2
 408 55 l 2
 492 55 520 90 520 147 c 2
EndSplineSet
Validated: 3073
EndChar

StartChar: uni04C0
Encoding: 1216 1216 105
Width: 601
VWidth: 2047
Flags: HW
HStem: -4 59<40 204.943 393.94 562> 1265 59<39 207.06 396.057 561>
VStem: 218 165<67.1816 1253.13>
LayerCount: 2
Fore
SplineSet
382 1194 m 2
 382 144 l 2
 382 81 413 55 494 55 c 2
 548 55 l 2
 557 55 565 49 565 38 c 2
 565 0 l 1
 561 -4 l 1
 561 -4 383 0 303 0 c 0
 230 0 39 -4 39 -4 c 1
 35 0 l 1
 35 38 l 2
 35 49 41 55 51 55 c 2
 105 55 l 2
 189 55 217 87 217 144 c 2
 217 1194 l 2
 217 1257 210 1263 179 1263 c 2
 149 1263 l 2
 140 1263 132 1269 132 1280 c 2
 132 1318 l 1
 136 1322 l 1
 136 1322 216 1318 296 1318 c 0
 369 1318 454 1322 454 1322 c 1
 458 1318 l 1
 458 1280 l 2
 458 1269 452 1263 442 1263 c 2
 416 1263 l 2
 382 1263 382 1251 382 1194 c 2
EndSplineSet
Validated: 3073
EndChar

StartChar: uni04D0
Encoding: 1232 1232 106
Width: 1280
VWidth: 2047
Flags: HW
HStem: -4 59<9 9.09515 9.09515 154.594 278.891 444.853 444.853 445 898 898.145 898.145 1061.1 1261.95 1335.49 1335.49 1406> 500 80<485.064 896> 1327 20<718.5 747> 1429 63<634.523 839.14>
VStem: 480 142<1508.65 1645.48> 848 142<1506.73 1616.09>
DStem2: 195 166 287 147 0.392235 0.919865<18.6082 1078.8> 799 1287 694 1126 0.353155 -0.935565<113.545 1157.3>
LayerCount: 2
Fore
SplineSet
909 1588 m 0
 909 1480 782 1429 652 1429 c 0
 517 1429 399 1478 399 1586 c 0
 399 1631 423 1649 478 1649 c 0
 522 1649 543 1616 543 1585 c 0
 543 1581.8 541 1570.6 541 1569 c 0
 541 1528 588 1492 654 1492 c 0
 716 1492 767 1521 767 1567 c 0
 767 1568.9 765 1582.2 765 1586 c 0
 765 1615 784 1649 830 1649 c 0
 885 1649 909 1628 909 1588 c 0
863 344 m 1
 405 344 l 2
 381 344 363.667 341.167 353 335.5 c 128
 342.333 329.833 334.667 320.667 330 308 c 2
 270 148 l 2
 260 122.667 255 104.667 255 94 c 0
 255 79.333 264 69.833 282 65.5 c 128
 300 61.167 328.667 59 368 59 c 2
 404 59 l 2
 415.333 59 421 53.333 421 42 c 2
 421 4 l 1
 417 0 l 1
 317.667 2.66699 241.333 4 188 4 c 2
 39 -1 l 1
 5 4 l 1
 5 42 l 2
 5 53.333 10.333 59 21 59 c 0
 64.333 59 96.833 65.167 118.5 77.5 c 128
 140.167 89.833 157.667 113.333 171 148 c 2
 602 1302 l 2
 614 1333.33 630.667 1349 652 1349 c 0
 672.667 1349 688.667 1333 700 1301 c 2
 1103 152 l 2
 1116.33 114 1134.83 89 1158.5 77 c 128
 1182.17 65 1213.33 59 1252 59 c 0
 1263.33 59 1269 53.333 1269 42 c 2
 1269 4 l 1
 1265 0 l 1
 1159 2.66699 1079.33 4 1026 4 c 2
 771 0 l 1
 767 4 l 1
 767 42 l 2
 767 53.333 772.333 59 783 59 c 2
 838 59 l 2
 904.667 59 938 76.333 938 111 c 0
 938 119 935 132.667 929 152 c 2
 863 344 l 1
835 424 m 1
 674 882 l 1
 609 1060 l 1
 547 887 l 1
 387 460 l 2
 384.333 453.333 383 447.667 383 443 c 0
 383 430.333 400.667 424 436 424 c 2
 835 424 l 1
EndSplineSet
Validated: 3073
LCarets2: 1 0 
EndChar

StartChar: uni04D1
Encoding: 1233 1233 107
Width: 1001
VWidth: 2047
Flags: HW
HStem: -25 84<269.368 486.944> -25 99<701.385 846.22> 843 62<277.621 525.78> 1002 62<341.442 516.704>
VStem: 80 148<102.017 353.644> 102 163<608.068 703.666 656.2 781.051> 181 145<1077.88 1204.9 1169.27 1240.87> 531 146<1078.01 1205.21 1169.23 1241.72> 596 151<164 502 570 762.819> 857 50<100.338 169.35>
DStem2: 408 523 435 460 0.970142 0.242536<-157.599 177.294>
LayerCount: 2
Fore
SplineSet
718 1181 m 0
 718 1069 598 1002 468 1002 c 0
 334 1002 222 1069 222 1179 c 0
 222 1217 254 1247 301 1247 c 0
 346 1247 371 1219 371 1186 c 0
 371 1180 370.6 1174.87 369 1169 c 0
 367.501 1163.5 367 1157 367 1152 c 0
 367 1107 408 1064 470 1064 c 0
 529 1064 572 1106 572 1151 c 0
 572 1157 572 1162.5 570 1169 c 0
 568.501 1173.87 568 1178 568 1183 c 0
 568 1218 602 1247 639 1247 c 0
 688 1247 718 1221 718 1181 c 0
670 688 m 1
 610 786 539.333 835 458 835 c 0
 378.667 835 316.833 800.833 272.5 732.5 c 128
 228.167 664.167 206 575 206 465 c 0
 206 405.667 212.667 352.333 226 305 c 128
 239.333 257.667 256.333 219.333 277 190 c 128
 297.667 160.667 321.667 136.333 349 117 c 128
 376.333 97.667 402.833 84.167 428.5 76.5 c 128
 454.167 68.833 480 65 506 65 c 0
 574.667 65 629.333 80 670 110 c 1
 670 688 l 1
670 42 m 1
 615.333 -2.66699 544.333 -25 457 -25 c 0
 400.333 -25 348.667 -15.5 302 3.5 c 128
 255.333 22.5 216.667 47.333 186 78 c 128
 155.333 108.667 129.5 144 108.5 184 c 128
 87.5 224 72.5 264 63.5 304 c 128
 54.5 344 50 384 50 424 c 0
 50 514 67 595.333 101 668 c 128
 135 740.667 184 798.333 248 841 c 128
 312 883.667 384.667 905 466 905 c 0
 570 905 655.333 875.667 722 817 c 1
 753 867 l 2
 769.667 892.333 784.333 905 797 905 c 0
 814.333 905 823 888.333 823 855 c 2
 823 245 l 2
 823 189 825.667 153 831 137 c 0
 833.667 128.333 839.5 121.167 848.5 115.5 c 128
 857.5 109.833 866.667 107 876 107 c 0
 922.667 107 956.333 108.667 977 112 c 1
 985 56 l 1
 912.333 42.667 854.333 30 811 18 c 128
 767.667 6 736 -8.33301 716 -25 c 1
 667 -25 l 1
 670 42 l 1
EndSplineSet
Validated: 3073
LCarets2: 1 0 
EndChar

StartChar: uni04D2
Encoding: 1234 1234 108
Width: 1280
VWidth: 2047
Flags: HW
HStem: -4 59<9 9.09515 9.09515 154.594 278.891 444.853 444.853 445 898 898.145 898.145 1061.1 1261.95 1335.49 1335.49 1406> 500 80<485.064 896> 1327 20<718.5 747> 1458 186<488.548 647.452 817.548 976.452>
VStem: 475 186<1471.55 1630.45> 804 186<1471.55 1630.45>
DStem2: 195 166 287 147 0.392235 0.919865<18.6082 1078.8> 799 1287 694 1126 0.353155 -0.935565<113.545 1157.3>
LayerCount: 2
Fore
SplineSet
727 1551 m 0
 727 1602 769 1644 820 1644 c 0
 871 1644 913 1602 913 1551 c 0
 913 1500 871 1458 820 1458 c 0
 769 1458 727 1500 727 1551 c 0
398 1551 m 0
 398 1602 440 1644 491 1644 c 0
 542 1644 584 1602 584 1551 c 0
 584 1500 542 1458 491 1458 c 0
 440 1458 398 1500 398 1551 c 0
863 344 m 1
 405 344 l 2
 381 344 363.667 341.167 353 335.5 c 128
 342.333 329.833 334.667 320.667 330 308 c 2
 270 148 l 2
 260 122.667 255 104.667 255 94 c 0
 255 79.333 264 69.833 282 65.5 c 128
 300 61.167 328.667 59 368 59 c 2
 404 59 l 2
 415.333 59 421 53.333 421 42 c 2
 421 4 l 1
 417 0 l 1
 317.667 2.66699 241.333 4 188 4 c 2
 39 -1 l 1
 5 4 l 1
 5 42 l 2
 5 53.333 10.333 59 21 59 c 0
 64.333 59 96.833 65.167 118.5 77.5 c 128
 140.167 89.833 157.667 113.333 171 148 c 2
 602 1302 l 2
 614 1333.33 630.667 1349 652 1349 c 0
 672.667 1349 688.667 1333 700 1301 c 2
 1103 152 l 2
 1116.33 114 1134.83 89 1158.5 77 c 128
 1182.17 65 1213.33 59 1252 59 c 0
 1263.33 59 1269 53.333 1269 42 c 2
 1269 4 l 1
 1265 0 l 1
 1159 2.66699 1079.33 4 1026 4 c 2
 771 0 l 1
 767 4 l 1
 767 42 l 2
 767 53.333 772.333 59 783 59 c 2
 838 59 l 2
 904.667 59 938 76.333 938 111 c 0
 938 119 935 132.667 929 152 c 2
 863 344 l 1
835 424 m 1
 674 882 l 1
 609 1060 l 1
 547 887 l 1
 387 460 l 2
 384.333 453.333 383 447.667 383 443 c 0
 383 430.333 400.667 424 436 424 c 2
 835 424 l 1
EndSplineSet
Validated: 3073
LCarets2: 1 0 
EndChar

StartChar: uni04D3
Encoding: 1235 1235 109
Width: 1001
VWidth: 2047
Flags: HW
HStem: -25 84<269.368 486.944> -25 99<701.385 846.22> 843 62<277.621 525.78> 1079 186<193.548 352.452 522.548 681.452>
VStem: 80 148<102.017 353.644> 102 163<608.068 703.666 656.2 781.051> 180 186<1092.55 1251.45> 509 186<1092.55 1251.45> 596 151<164 502 570 762.819> 857 50<100.338 169.35>
DStem2: 408 523 435 460 0.970142 0.242536<-157.599 177.294>
LayerCount: 2
Fore
SplineSet
547 1172 m 0
 547 1223 589 1265 640 1265 c 0
 691 1265 733 1223 733 1172 c 0
 733 1121 691 1079 640 1079 c 0
 589 1079 547 1121 547 1172 c 0
218 1172 m 0
 218 1223 260 1265 311 1265 c 0
 362 1265 404 1223 404 1172 c 0
 404 1121 362 1079 311 1079 c 0
 260 1079 218 1121 218 1172 c 0
670 688 m 1
 610 786 539.333 835 458 835 c 0
 378.667 835 316.833 800.833 272.5 732.5 c 128
 228.167 664.167 206 575 206 465 c 0
 206 405.667 212.667 352.333 226 305 c 128
 239.333 257.667 256.333 219.333 277 190 c 128
 297.667 160.667 321.667 136.333 349 117 c 128
 376.333 97.667 402.833 84.167 428.5 76.5 c 128
 454.167 68.833 480 65 506 65 c 0
 574.667 65 629.333 80 670 110 c 1
 670 688 l 1
670 42 m 1
 615.333 -2.66699 544.333 -25 457 -25 c 0
 400.333 -25 348.667 -15.5 302 3.5 c 128
 255.333 22.5 216.667 47.333 186 78 c 128
 155.333 108.667 129.5 144 108.5 184 c 128
 87.5 224 72.5 264 63.5 304 c 128
 54.5 344 50 384 50 424 c 0
 50 514 67 595.333 101 668 c 128
 135 740.667 184 798.333 248 841 c 128
 312 883.667 384.667 905 466 905 c 0
 570 905 655.333 875.667 722 817 c 1
 753 867 l 2
 769.667 892.333 784.333 905 797 905 c 0
 814.333 905 823 888.333 823 855 c 2
 823 245 l 2
 823 189 825.667 153 831 137 c 0
 833.667 128.333 839.5 121.167 848.5 115.5 c 128
 857.5 109.833 866.667 107 876 107 c 0
 922.667 107 956.333 108.667 977 112 c 1
 985 56 l 1
 912.333 42.667 854.333 30 811 18 c 128
 767.667 6 736 -8.33301 716 -25 c 1
 667 -25 l 1
 670 42 l 1
EndSplineSet
Validated: 3073
LCarets2: 1 0 
EndChar

StartChar: uni04D4
Encoding: 1236 1236 110
Width: 1772
VWidth: 2047
Flags: HW
HStem: -4 59<8 8.08218 8.08218 166.625 279.423 404.904 404.904 405 700.138 867.967> 0 80<1050.97 1525.57> 544 80<554 878> 673 70<1048 1345.09> 1240 80<1057.64 1462.02> 1265 59<606 713.803>
VStem: 878 170<84.2764 544 624 673 743 1223.49> 1373 69<512 583 834 908.994>
DStem2: 194 144 296 140 0.471137 0.88206<44.5278 1172.82>
LayerCount: 2
Fore
SplineSet
554 624 m 1
 878 624 l 1
 878 1178 l 2
 878 1203 878 1213 875 1224 c 1
 554 624 l 1
965 0 m 2
 890 0 700 -4 700 -4 c 1
 696 0 l 1
 696 36 l 2
 696 47 702 55 712 55 c 2
 766 55 l 2
 850 55 878 90 878 147 c 2
 878 544 l 1
 512 544 l 1
 296 140 l 2
 277 104 270 89 270 78 c 0
 270 60 287 55 336 55 c 2
 396 55 l 2
 404 55 408 48 408 43 c 2
 408 0 l 1
 405 -4 l 1
 405 -4 273 0 193 0 c 0
 121 0 8 -4 8 -4 c 1
 5 0 l 1
 5 39 l 2
 5 49 13 55 25 55 c 2
 71 55 l 2
 130 55 155 71 194 144 c 2
 740 1182 l 2
 746 1193 748 1202 748 1211 c 0
 748 1244 713 1265 682 1265 c 2
 618 1265 l 2
 606 1265 602 1271 602 1279 c 2
 602 1320 l 1
 606 1324 l 1
 966 1320 l 1
 1125 1320 l 1
 1580 1320 l 1
 1589 1211 1607 1090 1623 1006 c 1
 1563 996 l 1
 1518 1137 1482 1240 1328 1240 c 2
 1122 1240 l 2
 1073 1240 1048 1197 1048 1148 c 2
 1048 743 l 1
 1258 743 l 2
 1330 743 1347.92 777.018 1361 834 c 2
 1375 895 l 2
 1376 904 1382 912 1390 912 c 2
 1435 912 l 2
 1440 912 1442 908 1442 903 c 0
 1435 852 1426 777 1426 708 c 0
 1426 638 1437 547 1442 512 c 1
 1437 505 l 1
 1390 505 l 2
 1379 505 1374 513 1373 520 c 2
 1361 583 l 2
 1349.77 641.957 1327 673 1258 673 c 2
 1048 673 l 1
 1048 151 l 2
 1048 97 1077 80 1122 80 c 2
 1391 80 l 2
 1547 80 1607 204 1648 352 c 1
 1710 342 l 1
 1687 236 1665 114 1656 0 c 1
 965 0 l 2
EndSplineSet
Validated: 3073
EndChar

StartChar: uni04D5
Encoding: 1237 1237 111
Width: 1409
VWidth: 2047
Flags: HW
HStem: 447 64<762 1064.86> 843 62<269.75 489.163 882.998 1120.84>
VStem: 80 148<110.091 320.453> 102 163<655.01 707.667 681.649 798.567> 611 148<241.68 440 519 689.09> 1172 156<599.134 783.539>
LayerCount: 2
Fore
SplineSet
543 792 m 0
 511 824 467 843 424 843 c 0
 345 843 251 813 251 750 c 0
 251 730 254 714 258 708 c 0
 262 701 265 687 265 671 c 0
 265 640 236 604 185 604 c 0
 120 604 102 656 102 696 c 0
 102 816 262 905 430 905 c 0
 480 905 636 899 712 761 c 1
 780 854 887 905 1004 905 c 0
 1238 905 1328 770 1328 700 c 0
 1328 535 1209 472 759 447 c 1
 760 230 887 76 1040 76 c 0
 1152 76 1216 116 1278 189 c 1
 1312 168 l 1
 1254 58 1147 -25 1011 -25 c 0
 826 -25 738 65 696 117 c 1
 636 33 522 -25 410 -25 c 0
 194 -25 80 74 80 213 c 0
 80 406 263 488 611 511 c 1
 608 673 588 747 543 792 c 0
611 440 m 1
 354 419 228 327 228 223 c 0
 228 132 282 62 413 62 c 0
 487 62 557.752 101.084 592 202 c 0
 604.907 240.032 610 337 611 440 c 1
762 519 m 1
 1048 534 1172 570 1172 695 c 0
 1172 760 1100 835 1002 835 c 0
 862 835 779 693 762 519 c 1
EndSplineSet
Validated: 3073
EndChar

StartChar: uni04D6
Encoding: 1238 1238 112
Width: 1167
VWidth: 2047
Flags: HW
HStem: -4 59<28 199.047> 0 80<375.074 920.566> 669 70<373 740.095> 1240 80<375.211 857.022> 1265 59<29 200.021> 1429 63<460.523 665.14>
VStem: 208 165<82.875 669 739 1236.87> 306 142<1508.65 1645.48> 674 142<1506.73 1616.09> 768 69<508 579 830 904.994>
LayerCount: 2
Fore
SplineSet
816 1588 m 0
 816 1480 689 1429 559 1429 c 0
 424 1429 306 1478 306 1586 c 0
 306 1631 330 1649 385 1649 c 0
 429 1649 450 1616 450 1585 c 0
 450 1581.8 448 1570.6 448 1569 c 0
 448 1528 495 1492 561 1492 c 0
 623 1492 674 1521 674 1567 c 0
 674 1568.9 672 1582.2 672 1586 c 0
 672 1615 691 1649 737 1649 c 0
 792 1649 816 1628 816 1588 c 0
723 1240 m 2
 447 1240 l 2
 398 1240 373 1222 373 1173 c 2
 373 739 l 1
 653 739 l 2
 725 739 742.922 773.018 756 830 c 2
 770 891 l 2
 771 900 777 908 785 908 c 2
 830 908 l 2
 835 908 837 904 837 899 c 0
 830 848 821 773 821 704 c 0
 821 634 832 543 837 508 c 1
 832 501 l 1
 785 501 l 2
 774 501 769 509 768 516 c 2
 756 579 l 2
 744.77 637.957 722 669 653 669 c 2
 373 669 l 1
 373 147 l 2
 373 93 402 80 447 80 c 2
 786 80 l 2
 942 80 1002 200 1043 348 c 1
 1105 338 l 1
 1082 232 1060 114 1051 0 c 1
 290 0 l 1
 28 -4 l 1
 25 0 l 1
 25 41 l 2
 25 48 28 55 41 55 c 2
 102 55 l 2
 184 55 208 90 208 147 c 2
 208 1173 l 2
 208 1237 180 1265 102 1265 c 2
 41 1265 l 2
 27 1265 25 1274 25 1279 c 2
 25 1320 l 1
 29 1324 l 1
 291 1320 l 1
 975 1320 l 1
 984 1211 1002 1090 1018 1006 c 1
 958 996 l 1
 913 1137 877 1240 723 1240 c 2
EndSplineSet
Validated: 3073
LCarets2: 1 0 
EndChar

StartChar: uni04D7
Encoding: 1239 1239 113
Width: 957
VWidth: 2047
Flags: HW
HStem: -25 101<384.041 652.941> 487 80<234 632.024> 835 70<379.618 573.516> 1003 62<370.442 545.704>
VStem: 70 155<258.044 562.935 567 639.386> 210 145<1078.88 1205.9 1170.27 1241.87> 560 146<1079.01 1206.21 1170.23 1242.72> 640 163<536.851 741.299>
LayerCount: 2
Fore
SplineSet
706 1182 m 0
 706 1070 586 1003 456 1003 c 0
 322 1003 210 1070 210 1180 c 0
 210 1218 242 1248 289 1248 c 0
 334 1248 359 1220 359 1187 c 0
 359 1181 358.6 1175.87 357 1170 c 0
 355.501 1164.5 355 1158 355 1153 c 0
 355 1108 396 1065 458 1065 c 0
 517 1065 560 1107 560 1152 c 0
 560 1158 560 1163.5 558 1170 c 0
 556.501 1174.87 556 1179 556 1184 c 0
 556 1219 590 1248 627 1248 c 0
 676 1248 706 1222 706 1182 c 0
234 567 m 1
 610 567 l 2
 630 567 640 577 640 595 c 0
 640 786 542 835 468 835 c 0
 421 835 268 817 234 567 c 1
766 487 m 1
 227 487 l 1
 226 476 225 463 225 446 c 0
 225 238 370 76 519 76 c 0
 631 76 703 113 774 191 c 1
 815 157 l 1
 738 51 616 -25 470 -25 c 0
 188 -25 70 185 70 408 c 0
 70 719 275 905 470 905 c 0
 715.51 905 790.26 730.073 802 568 c 1
 913 568 l 2
 923 568 929 564 929 556 c 2
 929 514 l 2
 929 495 901 487 881 487 c 2
 766 487 l 1
EndSplineSet
Validated: 3073
LCarets2: 1 0 
EndChar

StartChar: uni04D8
Encoding: 1240 1240 114
Width: 1319
VWidth: 2047
Flags: HW
HStem: -25 70<508.077 853.561> 442 90<259 1096> 1277 70<427.455 807.084>
VStem: 1118 183<470.516 892.317>
LayerCount: 2
Fore
SplineSet
198 1072 m 1
 151 1121 l 1
 313 1271 409 1347 634 1347 c 0
 1075 1347 1251 993 1251 668 c 0
 1251 269 1042 -25 647 -25 c 0
 254 -25 109 241 85 532 c 1
 1065 532 l 1
 1067 555 1068 580 1068 608 c 0
 1068 989 879 1277 603 1277 c 0
 411 1277 307 1177 198 1072 c 1
249 442 m 1
 313 177 461 45 661 45 c 0
 878 45 1009 237 1046 442 c 1
 249 442 l 1
EndSplineSet
Validated: 3073
EndChar

StartChar: afii10846
Encoding: 1241 1241 115
Width: 957
VWidth: 2047
Flags: HW
HStem: -25 70<432.484 626.382> 313 80<373.976 772> 804 101<353.059 621.959>
VStem: 203 163<138.701 343.149> 781 155<240.614 313 317.065 621.956>
LayerCount: 2
Fore
SplineSet
723 310 m 1
 347 310 l 2
 327 310 317 300 317 282 c 0
 317 91 415 42 489 42 c 0
 536 42 689 60 723 310 c 1
191 390 m 1
 730 390 l 1
 731 401 732 414 732 431 c 0
 732 639 587 801 438 801 c 0
 326 801 254 764 183 686 c 1
 142 720 l 1
 219 826 341 902 487 902 c 0
 769 902 887 692 887 469 c 0
 887 158 682 -28 487 -28 c 0
 241.49 -28 166.74 146.927 155 309 c 1
 44 309 l 2
 34 309 28 313 28 321 c 2
 28 363 l 2
 28 382 56 390 76 390 c 2
 191 390 l 1
EndSplineSet
Validated: 3073
EndChar

StartChar: uni04DA
Encoding: 1242 1242 116
Width: 1319
VWidth: 2047
Flags: HW
HStem: -25 70<508.077 853.561> 442 90<259 1096> 1277 70<427.455 807.084> 1445 186<394.548 553.452 783.741 940.259>
VStem: 381 186<1458.55 1617.45> 769 186<1459.55 1618.45> 1118 183<470.516 892.317>
LayerCount: 2
Fore
SplineSet
769 1539 m 0
 769 1590 811 1632 862 1632 c 0
 913 1632 955 1590 955 1539 c 0
 955 1488 913 1446 862 1446 c 0
 811 1446 769 1488 769 1539 c 0
381 1538 m 0
 381 1589 423 1631 474 1631 c 0
 525 1631 567 1589 567 1538 c 0
 567 1487 525 1445 474 1445 c 0
 423 1445 381 1487 381 1538 c 0
198 1072 m 1
 151 1121 l 1
 313 1271 409 1347 634 1347 c 0
 1075 1347 1251 993 1251 668 c 0
 1251 269 1042 -25 647 -25 c 0
 254 -25 109 241 85 532 c 1
 1065 532 l 1
 1067 555 1068 580 1068 608 c 0
 1068 989 879 1277 603 1277 c 0
 411 1277 307 1177 198 1072 c 1
249 442 m 1
 313 177 461 45 661 45 c 0
 878 45 1009 237 1046 442 c 1
 249 442 l 1
EndSplineSet
Validated: 3073
LCarets2: 1 0 
EndChar

StartChar: uni04DB
Encoding: 1243 1243 117
Width: 957
VWidth: 2047
Flags: HW
HStem: -25 70<327.484 521.382> 313 80<268.976 667> 804 101<248.059 516.959> 1079 186<193.548 352.452 522.548 681.452>
VStem: 98 163<138.701 343.149> 180 186<1092.55 1251.45> 509 186<1092.55 1251.45> 676 155<240.614 313 317.065 621.956>
LayerCount: 2
Fore
SplineSet
560 1175 m 0
 560 1226 602 1268 653 1268 c 0
 704 1268 746 1226 746 1175 c 0
 746 1124 704 1082 653 1082 c 0
 602 1082 560 1124 560 1175 c 0
231 1175 m 0
 231 1226 273 1268 324 1268 c 0
 375 1268 417 1226 417 1175 c 0
 417 1124 375 1082 324 1082 c 0
 273 1082 231 1124 231 1175 c 0
723 313 m 1
 347 313 l 2
 327 313 317 303 317 285 c 0
 317 94 415 45 489 45 c 0
 536 45 689 63 723 313 c 1
191 393 m 1
 730 393 l 1
 731 404 732 417 732 434 c 0
 732 642 587 804 438 804 c 0
 326 804 254 767 183 689 c 1
 142 723 l 1
 219 829 341 905 487 905 c 0
 769 905 887 695 887 472 c 0
 887 161 682 -25 487 -25 c 0
 241.49 -25 166.74 149.927 155 312 c 1
 44 312 l 2
 34 312 28 316 28 324 c 2
 28 366 l 2
 28 385 56 393 76 393 c 2
 191 393 l 1
EndSplineSet
Validated: 3073
LCarets2: 1 0 
EndChar

StartChar: uni04E0
Encoding: 1248 1248 118
Width: 1246
VWidth: 2047
Flags: HW
HStem: -432 75<440.513 732.064> 1242 80<292.125 343 343 914>
VStem: 973 183<-85.7789 299.641>
DStem2: 513 516 752 590 0.483492 0.875349<180.33 829.384>
LayerCount: 2
Fore
SplineSet
343 1320 m 2
 1070 1320 l 2
 1112 1320 1127 1309 1127 1292 c 0
 1127 1271 1113.67 1239.74 1096 1208 c 2
 752 590 l 1
 1027 535 1156 332 1156 104 c 0
 1156 -180 884 -432 557 -432 c 0
 393 -432 85 -360 85 -226 c 0
 85 -178 107 -123 177 -123 c 0
 231 -123 288.789 -152.137 316 -194 c 0
 381 -294 483 -357 596 -357 c 0
 775 -357 973 -108 973 86 c 0
 973 412 738 522 596 522 c 0
 564 522 541 522 511 516 c 1
 914 1240 l 1
 404 1240 l 2
 252 1237 193 1068 185 976 c 1
 131 981 l 1
 174 1365 l 1
 222 1355 293 1320 343 1320 c 2
EndSplineSet
Validated: 3073
EndChar

StartChar: uni04E1
Encoding: 1249 1249 119
Width: 873
VWidth: 2047
Flags: HW
HStem: -469 59<304.585 506.655> 232 80<453 572.785> 798 80<206.632 219 219 600>
VStem: 650 156<-231.179 143.154>
DStem2: 227 175 453 312 0.513685 0.857979<233.636 726.125>
LayerCount: 2
Fore
SplineSet
308 798 m 2
 247 798 178 765 137 617 c 1
 82 623 l 1
 100 723 111 813 113 905 c 1
 164 905 l 1
 168 893 187 878 219 878 c 2
 629 878 l 2
 653.156 878 724 893 759 893 c 0
 777.58 893 784 884.248 784 878 c 0
 784 858.001 780.812 841.544 752 795 c 2
 453 312 l 1
 648 312 806 182 806 -35 c 0
 806 -232 675 -469 380 -469 c 0
 194 -469 87 -372 87 -291 c 0
 87 -259 103 -223 147 -223 c 0
 194 -223 229.368 -240.736 252 -286 c 0
 276 -334 315 -410 398 -410 c 0
 500 -410 650 -278 650 -37 c 0
 650 137 588 232 428 232 c 0
 404.319 232 316 205 259 158 c 1
 227 175 l 1
 600 798 l 1
 308 798 l 2
EndSplineSet
Validated: 3073
EndChar

StartChar: uni04E6
Encoding: 1254 1254 120
Width: 1431
VWidth: 2047
Flags: HW
HStem: -25 70<570.897 917.258> 1277 70<516.895 879.003> 1445 186<437.548 596.452 826.741 983.259>
VStem: 75 188<407.274 900.52> 424 186<1458.55 1617.45> 812 186<1459.55 1618.45> 1168 188<404.537 931.997>
LayerCount: 2
Fore
SplineSet
812 1539 m 0
 812 1590 854 1632 905 1632 c 0
 956 1632 998 1590 998 1539 c 0
 998 1488 956 1446 905 1446 c 0
 854 1446 812 1488 812 1539 c 0
424 1538 m 0
 424 1589 466 1631 517 1631 c 0
 568 1631 610 1589 610 1538 c 0
 610 1487 568 1445 517 1445 c 0
 466 1445 424 1487 424 1538 c 0
685 1277 m 0
 488 1277 263 1100 263 670 c 0
 263 276 508 45 753 45 c 0
 988 45 1168 268 1168 634 c 0
 1168 1060 972 1277 685 1277 c 0
1356 674 m 0
 1356 264 1104 -25 713 -25 c 0
 360 -25 75 232 75 635 c 0
 75 1037 344 1347 711 1347 c 0
 1080 1347 1356 1080 1356 674 c 0
EndSplineSet
Validated: 3073
LCarets2: 1 0 
EndChar

StartChar: uni04E7
Encoding: 1255 1255 121
Width: 1038
VWidth: 2047
Flags: HW
HStem: -25 73<393.077 651.011> 837 68<353.786 601.514> 1082 186<256.548 415.452 585.548 744.452>
VStem: 70 162<254.531 655.886> 243 186<1095.55 1254.45> 572 186<1095.55 1254.45> 751 162<232.28 651.445>
LayerCount: 2
Fore
SplineSet
597 1175 m 0
 597 1226 639 1268 690 1268 c 0
 741 1268 783 1226 783 1175 c 0
 783 1124 741 1082 690 1082 c 0
 639 1082 597 1124 597 1175 c 0
268 1175 m 0
 268 1226 310 1268 361 1268 c 0
 412 1268 454 1226 454 1175 c 0
 454 1124 412 1082 361 1082 c 0
 310 1082 268 1124 268 1175 c 0
519 828 m 0
 337 828 223 662 223 454 c 0
 223 237 348 62 519 62 c 0
 712 62 815 225 815 454 c 0
 815 662 715 828 519 828 c 0
519 910 m 0
 822 910 968 697 968 454 c 0
 968 189 798 -20 519 -20 c 0
 249 -20 70 181 70 454 c 0
 70 697 255 910 519 910 c 0
EndSplineSet
Validated: 3073
LCarets2: 1 0 
EndChar

StartChar: uni04E8
Encoding: 1256 1256 122
Width: 1431
VWidth: 2047
Flags: HW
HStem: -25 70<570.897 917.258> 544 118<779.74 1084.07> 638 119<349.339 689.338> 1277 70<516.895 879.003>
VStem: 75 188<407.274 900.52> 1168 188<404.537 931.997>
LayerCount: 2
Fore
SplineSet
685 1277 m 0
 488 1277 263 1100 263 670 c 0
 263 667.41 263.011 664.826 263.032 662.25 c 1
 343.375 727.693 471.82 757 548 757 c 0
 750 757 810 662 940 662 c 0
 1004.3 662 1097.15 687.145 1164.19 733.513 c 1
 1135.61 1093.77 948.725 1277 685 1277 c 0
1356 674 m 0
 1356 264 1104 -25 713 -25 c 0
 360 -25 75 232 75 635 c 0
 75 1037 344 1347 711 1347 c 0
 1080 1347 1356 1080 1356 674 c 0
1167.94 646.611 m 1
 1082.16 567.988 981.086 544 904 544 c 0
 714 544 666 638 511 638 c 0
 450.458 638 338.437 628.226 267.516 579.22 c 1
 301.926 240.756 527.463 45 753 45 c 0
 988 45 1168 268 1168 634 c 0
 1168 638.224 1167.98 642.428 1167.94 646.611 c 1
EndSplineSet
Validated: 3073
EndChar

StartChar: uni04E9
Encoding: 1257 1257 123
Width: 983
VWidth: 2047
Flags: HMW
HStem: -25 73<393.077 651.011> 367 101<397.583 694.082> 424 85<220.471 466.425> 837 68<353.786 601.514>
VStem: 70 162<254.531 655.886> 751 162<232.28 651.445>
AnchorPoint: "unten_punkt" 504 -219 basechar 0
AnchorPoint: "top_punkt" 501 1126 basechar 0
AnchorPoint: "top_akzent" 484 1320 basechar 0
LayerCount: 2
Fore
SplineSet
70 420 m 0
 70 700 222 905 493 905 c 0
 797 905 913 652 913 439 c 0
 913 234 780 -25 490 -25 c 0
 215 -25 70 210 70 420 c 0
743.983 495.883 m 1
 717.041 717.488 614.561 837 472 837 c 0
 308.847 837 232.788 647.968 232.006 469.775 c 1
 278.821 490.783 357.386 509 416 509 c 0
 507 509 552 468 631 468 c 0
 672.704 468 713.548 482.601 743.983 495.883 c 1
748.866 442.572 m 1
 706.673 415.067 618.593 367 541 367 c 0
 452 367 383 424 311 424 c 0
 294.195 424 260.218 417.222 235.193 412.778 c 1
 252.801 256.338 343.87 48 524 48 c 0
 616 48 751 103 751 373 c 0
 751 397.071 750.279 420.267 748.866 442.572 c 1
EndSplineSet
Validated: 3073
EndChar

StartChar: uni04EA
Encoding: 1258 1258 124
Width: 1431
VWidth: 2047
Flags: HW
HStem: -25 70<570.897 917.258> 544 118<779.74 1084.07> 638 119<349.339 689.338> 1277 70<516.895 879.003> 1449 186<430.548 589.452 819.741 976.259>
VStem: 75 188<407.274 900.52> 417 186<1462.55 1621.45> 805 186<1463.55 1622.45> 1168 188<404.537 931.997>
LayerCount: 2
Fore
SplineSet
805 1543 m 0
 805 1594 847 1636 898 1636 c 0
 949 1636 991 1594 991 1543 c 0
 991 1492 949 1450 898 1450 c 0
 847 1450 805 1492 805 1543 c 0
417 1542 m 0
 417 1593 459 1635 510 1635 c 0
 561 1635 603 1593 603 1542 c 0
 603 1491 561 1449 510 1449 c 0
 459 1449 417 1491 417 1542 c 0
685 1277 m 0
 488 1277 263 1100 263 670 c 0
 263 667.41 263.011 664.826 263.032 662.25 c 1
 343.375 727.693 471.82 757 548 757 c 0
 750 757 810 662 940 662 c 0
 1004.3 662 1097.15 687.145 1164.19 733.513 c 1
 1135.61 1093.77 948.725 1277 685 1277 c 0
1356 674 m 0
 1356 264 1104 -25 713 -25 c 0
 360 -25 75 232 75 635 c 0
 75 1037 344 1347 711 1347 c 0
 1080 1347 1356 1080 1356 674 c 0
1167.94 646.611 m 1
 1082.16 567.988 981.086 544 904 544 c 0
 714 544 666 638 511 638 c 0
 450.458 638 338.437 628.226 267.516 579.22 c 1
 301.926 240.756 527.463 45 753 45 c 0
 988 45 1168 268 1168 634 c 0
 1168 638.224 1167.98 642.428 1167.94 646.611 c 1
EndSplineSet
Validated: 3073
LCarets2: 1 0 
EndChar

StartChar: uni04EB
Encoding: 1259 1259 125
Width: 983
VWidth: 2047
Flags: HW
HStem: -25 73<393.077 651.011> 367 101<397.583 694.082> 424 85<220.471 466.425> 837 68<353.786 601.514> 1079 186<261.548 420.452 590.548 749.452>
VStem: 70 162<254.531 655.886> 248 186<1092.55 1251.45> 577 186<1092.55 1251.45> 751 162<232.28 651.445>
LayerCount: 2
Fore
SplineSet
70 420 m 0
 70 700 222 905 493 905 c 0
 797 905 913 652 913 439 c 0
 913 234 780 -25 490 -25 c 0
 215 -25 70 210 70 420 c 0
577 1172 m 0
 577 1223 619 1265 670 1265 c 0
 721 1265 763 1223 763 1172 c 0
 763 1121 721 1079 670 1079 c 0
 619 1079 577 1121 577 1172 c 0
248 1172 m 0
 248 1223 290 1265 341 1265 c 0
 392 1265 434 1223 434 1172 c 0
 434 1121 392 1079 341 1079 c 0
 290 1079 248 1121 248 1172 c 0
743.983 495.883 m 1
 717.041 717.488 614.561 837 472 837 c 0
 308.847 837 232.788 647.968 232.006 469.775 c 1
 278.821 490.783 357.386 509 416 509 c 0
 507 509 552 468 631 468 c 0
 672.704 468 713.548 482.601 743.983 495.883 c 1
748.866 442.572 m 1
 706.673 415.067 618.593 367 541 367 c 0
 452 367 383 424 311 424 c 0
 294.195 424 260.218 417.222 235.193 412.778 c 1
 252.801 256.338 343.87 48 524 48 c 0
 616 48 751 103 751 373 c 0
 751 397.071 750.279 420.267 748.866 442.572 c 1
EndSplineSet
Validated: 3073
LCarets2: 1 0 
EndChar

StartChar: uni04EF
Encoding: 1263 1263 126
Width: 1040
VWidth: 2047
Flags: HW
HStem: -471 112<205.444 327.15> 823 59<27 27.0674 27.0674 139.414 318.973 421.752 684 684.088 684.088 760.655 912.311 1017.94 1017.94 1018> 1103 90<266.448 289 289 835.428>
VStem: 22 1001 264 574
DStem2: 328 731 167 722 0.396319 -0.918113<-47.3452 574.854> 445 -58 493 -152 0.398285 0.917262<-299.865 63.8602 281.503 898.849>
LayerCount: 2
Fore
SplineSet
790 1103 m 2
 289 1103 l 2
 271 1103 264 1119 264 1133 c 0
 264 1157 285 1193 309 1193 c 2
 810 1193 l 2
 830 1193 838 1177 838 1163 c 0
 838 1139 816 1103 790 1103 c 2
728 -92 m 0
 724 130 l 1
 587 -7 467 -39 387 -39 c 0
 239 -39 166 74 166 285 c 2
 166 719 l 2
 166 777 145 809 78 809 c 2
 39 809 l 2
 30 809 22 815 22 826 c 2
 22 864 l 1
 26 868 l 1
 26 868 166 864 246 864 c 0
 319 864 458 868 458 868 c 1
 462 864 l 1
 462 826 l 2
 462 815 456 809 446 809 c 2
 407 809 l 2
 338 809 319 777 319 719 c 2
 319 262 l 2
 319 96 364 57 478 57 c 0
 537 57 626 110 724 207 c 1
 724 719 l 2
 724 778 703 809 636 809 c 2
 597 809 l 2
 588 809 580 815 580 826 c 2
 580 864 l 1
 584 868 l 1
 584 868 724 864 804 864 c 0
 877 864 1016 868 1016 868 c 1
 1020 864 l 1
 1020 826 l 2
 1020 815 1014 809 1004 809 c 2
 965 809 l 2
 896 809 877 777 877 719 c 2
 877 0 l 2
 877 -267 851 -380 737 -494 c 0
 683 -548 623 -573 573 -573 c 0
 489 -573 382 -530 382 -469 c 0
 382 -418 412 -390 447 -390 c 0
 495 -390 522 -437 533 -480 c 0
 538 -501 550 -513 565 -513 c 0
 656 -513 720 -381 728 -92 c 0
EndSplineSet
Validated: 3073
LCarets2: 1 0 
EndChar

StartChar: uni04F1
Encoding: 1265 1265 127
Width: 1043
VWidth: 2047
Flags: HW
HStem: -471 112<205.444 327.15> 823 59<27 27.0647 27.0647 139.414 316.02 369.591 369.591 421.752 684 684.088 684.088 760.655 912.311 1017.94 1017.94 1018> 1079 186<327.548 486.452 656.548 815.452>
VStem: 314 186<1092.55 1251.45> 643 186<1092.55 1251.45>
DStem2: 328 731 167 722 0.396319 -0.918113<0 574.854> 445 -58 493 -152 0.398285 0.917262<0 844.303>
LayerCount: 2
Fore
SplineSet
587 1172 m 0
 587 1223 629 1265 680 1265 c 0
 731 1265 773 1223 773 1172 c 0
 773 1121 731 1079 680 1079 c 0
 629 1079 587 1121 587 1172 c 0
258 1172 m 0
 258 1223 300 1265 351 1265 c 0
 402 1265 444 1223 444 1172 c 0
 444 1121 402 1079 351 1079 c 0
 300 1079 258 1121 258 1172 c 0
728 -92 m 0
 724 130 l 1
 587 -7 467 -39 387 -39 c 0
 239 -39 166 74 166 285 c 2
 166 719 l 2
 166 777 145 809 78 809 c 2
 39 809 l 2
 30 809 22 815 22 826 c 2
 22 864 l 1
 26 868 l 1
 26 868 166 864 246 864 c 0
 319 864 458 868 458 868 c 1
 462 864 l 1
 462 826 l 2
 462 815 456 809 446 809 c 2
 407 809 l 2
 338 809 319 777 319 719 c 2
 319 262 l 2
 319 96 364 57 478 57 c 0
 537 57 626 110 724 207 c 1
 724 719 l 2
 724 778 703 809 636 809 c 2
 597 809 l 2
 588 809 580 815 580 826 c 2
 580 864 l 1
 584 868 l 1
 584 868 724 864 804 864 c 0
 877 864 1016 868 1016 868 c 1
 1020 864 l 1
 1020 826 l 2
 1020 815 1014 809 1004 809 c 2
 965 809 l 2
 896 809 877 777 877 719 c 2
 877 0 l 2
 877 -267 851 -380 737 -494 c 0
 683 -548 623 -573 573 -573 c 0
 489 -573 382 -530 382 -469 c 0
 382 -418 412 -390 447 -390 c 0
 495 -390 522 -437 533 -480 c 0
 538 -501 550 -513 565 -513 c 0
 656 -513 720 -381 728 -92 c 0
EndSplineSet
Validated: 3073
LCarets2: 1 0 
EndChar

StartChar: uni04F3
Encoding: 1267 1267 128
Width: 1040
VWidth: 2047
Flags: HW
HStem: -471 112<205.444 327.15> 823 59<27 27.0647 27.0647 139.414 316.02 369.591 369.591 421.752 684 684.088 684.088 760.655 912.311 1017.94 1017.94 1018>
DStem2: 328 731 167 722 0.396319 -0.918113<0 574.854> 445 -58 493 -152 0.398285 0.917262<0 844.303>
LayerCount: 2
Fore
SplineSet
918 1316 m 0
 936 1302 946 1280 946 1259 c 0
 946 1247 944 1232 932 1220 c 2
 698 996 l 1
 695 991 690 990 686 990 c 0
 676 990 657 1001 657 1018 c 0
 657 1020 657 1024 659 1026 c 1
 819 1310 l 2
 829.107 1327.94 844 1334 868 1334 c 0
 886 1334 903 1328 918 1316 c 0
642 1332 m 0
 663 1319 676 1296 676 1271 c 0
 676 1261 674 1249 665 1239 c 2
 456 991 l 2
 452 987 446 985 441 985 c 0
 429 985 412 995 412 1011 c 0
 412 1014 412 1016 413 1018 c 2
 544 1317 l 2
 556 1344 589 1346 598 1346 c 0
 614 1346 627 1341 642 1332 c 0
728 -92 m 0
 724 130 l 1
 587 -7 467 -39 387 -39 c 0
 239 -39 166 74 166 285 c 2
 166 719 l 2
 166 777 145 809 78 809 c 2
 39 809 l 2
 30 809 22 815 22 826 c 2
 22 864 l 1
 26 868 l 1
 26 868 166 864 246 864 c 0
 319 864 458 868 458 868 c 1
 462 864 l 1
 462 826 l 2
 462 815 456 809 446 809 c 2
 407 809 l 2
 338 809 319 777 319 719 c 2
 319 262 l 2
 319 96 364 57 478 57 c 0
 537 57 626 110 724 207 c 1
 724 719 l 2
 724 778 703 809 636 809 c 2
 597 809 l 2
 588 809 580 815 580 826 c 2
 580 864 l 1
 584 868 l 1
 584 868 724 864 804 864 c 0
 877 864 1016 868 1016 868 c 1
 1020 864 l 1
 1020 826 l 2
 1020 815 1014 809 1004 809 c 2
 965 809 l 2
 896 809 877 777 877 719 c 2
 877 0 l 2
 877 -267 851 -380 737 -494 c 0
 683 -548 623 -573 573 -573 c 0
 489 -573 382 -530 382 -469 c 0
 382 -418 412 -390 447 -390 c 0
 495 -390 522 -437 533 -480 c 0
 538 -501 550 -513 565 -513 c 0
 656 -513 720 -381 728 -92 c 0
EndSplineSet
Validated: 3073
LCarets2: 1 0 
EndChar

StartChar: uni1E00
Encoding: 7680 7680 129
Width: 1280
VWidth: 2047
Flags: HW
HStem: -441 55<602.53 771.588> -156 55<602.248 772.899> -4 59<9 9.09515 9.09515 154.594 278.891 444.853 444.853 445 898 898.145 898.145 1061.1 1261.95 1335.49 1335.49 1406> 500 80<485.064 896> 1327 20<718.5 747>
VStem: 512 65<-363.18 -179.82> 797 65<-362.52 -178.94>
DStem2: 195 166 287 147 0.392235 0.919865<-19.4003 402.061 509.52 1078.8> 799 1287 694 1126 0.353155 -0.935565<113.545 695.7 780.787 1191.15>
LayerCount: 2
Fore
SplineSet
630 -148 m 0
 567 -148 520 -203 520 -263 c 0
 520 -321 566 -378 630 -378 c 0
 694 -378 740 -321 740 -263 c 0
 740 -200 691 -148 630 -148 c 0
455 -263 m 0
 455 -170 533 -93 629 -93 c 0
 723 -93 805 -168 805 -263 c 0
 805 -355 727 -433 629 -433 c 0
 535 -433 455 -358 455 -263 c 0
863 344 m 1
 405 344 l 2
 381 344 363.667 341.167 353 335.5 c 128
 342.333 329.833 334.667 320.667 330 308 c 2
 270 148 l 2
 260 122.667 255 104.667 255 94 c 0
 255 79.333 264 69.833 282 65.5 c 128
 300 61.167 328.667 59 368 59 c 2
 404 59 l 2
 415.333 59 421 53.333 421 42 c 2
 421 4 l 1
 417 0 l 1
 317.667 2.66699 241.333 4 188 4 c 2
 39 -1 l 1
 5 4 l 1
 5 42 l 2
 5 53.333 10.333 59 21 59 c 0
 64.333 59 96.833 65.167 118.5 77.5 c 128
 140.167 89.833 157.667 113.333 171 148 c 2
 602 1302 l 2
 614 1333.33 630.667 1349 652 1349 c 0
 672.667 1349 688.667 1333 700 1301 c 2
 1103 152 l 2
 1116.33 114 1134.83 89 1158.5 77 c 128
 1182.17 65 1213.33 59 1252 59 c 0
 1263.33 59 1269 53.333 1269 42 c 2
 1269 4 l 1
 1265 0 l 1
 1159 2.66699 1079.33 4 1026 4 c 2
 771 0 l 1
 767 4 l 1
 767 42 l 2
 767 53.333 772.333 59 783 59 c 2
 838 59 l 2
 904.667 59 938 76.333 938 111 c 0
 938 119 935 132.667 929 152 c 2
 863 344 l 1
835 424 m 1
 674 882 l 1
 609 1060 l 1
 547 887 l 1
 387 460 l 2
 384.333 453.333 383 447.667 383 443 c 0
 383 430.333 400.667 424 436 424 c 2
 835 424 l 1
EndSplineSet
Validated: 3073
LCarets2: 1 0 
EndChar

StartChar: uni1E01
Encoding: 7681 7681 130
Width: 1001
VWidth: 2047
Flags: HW
HStem: -443 55<373.53 542.588> -158 55<373.248 543.899> -25 84<269.368 486.944> -25 99<701.385 846.22> 843 62<277.621 525.78>
VStem: 80 148<102.017 353.644> 102 163<608.068 703.666 656.2 781.051> 283 65<-365.18 -181.82> 568 65<-364.52 -180.94> 596 151<164 502 570 762.819> 857 50<100.338 169.35>
DStem2: 408 523 435 460 0.970142 0.242536<-157.599 177.294>
LayerCount: 2
Fore
SplineSet
458 -158 m 0
 395 -158 348 -213 348 -273 c 0
 348 -331 394 -388 458 -388 c 0
 522 -388 568 -331 568 -273 c 0
 568 -210 519 -158 458 -158 c 0
283 -273 m 0
 283 -180 361 -103 457 -103 c 0
 551 -103 633 -178 633 -273 c 0
 633 -365 555 -443 457 -443 c 0
 363 -443 283 -368 283 -273 c 0
670 688 m 1
 610 786 539.333 835 458 835 c 0
 378.667 835 316.833 800.833 272.5 732.5 c 128
 228.167 664.167 206 575 206 465 c 0
 206 405.667 212.667 352.333 226 305 c 128
 239.333 257.667 256.333 219.333 277 190 c 128
 297.667 160.667 321.667 136.333 349 117 c 128
 376.333 97.667 402.833 84.167 428.5 76.5 c 128
 454.167 68.833 480 65 506 65 c 0
 574.667 65 629.333 80 670 110 c 1
 670 688 l 1
670 42 m 1
 615.333 -2.66699 544.333 -25 457 -25 c 0
 400.333 -25 348.667 -15.5 302 3.5 c 128
 255.333 22.5 216.667 47.333 186 78 c 128
 155.333 108.667 129.5 144 108.5 184 c 128
 87.5 224 72.5 264 63.5 304 c 128
 54.5 344 50 384 50 424 c 0
 50 514 67 595.333 101 668 c 128
 135 740.667 184 798.333 248 841 c 128
 312 883.667 384.667 905 466 905 c 0
 570 905 655.333 875.667 722 817 c 1
 753 867 l 2
 769.667 892.333 784.333 905 797 905 c 0
 814.333 905 823 888.333 823 855 c 2
 823 245 l 2
 823 189 825.667 153 831 137 c 0
 833.667 128.333 839.5 121.167 848.5 115.5 c 128
 857.5 109.833 866.667 107 876 107 c 0
 922.667 107 956.333 108.667 977 112 c 1
 985 56 l 1
 912.333 42.667 854.333 30 811 18 c 128
 767.667 6 736 -8.33301 716 -25 c 1
 667 -25 l 1
 670 42 l 1
EndSplineSet
Validated: 3073
LCarets2: 1 0 
EndChar

StartChar: uni1E02
Encoding: 7682 7682 131
Width: 1205
VWidth: 2047
Flags: HW
HStem: -4 59<38 209.13 390.936 756.172> -4 70<385.587 490.699 438.143 777.34> 693 70<382 734.641> 1254 70<384.274 740.008> 1265 59<38 211.749 389.207 726.685> 1420 196<497.77 660.23>
VStem: 217 165<76 693 763 1243.72> 481 196<1436.77 1599.23> 849 158<867.241 1155.85> 946 183<218.143 539.783>
LayerCount: 2
Fore
SplineSet
481 1518 m 0
 481 1572 525 1616 579 1616 c 0
 633 1616 677 1572 677 1518 c 0
 677 1464 633 1420 579 1420 c 0
 525 1420 481 1464 481 1518 c 0
216.52 152.29 m 9
 217 1171 l 2
 217 1235 189 1263 111 1263 c 2
 50 1263 l 2
 36 1263 34 1272 34 1277 c 2
 34 1318 l 1
 38 1322 l 1
 38 1322 320 1322 392 1322 c 0
 773 1322 842 1145 842 1007 c 0
 842 856.341 711.026 765.715 711 765.687 c 1
 779.979 763.001 1118.52 683.616 1118.52 357.594 c 0
 1118.52 357.29 l 1
 1118.52 183.685 992.552 -0.746094 601.009 -0.746094 c 0
 597.863 -0.746094 594.7 -0.733398 591.52 -0.709961 c 0
 485.113 0.0898438 423.003 3.37695 325.311 3.37695 c 0
 316.366 3.37695 307.122 3.34961 297.52 3.29004 c 0
 199.547 3.00977 143.038 -0.724609 47.998 -0.724609 c 0
 44.5566 -0.724609 41.0654 -0.719727 37.5195 -0.709961 c 8
 36 -1 35 1 34.5195 3.04004 c 16
 34.1865 8.12305 34.0752 14.1787 34.0752 19.9941 c 0
 34.0752 31.623 34.5195 42.29 34.5195 42.29 c 0
 34.5195 52.29 37.5195 58.29 49.5195 58.29 c 0
 110.52 58.29 l 0
 191.52 58.29 216.52 80.29 216.52 152.29 c 9
563.52 692.29 m 2
 370.52 692.29 l 1
 370.52 149.29 l 2
 370.52 81.29 385.52 68.29 552.52 68.29 c 0
 863.52 68.29 931.52 188.29 934.52 380.29 c 16
 934.553 382.377 934.57 384.456 934.57 386.528 c 0
 934.57 568.555 806.881 692.431 577.064 692.431 c 0
 572.588 692.431 568.073 692.384 563.52 692.29 c 2
371 1249 m 25
 371 760 l 25
 374 760 379 761 379 761 c 0
 549 761 684 830 684 1003 c 0
 684 1213 521 1250 406 1250 c 0
 394 1250 385 1249 371 1249 c 25
EndSplineSet
Validated: 3073
LCarets2: 1 0 
EndChar

StartChar: uni1E03
Encoding: 7683 7683 132
Width: 1079
VWidth: 2047
Flags: HW
HStem: -25 70<325.057 596.454> 816 89<437.452 622.85> 1071 196<460.77 623.23> 1315 62<14.0036 84.9628> 1409 20<239.5 305>
VStem: 152 153<110 729 792 1319.95> 444 196<1087.77 1250.23> 746 158<256.717 667.131>
LayerCount: 2
Fore
SplineSet
518 1169 m 0
 518 1223 562 1267 616 1267 c 0
 670 1267 714 1223 714 1169 c 0
 714 1115 670 1071 616 1071 c 0
 562 1071 518 1115 518 1169 c 0
177 1179 m 2
 171 1296 131 1321 90 1321 c 2
 25 1314 l 2
 19 1313 14 1318 14 1324 c 2
 10 1376 l 1
 42 1376 117 1387 152 1394 c 0
 189 1401 212 1410 253 1428 c 1
 298 1428 l 1
 298 699 l 1
 340 785 420 905 614 905 c 0
 903 905 1003 676 1003 456 c 0
 1003 192 793 -25 535 -25 c 0
 335 -25 174 116 174 488 c 0
 174 731 177 1179 177 1179 c 2
592 837 m 0
 382 837 340 588 340 481 c 0
 340 226 403 41 572 41 c 0
 682 41 843 136 843 406 c 0
 843 652 751 837 592 837 c 0
EndSplineSet
Validated: 3073
LCarets2: 1 0 
EndChar

StartChar: uni1E04
Encoding: 7684 7684 133
Width: 1205
VWidth: 2047
Flags: HW
HStem: -334 196<471.77 634.23> -4 59<38 209.13 390.936 756.172> -4 70<385.587 490.699 438.143 777.34> 693 70<382 734.641> 1254 70<384.274 740.008> 1265 59<38 211.749 389.207 726.685>
VStem: 217 165<76 693 763 1243.72> 455 196<-317.23 -154.77> 849 158<867.241 1155.85> 946 183<218.143 539.783>
LayerCount: 2
Fore
SplineSet
455 -236 m 0
 455 -182 499 -138 553 -138 c 0
 607 -138 651 -182 651 -236 c 0
 651 -290 607 -334 553 -334 c 0
 499 -334 455 -290 455 -236 c 0
216.52 152.29 m 9
 217 1171 l 2
 217 1235 189 1263 111 1263 c 2
 50 1263 l 2
 36 1263 34 1272 34 1277 c 2
 34 1318 l 1
 38 1322 l 1
 38 1322 320 1322 392 1322 c 0
 773 1322 842 1145 842 1007 c 0
 842 856.341 711.026 765.715 711 765.687 c 1
 779.979 763.001 1118.52 683.616 1118.52 357.594 c 0
 1118.52 357.29 l 1
 1118.52 183.685 992.552 -0.746094 601.009 -0.746094 c 0
 597.863 -0.746094 594.7 -0.733398 591.52 -0.709961 c 0
 485.113 0.0898438 423.003 3.37695 325.311 3.37695 c 0
 316.366 3.37695 307.122 3.34961 297.52 3.29004 c 0
 199.547 3.00977 143.038 -0.724609 47.998 -0.724609 c 0
 44.5566 -0.724609 41.0654 -0.719727 37.5195 -0.709961 c 8
 36 -1 35 1 34.5195 3.04004 c 16
 34.1865 8.12305 34.0752 14.1787 34.0752 19.9941 c 0
 34.0752 31.623 34.5195 42.29 34.5195 42.29 c 0
 34.5195 52.29 37.5195 58.29 49.5195 58.29 c 0
 110.52 58.29 l 0
 191.52 58.29 216.52 80.29 216.52 152.29 c 9
563.52 692.29 m 2
 370.52 692.29 l 1
 370.52 149.29 l 2
 370.52 81.29 385.52 68.29 552.52 68.29 c 0
 863.52 68.29 931.52 188.29 934.52 380.29 c 16
 934.553 382.377 934.57 384.456 934.57 386.528 c 0
 934.57 568.555 806.881 692.431 577.064 692.431 c 0
 572.588 692.431 568.073 692.384 563.52 692.29 c 2
371 1249 m 25
 371 760 l 25
 374 760 379 761 379 761 c 0
 549 761 684 830 684 1003 c 0
 684 1213 521 1250 406 1250 c 0
 394 1250 385 1249 371 1249 c 25
EndSplineSet
Validated: 3073
LCarets2: 1 0 
EndChar

StartChar: uni1E05
Encoding: 7685 7685 134
Width: 1079
VWidth: 2047
Flags: HW
HStem: -334 196<379.77 542.23> -25 70<325.057 596.454> 816 89<437.452 622.85> 1315 62<14.0036 84.9628> 1409 20<239.5 305>
VStem: 152 153<110 729 792 1319.95> 363 196<-317.23 -154.77> 746 158<256.717 667.131>
LayerCount: 2
Fore
SplineSet
435 -236 m 0
 435 -182 479 -138 533 -138 c 0
 587 -138 631 -182 631 -236 c 0
 631 -290 587 -334 533 -334 c 0
 479 -334 435 -290 435 -236 c 0
177 1179 m 2
 171 1296 131 1321 90 1321 c 2
 25 1314 l 2
 19 1313 14 1318 14 1324 c 2
 10 1376 l 1
 42 1376 117 1387 152 1394 c 0
 189 1401 212 1410 253 1428 c 1
 298 1428 l 1
 298 699 l 1
 340 785 420 905 614 905 c 0
 903 905 1003 676 1003 456 c 0
 1003 192 793 -25 535 -25 c 0
 335 -25 174 116 174 488 c 0
 174 731 177 1179 177 1179 c 2
592 837 m 0
 382 837 340 588 340 481 c 0
 340 226 403 41 572 41 c 0
 682 41 843 136 843 406 c 0
 843 652 751 837 592 837 c 0
EndSplineSet
Validated: 3073
LCarets2: 1 0 
EndChar

StartChar: uni1E06
Encoding: 7686 7686 135
Width: 1205
VWidth: 2047
Flags: HW
HStem: -217 90<280.448 303 303 849.428> -4 59<38 209.13 390.936 756.172> -4 70<385.587 490.699 438.143 777.34> 693 70<382 734.641> 1254 70<384.274 740.008> 1265 59<38 211.749 389.207 726.685>
VStem: 217 165<76 693 763 1243.72> 849 158<867.241 1155.85> 946 183<218.143 539.783>
LayerCount: 2
Fore
SplineSet
804 -217 m 2
 303 -217 l 2
 285 -217 278 -201 278 -187 c 0
 278 -163 299 -127 323 -127 c 2
 824 -127 l 2
 844 -127 852 -143 852 -157 c 0
 852 -181 830 -217 804 -217 c 2
216.52 152.29 m 9
 217 1171 l 2
 217 1235 189 1263 111 1263 c 2
 50 1263 l 2
 36 1263 34 1272 34 1277 c 2
 34 1318 l 1
 38 1322 l 1
 38 1322 320 1322 392 1322 c 0
 773 1322 842 1145 842 1007 c 0
 842 856.341 711.026 765.715 711 765.687 c 1
 779.979 763.001 1118.52 683.616 1118.52 357.594 c 0
 1118.52 357.29 l 1
 1118.52 183.685 992.552 -0.746094 601.009 -0.746094 c 0
 597.863 -0.746094 594.7 -0.733398 591.52 -0.709961 c 0
 485.113 0.0898438 423.003 3.37695 325.311 3.37695 c 0
 316.366 3.37695 307.122 3.34961 297.52 3.29004 c 0
 199.547 3.00977 143.038 -0.724609 47.998 -0.724609 c 0
 44.5566 -0.724609 41.0654 -0.719727 37.5195 -0.709961 c 8
 36 -1 35 1 34.5195 3.04004 c 16
 34.1865 8.12305 34.0752 14.1787 34.0752 19.9941 c 0
 34.0752 31.623 34.5195 42.29 34.5195 42.29 c 0
 34.5195 52.29 37.5195 58.29 49.5195 58.29 c 0
 110.52 58.29 l 0
 191.52 58.29 216.52 80.29 216.52 152.29 c 9
563.52 692.29 m 2
 370.52 692.29 l 1
 370.52 149.29 l 2
 370.52 81.29 385.52 68.29 552.52 68.29 c 0
 863.52 68.29 931.52 188.29 934.52 380.29 c 16
 934.553 382.377 934.57 384.456 934.57 386.528 c 0
 934.57 568.555 806.881 692.431 577.064 692.431 c 0
 572.588 692.431 568.073 692.384 563.52 692.29 c 2
371 1249 m 25
 371 760 l 25
 374 760 379 761 379 761 c 0
 549 761 684 830 684 1003 c 0
 684 1213 521 1250 406 1250 c 0
 394 1250 385 1249 371 1249 c 25
EndSplineSet
Validated: 3073
LCarets2: 1 0 
EndChar

StartChar: uni1E07
Encoding: 7687 7687 136
Width: 1079
VWidth: 2047
Flags: HW
HStem: -224 90<219.448 242 242 788.428> -25 70<325.057 596.454> 816 89<437.452 622.85> 1315 62<14.0036 84.9628> 1409 20<239.5 305>
VStem: 152 153<110 729 792 1319.95> 746 158<256.717 667.131>
LayerCount: 2
Fore
SplineSet
788 -224 m 2
 287 -224 l 2
 269 -224 262 -208 262 -194 c 0
 262 -170 283 -134 307 -134 c 2
 808 -134 l 2
 828 -134 836 -150 836 -164 c 0
 836 -188 814 -224 788 -224 c 2
177 1179 m 2
 171 1296 131 1321 90 1321 c 2
 25 1314 l 2
 19 1313 14 1318 14 1324 c 2
 10 1376 l 1
 42 1376 117 1387 152 1394 c 0
 189 1401 212 1410 253 1428 c 1
 298 1428 l 1
 298 699 l 1
 340 785 420 905 614 905 c 0
 903 905 1003 676 1003 456 c 0
 1003 192 793 -25 535 -25 c 0
 335 -25 174 116 174 488 c 0
 174 731 177 1179 177 1179 c 2
592 837 m 0
 382 837 340 588 340 481 c 0
 340 226 403 41 572 41 c 0
 682 41 843 136 843 406 c 0
 843 652 751 837 592 837 c 0
EndSplineSet
Validated: 3073
LCarets2: 1 0 
EndChar

StartChar: uni1E08
Encoding: 7688 7688 137
Width: 1319
VWidth: 2047
Flags: HW
HStem: -380 52<641.592 806.189> -172 64<730.575 812.942> -25 85<539.142 950.601> 1272 75<552.926 927.464> 1428 250
VStem: 75 178<418.126 892.619> 551 413 819 109<-310.333 -180.933>
LayerCount: 2
Fore
SplineSet
836 1678 m 1
 964 1571 l 1
 669 1452 l 2
 624.912 1434.22 598 1428 581 1428 c 0
 562 1428 551 1438 551 1458 c 0
 551 1472 556.055 1482.92 582 1501 c 2
 836 1678 l 1
734 -172 m 0
 695 -172 675 -175 642 -186 c 1
 629 -173 l 1
 696.614 -24.4171 l 1
 276.006 -8.6593 75 323.886 75 645 c 0
 75 1048 390 1347 729 1347 c 0
 980 1347 1060 1262 1178 1255 c 1
 1186 1144 1203 1044 1223 939 c 1
 1161 929 l 1
 1108 1105 990 1272 706 1272 c 0
 544 1272 253 1100 253 684 c 0
 253 385 408 60 726 60 c 0
 916 60 1054 128 1200 286 c 1
 1247 256 l 1
 1117.26 86.1283 949.194 -11.4369 767.188 -23.6858 c 1
 730 -114 l 1
 746 -110 764 -108 783 -108 c 0
 865 -108 928 -156 928 -235 c 0
 928 -322 835 -380 710 -380 c 0
 644 -380 609 -368 557 -345 c 1
 579 -300 l 1
 634 -320 656 -328 696 -328 c 0
 758 -328 819 -299 819 -244 c 0
 819 -201 781 -172 734 -172 c 0
EndSplineSet
Validated: 3073
LCarets2: 1 0 
EndChar

StartChar: uni1E09
Encoding: 7689 7689 138
Width: 826
VWidth: 2047
Flags: HW
HStem: -366 52<337.592 502.189> -158 64<426.575 508.942> -25 90<389.247 637.75> 607 160<389.247 637.75> 835 70<349.894 573.903> 1344 34
VStem: 75 158<254.421 654.707> 515 109<-296.333 -166.933> 627 153
LayerCount: 2
Fore
SplineSet
584 1373 m 1
 591 1376 604 1378 614 1378 c 0
 671 1378 697 1356 714 1340 c 0
 719 1336 723 1333 727 1330 c 1
 732 1308 l 1
 497 1085 l 2
 465 1055 451 1045 438 1045 c 0
 422 1045 408 1056 408 1070 c 0
 408 1081 408 1096 421 1116 c 2
 584 1373 l 1
430 -158 m 0
 391 -158 371 -161 338 -172 c 1
 325 -159 l 1
 389.725 -16.7651 l 1
 194.317 22.0352 75 194.496 75 427 c 0
 75 717 259 905 479 905 c 0
 675 905 780 804 780 696 c 0
 780 636 743 607 701 607 c 0
 657 607 616 628 610 679 c 0
 603 748 589 835 468 835 c 0
 334 835 233 692 233 471 c 0
 233 232 363 65 521 65 c 0
 609 65 686 123 750 215 c 1
 786 186 l 1
 696 30 598 -25 476 -25 c 0
 469.617 -25 463.296 -24.8741 457.037 -24.6243 c 1
 426 -100 l 1
 442 -96 460 -94 479 -94 c 0
 561 -94 624 -142 624 -221 c 0
 624 -308 531 -366 406 -366 c 0
 340 -366 305 -354 253 -331 c 1
 275 -286 l 1
 330 -306 352 -314 392 -314 c 0
 454 -314 515 -285 515 -230 c 0
 515 -187 477 -158 430 -158 c 0
EndSplineSet
Validated: 3073
LCarets2: 1 0 
EndChar

StartChar: uni1E0A
Encoding: 7690 7690 139
Width: 1206
VWidth: 2047
Flags: HW
HStem: -4 59<38 50 50 207.812 420.399 882.828> 1265 59<38 53 53 213.233 421.321 791.782> 1429 196<525.77 688.23>
VStem: 217 165<79.7508 1239.77> 509 196<1445.77 1608.23> 1152 188<367.238 857.536>
LayerCount: 2
Fore
SplineSet
448 1527 m 0
 448 1581 492 1625 546 1625 c 0
 600 1625 644 1581 644 1527 c 0
 644 1473 600 1429 546 1429 c 0
 492 1429 448 1473 448 1527 c 0
297 1319 m 0
 370 1319 534 1323 534 1323 c 2
 537.633 1323.06 541.25 1323.09 544.851 1323.09 c 0
 917.882 1323.09 1118 1016.48 1118 652 c 0
 1118 282 896 1 510 -1 c 2
 297 -2 l 1
 39 -6 l 1
 36 -2 l 1
 36 35 l 2
 36 45 41 53 51 53 c 2
 112 53 l 2
 189 53 218 81 218 147 c 2
 218 679 l 1
 218 1175 l 2
 218 1238 187 1264 106 1264 c 2
 52 1264 l 2
 43 1264 35 1270 35 1281 c 2
 35 1319 l 1
 39 1323 l 1
 39 1323 217 1319 297 1319 c 0
514 66 m 2
 725 66 930 246 930 670 c 0
 930 1107 758 1252 560 1252 c 2
 489 1252 l 2
 411 1252 383 1239 383 1175 c 2
 383 147 l 2
 383 90 407 66 489 66 c 2
 514 66 l 2
EndSplineSet
Validated: 3073
LCarets2: 1 0 
EndChar

StartChar: uni1E0B
Encoding: 7691 7691 140
Width: 999
VWidth: 2047
Flags: HW
HStem: -25 87<363.655 572.035> 56 56<892.1 992> 834 71<385.622 618.192> 1071 196<288.77 451.23> 1315 62<547.004 617.963> 1409 20<772.5 838>
VStem: 70 159<228.867 656.454> 272 196<1087.77 1250.23> 685 153<183 713 860 1319.95>
LayerCount: 2
Fore
SplineSet
272 1169 m 0
 272 1223 316 1267 370 1267 c 0
 424 1267 468 1223 468 1169 c 0
 468 1115 424 1071 370 1071 c 0
 316 1071 272 1115 272 1169 c 0
690 191 m 1
 690 769 l 1
 636 809 564 814 526 814 c 0
 406 814 226 724 226 414 c 0
 226 201 315 44 478 44 c 0
 564 44 633 98 690 191 c 1
690 1203 m 2
 690 1261 671 1293 602 1293 c 2
 542 1293 l 2
 532 1293 526 1299 526 1310 c 2
 526 1348 l 1
 530 1352 l 1
 530 1352 690 1348 763 1348 c 0
 843 1348 983 1352 983 1352 c 1
 987 1348 l 1
 987 1310 l 2
 987 1299 979 1293 970 1293 c 2
 931 1293 l 2
 864 1293 843 1261 843 1203 c 2
 843 24 l 2
 843 -3 839 -26 817 -26 c 0
 801 -26 788 -11 773 12 c 2
 742 62 l 1
 674 2 586 -26 486 -26 c 0
 236 -26 70 185 70 455 c 0
 70 645 182 904 477 904 c 0
 593 904 658 863 690 837 c 1
 690 1203 l 2
EndSplineSet
Validated: 3073
LCarets2: 1 0 
EndChar

StartChar: uni1E0C
Encoding: 7692 7692 141
Width: 1206
VWidth: 2047
Flags: HW
HStem: -334 196<511.77 674.23> -4 59<38 50 50 207.812 420.399 882.828> 1265 59<38 53 53 213.233 421.321 791.782>
VStem: 217 165<79.7508 1239.77> 495 196<-317.23 -154.77> 1152 188<367.238 857.536>
LayerCount: 2
Fore
SplineSet
382 -236 m 0
 382 -182 426 -138 480 -138 c 0
 534 -138 578 -182 578 -236 c 0
 578 -290 534 -334 480 -334 c 0
 426 -334 382 -290 382 -236 c 0
297 1319 m 0
 370 1319 534 1323 534 1323 c 2
 537.633 1323.06 541.25 1323.09 544.851 1323.09 c 0
 917.882 1323.09 1118 1016.48 1118 652 c 0
 1118 282 896 1 510 -1 c 2
 297 -2 l 1
 39 -6 l 1
 36 -2 l 1
 36 35 l 2
 36 45 41 53 51 53 c 2
 112 53 l 2
 189 53 218 81 218 147 c 2
 218 679 l 1
 218 1175 l 2
 218 1238 187 1264 106 1264 c 2
 52 1264 l 2
 43 1264 35 1270 35 1281 c 2
 35 1319 l 1
 39 1323 l 1
 39 1323 217 1319 297 1319 c 0
514 66 m 2
 725 66 930 246 930 670 c 0
 930 1107 758 1252 560 1252 c 2
 489 1252 l 2
 411 1252 383 1239 383 1175 c 2
 383 147 l 2
 383 90 407 66 489 66 c 2
 514 66 l 2
EndSplineSet
Validated: 3073
LCarets2: 1 0 
EndChar

StartChar: uni1E0D
Encoding: 7693 7693 142
Width: 999
VWidth: 2047
Flags: HW
HStem: -334 196<400.77 563.23> -25 87<363.655 572.035> 56 56<892.1 992> 834 71<385.622 618.192> 1315 62<547.004 617.963> 1409 20<772.5 838>
VStem: 70 159<228.867 656.454> 384 196<-317.23 -154.77> 685 153<183 713 860 1319.95>
LayerCount: 2
Fore
SplineSet
384 -236 m 0
 384 -182 428 -138 482 -138 c 0
 536 -138 580 -182 580 -236 c 0
 580 -290 536 -334 482 -334 c 0
 428 -334 384 -290 384 -236 c 0
690 191 m 1
 690 769 l 1
 636 809 564 814 526 814 c 0
 406 814 226 724 226 414 c 0
 226 201 315 44 478 44 c 0
 564 44 633 98 690 191 c 1
690 1203 m 2
 690 1261 671 1293 602 1293 c 2
 542 1293 l 2
 532 1293 526 1299 526 1310 c 2
 526 1348 l 1
 530 1352 l 1
 530 1352 690 1348 763 1348 c 0
 843 1348 983 1352 983 1352 c 1
 987 1348 l 1
 987 1310 l 2
 987 1299 979 1293 970 1293 c 2
 931 1293 l 2
 864 1293 843 1261 843 1203 c 2
 843 24 l 2
 843 -3 839 -26 817 -26 c 0
 801 -26 788 -11 773 12 c 2
 742 62 l 1
 674 2 586 -26 486 -26 c 0
 236 -26 70 185 70 455 c 0
 70 645 182 904 477 904 c 0
 593 904 658 863 690 837 c 1
 690 1203 l 2
EndSplineSet
Validated: 3073
LCarets2: 1 0 
EndChar

StartChar: uni1E0E
Encoding: 7694 7694 143
Width: 1206
VWidth: 2047
Flags: HW
HStem: -215 90<295.448 318 318 864.428> -4 59<38 50 50 207.812 420.399 882.828> 1265 59<38 53 53 213.233 421.321 791.782>
VStem: 217 165<79.7508 1239.77> 1152 188<367.238 857.536>
LayerCount: 2
Fore
SplineSet
726 -215 m 2
 225 -215 l 2
 207 -215 200 -199 200 -185 c 0
 200 -161 221 -125 245 -125 c 2
 746 -125 l 2
 766 -125 774 -141 774 -155 c 0
 774 -179 752 -215 726 -215 c 2
297 1319 m 0
 370 1319 534 1323 534 1323 c 2
 537.633 1323.06 541.25 1323.09 544.851 1323.09 c 0
 917.882 1323.09 1118 1016.48 1118 652 c 0
 1118 282 896 1 510 -1 c 2
 297 -2 l 1
 39 -6 l 1
 36 -2 l 1
 36 35 l 2
 36 45 41 53 51 53 c 2
 112 53 l 2
 189 53 218 81 218 147 c 2
 218 679 l 1
 218 1175 l 2
 218 1238 187 1264 106 1264 c 2
 52 1264 l 2
 43 1264 35 1270 35 1281 c 2
 35 1319 l 1
 39 1323 l 1
 39 1323 217 1319 297 1319 c 0
514 66 m 2
 725 66 930 246 930 670 c 0
 930 1107 758 1252 560 1252 c 2
 489 1252 l 2
 411 1252 383 1239 383 1175 c 2
 383 147 l 2
 383 90 407 66 489 66 c 2
 514 66 l 2
EndSplineSet
Validated: 3073
LCarets2: 1 0 
EndChar

StartChar: uni1E0F
Encoding: 7695 7695 144
Width: 999
VWidth: 2047
Flags: HW
HStem: -223 90<194.448 217 217 763.428> -25 87<363.655 572.035> 56 56<892.1 992> 834 71<385.622 618.192> 1315 62<547.004 617.963> 1409 20<772.5 838>
VStem: 70 159<228.867 656.454> 685 153<183 713 860 1319.95>
LayerCount: 2
Fore
SplineSet
718 -223 m 2
 217 -223 l 2
 199 -223 192 -207 192 -193 c 0
 192 -169 213 -133 237 -133 c 2
 738 -133 l 2
 758 -133 766 -149 766 -163 c 0
 766 -187 744 -223 718 -223 c 2
690 191 m 1
 690 769 l 1
 636 809 564 814 526 814 c 0
 406 814 226 724 226 414 c 0
 226 201 315 44 478 44 c 0
 564 44 633 98 690 191 c 1
690 1203 m 2
 690 1261 671 1293 602 1293 c 2
 542 1293 l 2
 532 1293 526 1299 526 1310 c 2
 526 1348 l 1
 530 1352 l 1
 530 1352 690 1348 763 1348 c 0
 843 1348 983 1352 983 1352 c 1
 987 1348 l 1
 987 1310 l 2
 987 1299 979 1293 970 1293 c 2
 931 1293 l 2
 864 1293 843 1261 843 1203 c 2
 843 24 l 2
 843 -3 839 -26 817 -26 c 0
 801 -26 788 -11 773 12 c 2
 742 62 l 1
 674 2 586 -26 486 -26 c 0
 236 -26 70 185 70 455 c 0
 70 645 182 904 477 904 c 0
 593 904 658 863 690 837 c 1
 690 1203 l 2
EndSplineSet
Validated: 3073
LCarets2: 1 0 
EndChar

StartChar: uni1E10
Encoding: 7696 7696 145
Width: 1428
VWidth: 2047
Flags: HW
HStem: -372 52<266.592 431.189> -164 64<355.575 437.942> -4 59<38 50 50 207.812 420.399 882.828> 1265 59<38 53 53 213.233 421.321 791.782>
VStem: 217 165<79.7508 1239.77> 444 109<-302.333 -172.933> 1152 188<367.238 857.536>
LayerCount: 2
Fore
SplineSet
359 -164 m 0
 320 -164 300 -167 267 -178 c 1
 254 -165 l 1
 329.05 -0.0747041 l 1
 318.762 -0.0263261 307.802 -1.47025e-06 296 0 c 0
 195.368 0 130 0 38 -4 c 1
 35 0 l 1
 35 37 l 2
 35 47 40 55 50 55 c 2
 111 55 l 2
 188 55 217 85 217 151 c 2
 217 1171 l 2
 217 1245 197 1265 111 1265 c 2
 53 1265 l 2
 42 1265 35 1272 35 1283 c 2
 35 1319.83 l 1
 38 1324 l 1
 138.62 1322.44 195.368 1320 296 1320 c 0
 427.049 1320 500.951 1324 632 1324 c 0
 1027 1324 1340 1011 1340 631 c 0
 1340 128 959 -4 669 -4 c 0
 520.052 -4 467.934 -1.9877 398.31 -0.817656 c 1
 355 -106 l 1
 371 -102 389 -100 408 -100 c 0
 490 -100 553 -148 553 -227 c 0
 553 -314 460 -372 335 -372 c 0
 269 -372 234 -360 182 -337 c 1
 204 -292 l 1
 259 -312 281 -320 321 -320 c 0
 383 -320 444 -291 444 -236 c 0
 444 -193 406 -164 359 -164 c 0
382 147 m 2
 382 81 406 66 607 66 c 0
 895 66 1152 168 1152 581 c 0
 1152 897 997 1254 556 1254 c 0
 454 1254 382 1248 382 1175 c 2
 382 147 l 2
EndSplineSet
Validated: 3073
LCarets2: 1 0 
EndChar

StartChar: uni1E11
Encoding: 7697 7697 146
Width: 1012
VWidth: 2047
Flags: HW
HStem: -363 52<361.592 526.189> -155 64<450.575 532.942> -25 87<363.655 572.035> 56 56<892.1 992> 834 71<385.622 618.192> 1315 62<547.004 617.963> 1409 20<772.5 838>
VStem: 70 159<228.867 656.454> 539 109<-293.333 -163.933> 685 153<183 713 860 1319.95>
LayerCount: 2
Fore
SplineSet
454 -155 m 0
 415 -155 395 -158 362 -169 c 1
 349 -156 l 1
 408.787 -24.6155 l 1
 197.092 -15.085 70 170.581 70 416 c 0
 70 568 111 695 198 782 c 0
 281 860 370 905 506 905 c 0
 547 905 636 887 685 860 c 1
 685 1173 l 2
 685 1290 665 1322 624 1322 c 2
 558 1315 l 2
 552 1315 547 1319 547 1325 c 2
 543 1377 l 1
 575 1377 650 1388 685 1395 c 0
 722 1402 752 1411 793 1429 c 1
 838 1429 l 1
 838 245 l 2
 838 185 841 152 846 137 c 0
 851 118 874 107 891 107 c 0
 915 107 961 107 992 112 c 1
 1000 56 l 1
 881 34 775 12 731 -25 c 1
 682 -25 l 1
 688 117 l 1
 624.646 51.2096 559.973 -1.38656 482.192 -18.8191 c 1
 450 -97 l 1
 466 -93 484 -91 503 -91 c 0
 585 -91 648 -139 648 -218 c 0
 648 -305 555 -363 430 -363 c 0
 364 -363 329 -351 277 -328 c 1
 299 -283 l 1
 354 -303 376 -311 416 -311 c 0
 478 -311 539 -282 539 -227 c 0
 539 -184 501 -155 454 -155 c 0
685 183 m 1
 685 713 l 1
 634 790 580 834 484 834 c 0
 442 834 357.437 826.701 292 731 c 0
 263.192 688.869 229 600 229 452 c 0
 229 185 368 62 479 62 c 0
 547 62 602 102 685 183 c 1
EndSplineSet
Validated: 3073
LCarets2: 1 0 
EndChar

StartChar: uni1E12
Encoding: 7698 7698 147
Width: 1206
VWidth: 2047
Flags: HW
HStem: -4 59<38 50 50 207.812 420.399 882.828> 1265 59<38 53 53 213.233 421.321 791.782>
VStem: 217 165<79.7508 1239.77> 286 519<-381 -381> 1152 188<367.238 857.536>
LayerCount: 2
Fore
SplineSet
546 -117 m 1
 605 -213 680 -299 753 -381 c 1
 711 -410 l 1
 631 -351 562 -300 493 -226 c 1
 417 -304 351 -355 275 -410 c 1
 234 -381 l 1
 306 -300 384 -211 444 -117 c 1
 546 -117 l 1
297 1319 m 0
 370 1319 534 1323 534 1323 c 2
 537.633 1323.06 541.25 1323.09 544.851 1323.09 c 0
 917.882 1323.09 1118 1016.48 1118 652 c 0
 1118 282 896 1 510 -1 c 2
 297 -2 l 1
 39 -6 l 1
 36 -2 l 1
 36 35 l 2
 36 45 41 53 51 53 c 2
 112 53 l 2
 189 53 218 81 218 147 c 2
 218 679 l 1
 218 1175 l 2
 218 1238 187 1264 106 1264 c 2
 52 1264 l 2
 43 1264 35 1270 35 1281 c 2
 35 1319 l 1
 39 1323 l 1
 39 1323 217 1319 297 1319 c 0
514 66 m 2
 725 66 930 246 930 670 c 0
 930 1107 758 1252 560 1252 c 2
 489 1252 l 2
 411 1252 383 1239 383 1175 c 2
 383 147 l 2
 383 90 407 66 489 66 c 2
 514 66 l 2
EndSplineSet
Validated: 3073
LCarets2: 1 0 
EndChar

StartChar: uni1E13
Encoding: 7699 7699 148
Width: 999
VWidth: 2047
Flags: HW
HStem: -25 87<363.655 572.035> 56 56<892.1 992> 834 71<385.622 618.192> 1315 62<547.004 617.963> 1409 20<772.5 838>
VStem: 70 159<228.867 656.454> 182 519<-381 -381> 685 153<183 713 860 1319.95>
LayerCount: 2
Fore
SplineSet
504 -117 m 1
 563 -213 638 -299 711 -381 c 1
 669 -410 l 1
 589 -351 520 -300 451 -226 c 1
 375 -304 309 -355 233 -410 c 1
 192 -381 l 1
 264 -300 342 -211 402 -117 c 1
 504 -117 l 1
690 191 m 1
 690 769 l 1
 636 809 564 814 526 814 c 0
 406 814 226 724 226 414 c 0
 226 201 315 44 478 44 c 0
 564 44 633 98 690 191 c 1
690 1203 m 2
 690 1261 671 1293 602 1293 c 2
 542 1293 l 2
 532 1293 526 1299 526 1310 c 2
 526 1348 l 1
 530 1352 l 1
 530 1352 690 1348 763 1348 c 0
 843 1348 983 1352 983 1352 c 1
 987 1348 l 1
 987 1310 l 2
 987 1299 979 1293 970 1293 c 2
 931 1293 l 2
 864 1293 843 1261 843 1203 c 2
 843 24 l 2
 843 -3 839 -26 817 -26 c 0
 801 -26 788 -11 773 12 c 2
 742 62 l 1
 674 2 586 -26 486 -26 c 0
 236 -26 70 185 70 455 c 0
 70 645 182 904 477 904 c 0
 593 904 658 863 690 837 c 1
 690 1203 l 2
EndSplineSet
Validated: 3073
LCarets2: 1 0 
EndChar

StartChar: uni1E14
Encoding: 7700 7700 149
Width: 1167
VWidth: 2047
Flags: HW
HStem: -4 59<28 199.047> 0 80<375.074 920.566> 669 70<373 740.095> 1240 80<375.211 857.022> 1265 59<29 200.021> 1501 90<336.448 359 359 905.428>
VStem: 208 165<82.875 669 739 1236.87> 334 574 768 69<508 579 830 904.994>
LayerCount: 2
Fore
SplineSet
860 1501 m 2
 359 1501 l 2
 341 1501 334 1517 334 1531 c 0
 334 1555 355 1591 379 1591 c 2
 880 1591 l 2
 900 1591 908 1575 908 1561 c 0
 908 1537 886 1501 860 1501 c 2
42.3496 1703.08 m 1
 233.31 1550.84 l 2
 250.25 1536.76 257.18 1525.32 257.18 1513 c 0
 257.18 1495.4 248.71 1486.6 234.08 1486.6 c 0
 220.22 1486.6 199.43 1491.88 166.32 1507.72 c 2
 -77.7695 1620.36 l 1
 42.3496 1703.08 l 1
588 1240 m 2
 447 1240 l 2
 398 1240 373 1222 373 1173 c 2
 373 764 l 1
 577 764 l 2
 649 764 666.92 798.018 680 855 c 2
 694 916 l 2
 695 925 701 933 709 933 c 2
 754 933 l 2
 759 933 761 929 761 924 c 0
 754 873 745 798 745 729 c 0
 745 659 756 568 761 533 c 1
 756 526 l 1
 709 526 l 2
 698 526 693 534 692 541 c 2
 680 604 l 2
 668.77 662.957 646 694 577 694 c 2
 373 694 l 1
 373 145 l 2
 373 91 402 78 447 78 c 2
 786 78 l 2
 942 78 1002 198 1043 346 c 1
 1105 336 l 1
 1082 230 1060 112 1051 -2 c 1
 449 -2 l 1
 290 0 l 1
 28 -4 l 1
 25 0 l 1
 25 41 l 2
 25 48 28 55 41 55 c 2
 102 55 l 2
 184 55 208 88 208 145 c 2
 208 1171 l 2
 208 1235 180 1263 102 1263 c 2
 41 1263 l 2
 27 1263 25 1272 25 1277 c 2
 25 1318 l 1
 29 1322 l 1
 291 1318 l 1
 450 1320 l 1
 840 1322 l 1
 849 1213 867 1088 883 1004 c 1
 823 994 l 1
 778 1135 742 1240 588 1240 c 2
EndSplineSet
Validated: 3073
LCarets2: 1 0 
EndChar

StartChar: uni1E15
Encoding: 7701 7701 150
Width: 957
VWidth: 2047
Flags: HW
HStem: -25 101<384.041 652.941> 487 80<234 632.024> 835 70<379.618 573.516> 1103 90<188.448 211 211 757.428>
VStem: 70 155<258.044 562.935 567 639.386> 186 574 640 163<536.851 741.299>
LayerCount: 2
Fore
SplineSet
434 1567.1 m 1
 548.4 1335.8 l 2
 557.2 1317.8 558.8 1305.2 558.8 1291.7 c 0
 558.8 1282.7 547.6 1271.9 534.8 1271.9 c 0
 524.4 1271.9 513.2 1280.9 487.6 1307.9 c 2
 299.6 1508.6 l 1
 303.6 1528.4 l 1
 316.4 1540.1 354 1571.6 410 1571.6 c 0
 418 1571.6 428.4 1569.8 434 1567.1 c 1
712 1103 m 2
 211 1103 l 2
 193 1103 186 1119 186 1133 c 0
 186 1157 207 1193 231 1193 c 2
 732 1193 l 2
 752 1193 760 1177 760 1163 c 0
 760 1139 738 1103 712 1103 c 2
234 567 m 1
 610 567 l 2
 630 567 640 577 640 595 c 0
 640 786 542 835 468 835 c 0
 421 835 268 817 234 567 c 1
766 487 m 1
 227 487 l 1
 226 476 225 463 225 446 c 0
 225 238 370 76 519 76 c 0
 631 76 703 113 774 191 c 1
 815 157 l 1
 738 51 616 -25 470 -25 c 0
 188 -25 70 185 70 408 c 0
 70 719 275 905 470 905 c 0
 715.51 905 790.26 730.073 802 568 c 1
 913 568 l 2
 923 568 929 564 929 556 c 2
 929 514 l 2
 929 495 901 487 881 487 c 2
 766 487 l 1
EndSplineSet
Validated: 3073
LCarets2: 1 0 
EndChar

StartChar: uni1E16
Encoding: 7702 7702 151
Width: 1167
VWidth: 2047
Flags: HW
HStem: -4 59<28 199.047> 0 80<375.074 920.566> 669 70<373 740.095> 1240 80<375.211 857.022> 1265 59<29 200.021> 1484.6 220 1501 90<221.448 244 244 790.428>
VStem: 208 165<82.875 669 739 1236.87> 219 574 768 69<508 579 830 904.994> 876.61 318.01
LayerCount: 2
Fore
SplineSet
745 1501 m 2
 244 1501 l 2
 226 1501 219 1517 219 1531 c 0
 219 1555 240 1591 264 1591 c 2
 765 1591 l 2
 785 1591 793 1575 793 1561 c 0
 793 1537 771 1501 745 1501 c 2
1096.06 1704.6 m 1
 1194.62 1610.44 l 1
 967.47 1505.72 l 2
 933.505 1490.06 912.8 1484.6 899.71 1484.6 c 0
 885.08 1484.6 876.61 1493.4 876.61 1511 c 0
 876.61 1523.32 880.511 1532.94 900.48 1548.84 c 2
 1096.06 1704.6 l 1
588 1240 m 2
 447 1240 l 2
 398 1240 373 1222 373 1173 c 2
 373 764 l 1
 577 764 l 2
 649 764 666.92 798.018 680 855 c 2
 694 916 l 2
 695 925 701 933 709 933 c 2
 754 933 l 2
 759 933 761 929 761 924 c 0
 754 873 745 798 745 729 c 0
 745 659 756 568 761 533 c 1
 756 526 l 1
 709 526 l 2
 698 526 693 534 692 541 c 2
 680 604 l 2
 668.77 662.957 646 694 577 694 c 2
 373 694 l 1
 373 145 l 2
 373 91 402 78 447 78 c 2
 786 78 l 2
 942 78 1002 198 1043 346 c 1
 1105 336 l 1
 1082 230 1060 112 1051 -2 c 1
 449 -2 l 1
 290 0 l 1
 28 -4 l 1
 25 0 l 1
 25 41 l 2
 25 48 28 55 41 55 c 2
 102 55 l 2
 184 55 208 88 208 145 c 2
 208 1171 l 2
 208 1235 180 1263 102 1263 c 2
 41 1263 l 2
 27 1263 25 1272 25 1277 c 2
 25 1318 l 1
 29 1322 l 1
 291 1318 l 1
 450 1320 l 1
 840 1322 l 1
 849 1213 867 1088 883 1004 c 1
 823 994 l 1
 778 1135 742 1240 588 1240 c 2
EndSplineSet
Validated: 3073
LCarets2: 1 0 
EndChar

StartChar: uni1E17
Encoding: 7703 7703 152
Width: 957
VWidth: 2047
Flags: HW
HStem: -25 101<384.041 652.941> 487 80<234 632.024> 835 70<379.618 573.516> 1103 90<188.448 211 211 757.428> 1527 30.6
VStem: 70 155<258.044 562.935 567 639.386> 186 574 640 163<536.851 741.299>
LayerCount: 2
Fore
SplineSet
540.4 1553.1 m 1
 546 1555.8 556.4 1557.6 564.4 1557.6 c 0
 610 1557.6 630.8 1537.8 644.4 1523.4 c 0
 648.4 1519.8 651.6 1517.1 654.8 1514.4 c 1
 658.8 1494.6 l 1
 470.8 1293.9 l 2
 445.2 1266.9 434 1257.9 423.6 1257.9 c 0
 410.8 1257.9 399.6 1267.8 399.6 1280.4 c 0
 399.6 1290.3 399.6 1303.8 410 1321.8 c 2
 540.4 1553.1 l 1
712 1103 m 2
 211 1103 l 2
 193 1103 186 1119 186 1133 c 0
 186 1157 207 1193 231 1193 c 2
 732 1193 l 2
 752 1193 760 1177 760 1163 c 0
 760 1139 738 1103 712 1103 c 2
234 567 m 1
 610 567 l 2
 630 567 640 577 640 595 c 0
 640 786 542 835 468 835 c 0
 421 835 268 817 234 567 c 1
766 487 m 1
 227 487 l 1
 226 476 225 463 225 446 c 0
 225 238 370 76 519 76 c 0
 631 76 703 113 774 191 c 1
 815 157 l 1
 738 51 616 -25 470 -25 c 0
 188 -25 70 185 70 408 c 0
 70 719 275 905 470 905 c 0
 715.51 905 790.26 730.073 802 568 c 1
 913 568 l 2
 923 568 929 564 929 556 c 2
 929 514 l 2
 929 495 901 487 881 487 c 2
 766 487 l 1
EndSplineSet
Validated: 3073
LCarets2: 1 0 
EndChar

StartChar: uni1E18
Encoding: 7704 7704 153
Width: 1167
VWidth: 2047
Flags: HW
HStem: -4 59<28 199.047> 0 80<375.074 920.566> 669 70<373 740.095> 1240 80<375.211 857.022> 1265 59<29 200.021>
VStem: 208 165<82.875 669 739 1236.87> 302 519<-381 -381> 768 69<508 579 830 904.994>
LayerCount: 2
Fore
SplineSet
614 -117 m 1
 673 -213 748 -299 821 -381 c 1
 779 -410 l 1
 699 -351 630 -300 561 -226 c 1
 485 -304 419 -355 343 -410 c 1
 302 -381 l 1
 374 -300 452 -211 512 -117 c 1
 614 -117 l 1
588 1240 m 2
 447 1240 l 2
 398 1240 373 1222 373 1173 c 2
 373 764 l 1
 577 764 l 2
 649 764 666.92 798.018 680 855 c 2
 694 916 l 2
 695 925 701 933 709 933 c 2
 754 933 l 2
 759 933 761 929 761 924 c 0
 754 873 745 798 745 729 c 0
 745 659 756 568 761 533 c 1
 756 526 l 1
 709 526 l 2
 698 526 693 534 692 541 c 2
 680 604 l 2
 668.77 662.957 646 694 577 694 c 2
 373 694 l 1
 373 145 l 2
 373 91 402 78 447 78 c 2
 786 78 l 2
 942 78 1002 198 1043 346 c 1
 1105 336 l 1
 1082 230 1060 112 1051 -2 c 1
 449 -2 l 1
 290 0 l 1
 28 -4 l 1
 25 0 l 1
 25 41 l 2
 25 48 28 55 41 55 c 2
 102 55 l 2
 184 55 208 88 208 145 c 2
 208 1171 l 2
 208 1235 180 1263 102 1263 c 2
 41 1263 l 2
 27 1263 25 1272 25 1277 c 2
 25 1318 l 1
 29 1322 l 1
 291 1318 l 1
 450 1320 l 1
 840 1322 l 1
 849 1213 867 1088 883 1004 c 1
 823 994 l 1
 778 1135 742 1240 588 1240 c 2
EndSplineSet
Validated: 3073
LCarets2: 1 0 
EndChar

StartChar: uni1E19
Encoding: 7705 7705 154
Width: 957
VWidth: 2047
Flags: HW
HStem: -25 101<384.041 652.941> 487 80<234 632.024> 835 70<379.618 573.516>
VStem: 70 155<258.044 562.935 567 639.386> 195 519<-381 -381> 640 163<536.851 741.299>
LayerCount: 2
Fore
SplineSet
507 -117 m 1
 566 -213 641 -299 714 -381 c 1
 672 -410 l 1
 592 -351 523 -300 454 -226 c 1
 378 -304 312 -355 236 -410 c 1
 195 -381 l 1
 267 -300 345 -211 405 -117 c 1
 507 -117 l 1
234 567 m 1
 610 567 l 2
 630 567 640 577 640 595 c 0
 640 786 542 835 468 835 c 0
 421 835 268 817 234 567 c 1
766 487 m 1
 227 487 l 1
 226 476 225 463 225 446 c 0
 225 238 370 76 519 76 c 0
 631 76 703 113 774 191 c 1
 815 157 l 1
 738 51 616 -25 470 -25 c 0
 188 -25 70 185 70 408 c 0
 70 719 275 905 470 905 c 0
 715.51 905 790.26 730.073 802 568 c 1
 913 568 l 2
 923 568 929 564 929 556 c 2
 929 514 l 2
 929 495 901 487 881 487 c 2
 766 487 l 1
EndSplineSet
Validated: 3073
LCarets2: 1 0 
EndChar

StartChar: uni1E1A
Encoding: 7706 7706 155
Width: 1167
VWidth: 2047
Flags: HW
HStem: -336 90<583.672 763.067> -237 94<342.934 530.061> -158 20 -4 59<28 199.047> 0 80<375.074 920.566> 669 70<373 740.095> 1240 80<375.211 857.022> 1265 59<29 200.021>
VStem: 208 165<82.875 669 739 1236.87> 768 69<508 579 830 904.994>
LayerCount: 2
Fore
SplineSet
689 -246 m 0
 733 -246 762 -224 791 -138 c 1
 840 -151 l 1
 815 -274 757 -336 662 -336 c 0
 617 -336 574.215 -309.662 532 -283 c 0
 494 -259 456 -237 420 -237 c 0
 367 -237 340 -267 320 -335 c 1
 272 -325 l 1
 300 -204 346 -143 434 -143 c 0
 497 -143 542 -172 582 -200 c 0
 616.094 -223.866 650 -246 689 -246 c 0
588 1240 m 2
 447 1240 l 2
 398 1240 373 1222 373 1173 c 2
 373 764 l 1
 577 764 l 2
 649 764 666.92 798.018 680 855 c 2
 694 916 l 2
 695 925 701 933 709 933 c 2
 754 933 l 2
 759 933 761 929 761 924 c 0
 754 873 745 798 745 729 c 0
 745 659 756 568 761 533 c 1
 756 526 l 1
 709 526 l 2
 698 526 693 534 692 541 c 2
 680 604 l 2
 668.77 662.957 646 694 577 694 c 2
 373 694 l 1
 373 145 l 2
 373 91 402 78 447 78 c 2
 786 78 l 2
 942 78 1002 198 1043 346 c 1
 1105 336 l 1
 1082 230 1060 112 1051 -2 c 1
 449 -2 l 1
 290 0 l 1
 28 -4 l 1
 25 0 l 1
 25 41 l 2
 25 48 28 55 41 55 c 2
 102 55 l 2
 184 55 208 88 208 145 c 2
 208 1171 l 2
 208 1235 180 1263 102 1263 c 2
 41 1263 l 2
 27 1263 25 1272 25 1277 c 2
 25 1318 l 1
 29 1322 l 1
 291 1318 l 1
 450 1320 l 1
 840 1322 l 1
 849 1213 867 1088 883 1004 c 1
 823 994 l 1
 778 1135 742 1240 588 1240 c 2
EndSplineSet
Validated: 3073
LCarets2: 1 0 
EndChar

StartChar: uni1E1B
Encoding: 7707 7707 156
Width: 957
VWidth: 2047
Flags: HW
HStem: -333 90<483.672 663.067> -234 94<242.934 430.061> -155 20 -25 101<384.041 652.941> 487 80<234 632.024> 835 70<379.618 573.516>
VStem: 70 155<258.044 562.935 567 639.386> 640 163<536.851 741.299>
LayerCount: 2
Fore
SplineSet
589 -243 m 0
 633 -243 662 -221 691 -135 c 1
 740 -148 l 1
 715 -271 657 -333 562 -333 c 0
 517 -333 474.215 -306.662 432 -280 c 0
 394 -256 356 -234 320 -234 c 0
 267 -234 240 -264 220 -332 c 1
 172 -322 l 1
 200 -201 246 -140 334 -140 c 0
 397 -140 442 -169 482 -197 c 0
 516.094 -220.866 550 -243 589 -243 c 0
234 567 m 1
 610 567 l 2
 630 567 640 577 640 595 c 0
 640 786 542 835 468 835 c 0
 421 835 268 817 234 567 c 1
766 487 m 1
 227 487 l 1
 226 476 225 463 225 446 c 0
 225 238 370 76 519 76 c 0
 631 76 703 113 774 191 c 1
 815 157 l 1
 738 51 616 -25 470 -25 c 0
 188 -25 70 185 70 408 c 0
 70 719 275 905 470 905 c 0
 715.51 905 790.26 730.073 802 568 c 1
 913 568 l 2
 923 568 929 564 929 556 c 2
 929 514 l 2
 929 495 901 487 881 487 c 2
 766 487 l 1
EndSplineSet
Validated: 3073
LCarets2: 1 0 
EndChar

StartChar: uni1E1C
Encoding: 7708 7708 157
Width: 1167
VWidth: 2047
Flags: HW
HStem: -372 52<453.592 618.189> -164 64<542.575 624.942> -4 59<28 199.047> 0 80<375.074 920.566> 669 70<373 740.095> 1240 80<375.211 857.022> 1265 59<29 200.021> 1417 107<453.186 773.759>
VStem: 208 165<82.875 669 739 1236.87> 337 57<1567.6 1644.63> 631 109<-302.333 -172.933> 768 69<508 579 830 904.994> 836 55<1570.75 1649>
LayerCount: 2
Fore
SplineSet
891 1649 m 1
 879 1503 750 1417 616 1417 c 0
 465 1417 348 1506 337 1649 c 1
 394 1649 l 1
 411 1569 507 1524 616 1524 c 0
 716 1524 822 1569 836 1649 c 1
 891 1649 l 1
546 -164 m 0
 507 -164 487 -167 454 -178 c 1
 441 -165 l 1
 516.084 3.88578e-15 l 1
 290 0 l 1
 28 -4 l 1
 25 0 l 1
 25 41 l 2
 25 48 28 55 41 55 c 2
 102 55 l 2
 184 55 208 90 208 147 c 2
 208 1173 l 2
 208 1237 180 1265 102 1265 c 2
 41 1265 l 2
 27 1265 25 1274 25 1279 c 2
 25 1320 l 1
 29 1324 l 1
 291 1320 l 1
 975 1320 l 1
 984 1211 1002 1090 1018 1006 c 1
 958 996 l 1
 913 1137 877 1240 723 1240 c 2
 447 1240 l 2
 398 1240 373 1222 373 1173 c 2
 373 739 l 1
 653 739 l 2
 725 739 742.922 773.018 756 830 c 2
 770 891 l 2
 771 900 777 908 785 908 c 2
 830 908 l 2
 835 908 837 904 837 899 c 0
 830 848 821 773 821 704 c 0
 821 634 832 543 837 508 c 1
 832 501 l 1
 785 501 l 2
 774 501 769 509 768 516 c 2
 756 579 l 2
 744.77 637.957 722 669 653 669 c 2
 373 669 l 1
 373 147 l 2
 373 93 402 80 447 80 c 2
 786 80 l 2
 942 80 1002 200 1043 348 c 1
 1105 338 l 1
 1082 232 1060 114 1051 0 c 1
 585.647 -2.77556e-17 l 1
 542 -106 l 1
 558 -102 576 -100 595 -100 c 0
 677 -100 740 -148 740 -227 c 0
 740 -314 647 -372 522 -372 c 0
 456 -372 421 -360 369 -337 c 1
 391 -292 l 1
 446 -312 468 -320 508 -320 c 0
 570 -320 631 -291 631 -236 c 0
 631 -193 593 -164 546 -164 c 0
EndSplineSet
Validated: 3073
LCarets2: 1 0 
EndChar

StartChar: uni1E1D
Encoding: 7709 7709 158
Width: 877
VWidth: 2047
Flags: HW
HStem: -382 52<359.592 524.189> -174 64<448.575 530.942> -25 101<384.041 652.941> 487 80<234 632.024> 835 70<379.618 573.516> 1025 117<311.002 591.525>
VStem: 70 155<258.044 562.935 567 639.386> 175 55<1224.04 1302> 537 109<-312.333 -182.933> 640 163<536.851 741.299> 674 54<1222.92 1302>
LayerCount: 2
Fore
SplineSet
230 1330 m 1
 234 1225 329 1142 453 1142 c 0
 547 1142 669 1203 674 1330 c 1
 728 1302 l 1
 708 1096 555 1025 453 1025 c 0
 294 1025 190 1143 175 1302 c 1
 230 1330 l 1
452 -174 m 0
 413 -174 393 -177 360 -188 c 1
 347 -175 l 1
 416.473 -22.3308 l 1
 172.989 2.67999 70 199.667 70 408 c 0
 70 719 275 905 470 905 c 0
 739 905 803 695 803 522 c 0
 803 499 788 487 766 487 c 2
 227 487 l 1
 227 182 404 76 519 76 c 0
 631 76 703 113 774 191 c 1
 815 157 l 1
 740.757 54.7955 624.679 -19.5189 485.59 -24.7098 c 1
 448 -116 l 1
 464 -112 482 -110 501 -110 c 0
 583 -110 646 -158 646 -237 c 0
 646 -324 553 -382 428 -382 c 0
 362 -382 327 -370 275 -347 c 1
 297 -302 l 1
 352 -322 374 -330 414 -330 c 0
 476 -330 537 -301 537 -246 c 0
 537 -203 499 -174 452 -174 c 0
234 567 m 1
 610 567 l 2
 630 567 640 577 640 595 c 0
 640 786 542 835 468 835 c 0
 421 835 268 817 234 567 c 1
EndSplineSet
Validated: 3073
LCarets2: 1 0 
EndChar

StartChar: uni1E1E
Encoding: 7710 7710 159
Width: 1004
VWidth: 2047
Flags: HW
HStem: -4 59<30 194.943 381.694 552> 669 70<373 738.095> 1240 80<374.827 837.022> 1265 59<32 201.88> 1443 196<502.77 665.23>
VStem: 208 165<66.8792 669 739 1236.11> 486 196<1459.77 1622.23> 766 69<508 579 830 904.994>
LayerCount: 2
Fore
SplineSet
486 1541 m 0
 486 1595 530 1639 584 1639 c 0
 638 1639 682 1595 682 1541 c 0
 682 1487 638 1443 584 1443 c 0
 530 1443 486 1487 486 1541 c 0
343 696 m 1
 343 147 l 2
 343 73 354 59 418 59 c 2
 478 59 l 2
 485 59 495 57 495 44 c 2
 495 4 l 1
 493 0 l 1
 493 0 342 4 246 4 c 0
 161 4 28 0 28 0 c 1
 25 4 l 1
 25 44 l 2
 25 54 31 59 41 59 c 2
 102 59 l 2
 177 59 178 87 178 148 c 2
 178 1178 l 2
 178 1251 167 1267 102 1267 c 2
 41 1267 l 2
 31 1267 25 1273 25 1281 c 2
 25 1321 l 1
 29 1326 l 1
 79.9072 1325.51 130.815 1322.07 181.722 1322.07 c 0
 201.482 1322.07 221.241 1322.59 241 1324 c 1
 992 1324 l 1
 1019 932 l 1
 960 932 l 1
 943 1021 870 1237 783 1237 c 2
 343 1237 l 1
 343 766 l 1
 547 766 l 2
 619 766 636.92 800.018 650 857 c 2
 664 918 l 2
 665 927 671 935 679 935 c 2
 724 935 l 2
 729 935 731 931 731 926 c 0
 724 875 715 800 715 731 c 0
 715 661 726 570 731 535 c 1
 726 528 l 1
 679 528 l 2
 668 528 663 536 662 543 c 2
 650 606 l 2
 638.77 664.957 616 696 547 696 c 2
 343 696 l 1
EndSplineSet
Validated: 3073
LCarets2: 1 0 
EndChar

StartChar: uni1E1F
Encoding: 7711 7711 160
Width: 623
VWidth: 2047
Flags: HW
HStem: -4 59<50 180.629 351.981 510> 798 80<37.0081 48 48 189 342 568.383> 1359 70<405.631 583.322> 1508 196<438.77 601.23>
VStem: 189 153<62.0094 798 878 1211.34> 422 196<1524.77 1687.23>
LayerCount: 2
Fore
SplineSet
422 1606 m 0
 422 1660 466 1704 520 1704 c 0
 574 1704 618 1660 618 1606 c 0
 618 1552 574 1508 520 1508 c 0
 466 1508 422 1552 422 1606 c 0
342 168 m 1
 342 -195 261 -352 110 -352 c 0
 -4 -352 -41 -275 -41 -238 c 0
 -41 -206 -17 -170 21 -170 c 0
 57 -170 77 -186 90 -212 c 0
 103 -237 89 -276 132 -276 c 0
 186.254 -276 189.036 -87.5439 189.036 87.7188 c 0
 189.036 107.752 189 127.613 189 147 c 1
 189 800 l 1
 48 800 l 2
 39 800 37 803 37 812 c 2
 37 840 l 2
 37 856 48 880 84 880 c 2
 189 880 l 1
 189 961 l 2
 189 1281 354 1429 526 1429 c 0
 604 1429 658 1410 708 1374 c 0
 749 1343 768 1309 768 1275 c 0
 768 1233 738 1202 698 1202 c 0
 658 1202 631 1224 614 1260 c 0
 587 1327 548 1359 487 1359 c 0
 420 1359 342 1311 342 996 c 2
 342 880 l 1
 568 880 l 2
 578 880 584 876 584 868 c 2
 584 827 l 2
 584 808 556 800 536 800 c 2
 342 800 l 1
 342 168 l 1
EndSplineSet
Validated: 3073
LCarets2: 1 0 
EndChar

StartChar: uni1E20
Encoding: 7712 7712 161
Width: 1420
VWidth: 2047
Flags: HW
HStem: -25 75<597.937 1018.34> 555 74<927 1095.06 1277.81 1376> 1272 75<550.557 965.743> 1501 90<466.448 489 489 1035.43>
VStem: 65 178<440.982 883.546> 464 574 1106 165<199.651 544.121>
LayerCount: 2
Fore
SplineSet
990 1501 m 2
 489 1501 l 2
 471 1501 464 1517 464 1531 c 0
 464 1555 485 1591 509 1591 c 2
 1010 1591 l 2
 1030 1591 1038 1575 1038 1561 c 0
 1038 1537 1016 1501 990 1501 c 2
767 1347 m 0
 1018 1347 1092 1256 1214 1255 c 1
 1228 1108 1242 1026 1259 940 c 1
 1198 928 l 1
 1144 1103 1037 1272 739 1272 c 0
 463 1272 243 1028 243 669 c 0
 243 399 441 50 804 50 c 0
 916 50 1036 85 1106 151 c 1
 1106 465 l 2
 1106 528 1075 555 994 555 c 2
 940 555 l 2
 931 555 923 561 923 572 c 2
 923 625 l 1
 927 629 l 1
 927 629 1105 625 1185 625 c 0
 1258 625 1376 629 1376 629 c 1
 1380 625 l 1
 1380 572 l 2
 1380 561 1374 555 1364 555 c 2
 1362 555 l 2
 1291 555 1271 522 1271 465 c 2
 1271 228 l 2
 1271 204 1283 188 1304 169 c 1
 1165 52 1000 -25 758 -25 c 0
 346 -25 65 274 65 629 c 0
 65 1080 416 1347 767 1347 c 0
EndSplineSet
Validated: 3073
LCarets2: 1 0 
EndChar

StartChar: uni1E21
Encoding: 7713 7713 162
Width: 993
VWidth: 2047
Flags: HW
HStem: -481 76<283.608 661.676> -19 125<442.441 678.328> 279 61<350.311 586.281> 848 57<340.374 564.533> 1103 90<210.448 233 233 779.428>
VStem: 67 120<-318.353 -110.559> 122 145<431.677 750.128> 208 574 648 149<427.864 754.977> 839 98<-281.865 -107.872>
LayerCount: 2
Fore
SplineSet
734 1103 m 2
 233 1103 l 2
 215 1103 208 1119 208 1133 c 0
 208 1157 229 1193 253 1193 c 2
 754 1193 l 2
 774 1193 782 1177 782 1163 c 0
 782 1139 760 1103 734 1103 c 2
448 64 m 0
 493 64 592 77 665 155 c 1
 665 762 l 1
 624 812 572 840 509 840 c 0
 315 840 213 650 213 427 c 0
 213 237 322 64 448 64 c 0
665 92 m 1
 595 16 506 -25 406 -25 c 0
 240 -25 55 152 55 400 c 0
 55 738 306 905 498 905 c 0
 585 905 658 881 718 829 c 1
 735 864 769 904 792 905 c 2
 818 905 l 1
 818 65 l 2
 818 -144 778 -331 669 -408 c 0
 598 -458 522 -475 444 -475 c 0
 331 -475 131 -396 131 -289 c 0
 131 -245 159 -216 201 -216 c 0
 257 -216 273 -248 290 -286 c 0
 307 -322 356 -410 454 -410 c 0
 623 -410 665 -230 665 38 c 2
 665 92 l 1
EndSplineSet
Validated: 3073
LCarets2: 1 0 
EndChar

